<mxfile host="Electron" modified="2024-02-29T12:24:50.074Z" agent="Mozilla/5.0 (Macintosh; Intel Mac OS X 10_15_7) AppleWebKit/537.36 (KHTML, like Gecko) draw.io/23.1.5 Chrome/120.0.6099.109 Electron/28.1.0 Safari/537.36" etag="IXq2g_PETYedXCAoCFdy" version="23.1.5" type="device">
  <diagram name="Page-1" id="wyKVAVIkP3VxIbEyzdzV">
    <mxGraphModel dx="-24" dy="952" grid="1" gridSize="10" guides="1" tooltips="1" connect="1" arrows="1" fold="1" page="1" pageScale="1" pageWidth="1169" pageHeight="827" math="0" shadow="0">
      <root>
        <mxCell id="0" />
        <mxCell id="1" parent="0" />
        <mxCell id="5HNMblaYLIXnvHBmB5NF-1" value="" style="shape=image;aspect=fixed;image=data:image/png,iVBORw0KGgoAAAANSUhEUgAABLAAAANWCAYAAADum3XeAAAAAXNSR0IArs4c6QAAIABJREFUeF7svQm8V9P+/79KlBRFShQhU6ZrCJkTRZIpiWv64sos0w+lbqaokKEiXEJyzcI13WS4ROYprvFmytDXeBuI9H+8lu/2P875fM757M+e1tr7uR6P8zCc/VnrvZ/v/Vln7edea+1GP/3002JDgQAEIAABCEAAAhCAAAQgAAEIQAACEICAowQa/fLLLwgsR5NDWBCAAAQgAAEIQAACEIAABCAAAQhAAALGNPr1118RWFwJEIAABCAAAQhAAAIQgAAEIAABCEAAAs4SaLR48WIElrPpITAIQAACEIAABCAAAQhAAAIQgAAEIAABBBbXAAQgAAEIQAACEIAABCAAAQhAAAIQgIDTBBBYTqeH4CAAAQhAAAIQgAAEIAABCEAAAhCAAAQQWFwDEIAABCAAAQhAAAIQgAAEIAABCEAAAk4TQGA5nR6CgwAEIAABCEAAAhCAAAQgAAEIQAACEEBgcQ1AAAIQgAAEIAABCEAAAhCAAAQgAAEIOE0AgeV0eggOAhCAAAQgAAEIQAACEIAABCAAAQhAAIHFNQABCEAAAhCAAAQgAAEIQAACEIAABCDgNAEEltPpITgIQAACEIAABCAAAQhAAAIQgAAEIAABBBbXAAQgAAEIQAACEIAABCAAAQhAAAIQgIDTBBBYTqeH4CAAAQhAAAIQgAAEIAABCEAAAhCAAAQQWFwDEIAABCAAAQhAAAIQgAAEIAABCEAAAk4TQGA5nR6CgwAEIAABCEAAAhCAAAQgAAEIQAACEEBgcQ1AAAIQgAAEIAABCEAAAhCAAAQgAAEIOE0AgeV0eggOAhCAAAQgAAEIQAACEIAABCAAAQhAAIHFNQABCEAAAhCAAAQgAAEIQAACEIAABCDgNAEEltPpITgIQAACEIAABCAAAQhAAAIQgAAEIAABBBbXAAQgAAEIQAACEIAABCAAAQhAAAIQgIDTBBBYTqeH4CAAAQhAAAIQgAAEIAABCEAAAhCAAAQQWFwDEIAABCAAAQhAAAIQgAAEIAABCEAAAk4TQGA5nR6CgwAEIAABCEAAAhCAAAQgAAEIQAACECiEwPrpp5/ML7/84nW2dQ6NGjUqew5NmzY1TZo08focCd4NAvPnzzeLFy8uG4yus8aNG7sRLFGUJbBw4cJ66Sy99NLkkevH6Dr5+eefy5JYYokljH4o2RNQv1xfrjRGaN68efaBEkHmBBYsWGB+/fXXsnHobzhjxszTlOsAFi1aZPRTrugabNasWb33NrkGxMn9TqCh/or7jnxcLEsuuaRZaqmlYjmZ3Aus7777zqy11lpGN2u+Fg1Kv/76a7PKKquUPIV58+aZTp06mWnTpvl6isTtCIFHH33UHHnkkWa55ZYrGZFunvSdatGihSMRE0YpAhoYfvvtt2allVYqCeibb74xZ555pjnhhBMAWHACEh6rr756WZk5a9Ys06FDh3rFScERpnb6+lu/7LLLlh0A/vDDD2b8+PFm9913Ty0mGnKPgMaLW221lZUDpYrE1scff2zatWvnXvBElBsCc+fONa1atTK6aS1V9PunnnrKdOzYMTfnzIlUR0BjjNatW5f8sB7c6EFbfUK+ulb5VJoE5DJ22GEHc9NNN8XSbO4F1v/+7/+avn37mpEjR5rvv/8+FmhpV/Laa6+ZqVOnmscff7xk0xqs9O7d28yYMSPt0GgvZwRuvfVWK690PZUq7777rhk9erTZc889c3bm+Tqdm2++2XTr1s0MGjSo5Impr1CfMmTIkHydOGcTmsDKK69sPv3007ICq02bNmbs2LFI69Bk4//AI488Yo466iiz4YYblqz8scces7k89NBD42+cGr0h8MUXX9gx75gxY0rGLNG57rrrmmuuucabcyJQ/wicfvrp5sEHH7QPSEqV6667zvTo0aPs7/07YyKulsCECRPMwIEDS35c4qpXr17mpJNOqrZ6PpcxAckrzby65ZZbzMSJE2OJphACq0+fPubss882LVu2NP/9739jAZdmJQisNGkXuy0EVj7yj8DKRx7TOAsEVhqU42kDgRUPx7zXgsDKe4b9OD8Elh95ciFKBJYLWUgmBm1BoW2OtD3NnXfeicCqFLNmYAUCS59ZccUVzZw5cyr9uBPHIbCcSEMhgkBg5SPNCKx85DGNs0BgpUE5njYQWPFwzHstCKy8Z9iP80Ng+ZEnF6JEYLmQhWRi0BZO2uNMBYEVgnFtgaVpbMsss4zR2mtfCgLLl0z5HycCy/8c6gwQWPnIYxpngcBKg3I8bSCw4uGY91oQWHnPsB/nh8DyI08uRInAciEL8cagvXi1/51eQhcUBFYIxrUFVvBRbYSqfQB8KAgsH7KUjxgRWPnIIwIrH3lM4ywQWGlQjqcNBFY8HPNeCwIr7xn24/wQWH7kyYUoEVguZCG+GII3jGrZYM2CwArBuJzA0kwsvfFAb+NyvSCwXM9QfuJDYOUjlwisfOQxjbNAYKVBOZ42EFjxcMx7LQisvGfYj/NDYPmRJxeiRGC5kIX4YtCeVzVnXgU1I7BCMC4nsIIqtJxQr6Z2uSCwXM5OvmJDYOUjnwisfOQxjbNAYKVBOZ42EFjxcMx7LQisvGfYj/NDYPmRJxeiRGC5kIXoMWjDdr1tMNjzqnaNCKwQjBsSWKqqVatW5rvvvgtRa7qHNiSwvv/+e7PpppsavWpU5bPPPrO7/Tdp0iTdQGnNSwJDhgyxb4VQp7N48WJz5ZVXmj322KPkubz77rtm9OjRZs899/TyXIsSdEMCa9q0aebYY481nTp1KolE18GOO+5ozjrrrKIgy+V56m+DXlPepk2bsuf3zjvvmA8++MBoynepos+OHTvWtGjRIpeMfDqphgTWfffdZwYPHmw6dOhQ8rT0RHTAgAFlX1fuE4six6rx6oEHHvj7mK82C+VZG+c++OCDJTFp+4x1113XXHPNNUXGyLknTKAhgXXeeecZ9WnNmjUrG8kNN9xgOnbsmHCkVJ8kAY0vDjnkENsnlSv6u3TkkUeW/LXubXv16mVOOumkJMOk7ogEtLJNOa69bLBmtQisEJArEViC3rJlS2f3xGpIYAmHbjj1o7LWWmuZmTNn1vtHIQRCDs05Af1hGTZsmFljjTXsmZa7kdXvEFh+XAwNCaznnnvOTJkyxZx55pklT+jnn3+2guv222/344SJsiSBjz76yMqK2267rSyhtdde22jGhv4OlioILHcuroYE1mOPPWb/9h966KElg37//ffN5Zdfbm666SZ3TopIQhPQQ8qrr77anHbaaSU/q+/zuHHjzBVXXFHy9wis0Mj5QBUEGhJYEqhbbbVV2QdpM2bMMKuuuqpZZ511qmidj7hCQH+3vv76a9OnT5+yIWn1h8YqpQoCy5VMlo9D40dNgii1bLDmpxBYIXJZicAKqnN1OWElAqsmks6dO5s333wTgRXiOinyoRJYw4cP/11g1ccCgeXHldKQwNLAcOrUqUaz70oVCayDDjqoXvHhB4liRymBdcopp5i77rqrLIh27dohsDy5TCoRWJ9++mm9AkuzHm688UZPzpgwSxGQwJo0aZI544wzygqskSNHmjFjxiCwuIQyI9CQwLruuuvsDOHVV1+9ZIzTp083K6ywAgIrswzG07D+bkls9O3bt2yFLCGMh3UWtWjZoPa8qm/mVRAXAitEhsIILFWrzlKm2KWCwHIpG/mLBYGVv5wisPKX02rOCIFVDTV3P4PAcjc3aUaGwEqTNm1VSwCBVS25fH0OgZWvfNY+Gy0bLLfnVe1jEVghroWwAkvT4Jo3b+7Uxu4IrBAJ59DQBBBYoZE5/4E4BNaGG25Ydi805wEQoCWgPbC0x9WTTz5ZlggzsPy5WKIKLC0v3H///c1uu+3mz0kTaR0C//3vf82SSy5p96ssVdjEnYvGBQJRBdYzzzxj91/UPsUUfwl88skndka/9rkqV5iB5V9+td2M/g41tGyw5pkhsELkOazACqp2aTkhAitEwjk0NAEEVmhkzn8gDoHFEkLn09xggMzAahCRVwdEFVjaA4slhF6lvGSwzMDyP4dFOIOoAoslhPm4SpiBlY881jwLySu9fKGSZYMIrCrzX63A0kwsWf9vv/22ypbj+xgCKz6W1FSXAAIrf1cFAit/Oa3mjBBY1VBz9zMILHdzk2ZkCKw0adNWtQQQWNWSy9fnEFj5yqfORntehZl5FRBgBlaIa6FagRU0oeWEYQ1jiPAqOhSBVREmDqqSAAKrSnAOfwyB5XByUgwNgZUi7BSaQmClANmDJhBYHiSJEA0Ci4tABBBY+bkOtGG7lg3++OOPVZ0UAisEtqgCS021bNnSaM+BrEpDAmvu3Ll2bfFKK61kQ5w2bZr597//bV9pSYFAQwROPvlkM2vWLPsCA8nao48+2my//fYlP8ZbCBui6cbvGxJYjz32mDnqqKNM9+7dSwa8aNEi+0dKr7mm+Etg9uzZZssttzS9evUqexJTpkwxX331ldGs41KlTZs2dh+SFi1a+AsiJ5E3JLDuv/9+c+qpp5btv+fMmWPfNlvu7XQ5wZT70/jyyy/NnnvuaTbYYIOS56q977Sp7gMPPFDy9z/88INZd9116d9zf6Vke4INCazzzz/f6Fpu27ZtyUD190v9md6sTvGXwFNPPWX369too43KnsSKK65o7z1KlV9//dWOYU466SR/IeQg8mqXDdY8dQRWiAshDoGlgb0G71lJrIYElt6a2LNnT2u5VXTjudxyy4WgxKFFJrBw4UKjAa3K3XffbVZeeWXTp0+fkkgQWH5cKQ0JrOeee87oZlfyslzRPoB6uwjFbwL6+7B48eKyJ6FB5aeffmo0OClVEFju5L8hgTV16lT78Kq+zXL1QE7T/yn+EtD3Wdtb6MauVJGQvvrqq80VV1xR8vcILH9z71PkDQksXaN6WUzHjh1Lnpb+JrVv395o1gfFXwJ6ICoZWd845KGHHjIDBw4seZIILDdyX+2ywZrRI7BC5DIOgRU0F+ZVkSFCbPDQSgRW7969zYwZMxqsiwMgUB+BW2+91cpPXU+lCgLLj+unIYGlvkI3u0OGDPHjhIgyMQIS1gisxPDGWnFDAkszK5XLQw89NNZ2qcwvAryF0K985TXahgTWddddZ3r06GFWX331vCLgvCokwFsIKwSVwWESyFrRpVm9UQsCKwTBOAWWmtXNvaZnp1kQWGnSLnZbCKx85B+BlY88pnEWCKw0KMfTBgIrHo55rwWBlfcM+3F+CCw/8uRClAgsF7JQOoY4J+8gsELkOW6BpeWE2th93rx5IaKIdigCKxo/Pl05AQRW5axcPhKB5XJ23IoNgeVWPuqLBoHlT66yjBSBlSV92g4IILC4FiolgMCqlFR6x2kJr7YkquZtg+WiRGCFyF/cAitoOs23EyKwQiScQyMRQGBFwufMhxFYzqTC+UAQWM6n6PcAEVj+5CrLSBFYWdKnbQQW10BYAgissMSSPT6ODdtLRYjACpG3pASWQkhrOSECK0TCOTQSAQRWJHzOfBiB5UwqnA8EgeV8ihBY/qTIiUgRWE6kofBBMAOr8JdAxQAQWBWjSuXAZs2amR9//DH2thBYIZAmKbAURpxrQ8udFgIrRMI5NBIBBFYkfM58GIHlTCqcDwSB5XyKEFj+pMiJSBFYTqSh8EEgsAp/CVQMAIFVMapED0xi2WDNgBFYIdKXtMBSKHpl8SuvvGK0P1YSZc6cOeb55583p556asnq9TrlsWPHmqFDh5ZtXm8QOPzww8u+Kj2JuF2rc/z48eZ//ud/rHQsatF19Oyzz9p1zaWKfqcObMsttyz5+88//9x+vkuXLt4i1P51W2+9tWnTpk3Jc5g7d6556623zH//+19vz/Hll182HTp0MNtvv33Jc9D5rbnmmubkk0/29hwJPB4CegOU/rboe1+qDBs2zPTv3980adIkngY9qUWv7tYr3DfeeOOSEeuV4PoeffbZZ6mdkd4C+6c//cmsuuqqJdt844037Fu9+vXrl1pMNOQeAY0Z999//7LXgd4mdckll3CduJe6WCJadtllzeabb162z/7yyy/tOE5boSRZ/vnPf5oBAwaYFVdcsWQzTz31lBk1alTZ/izJ2KjbLQK6N+vatWvZv7U33XRT2fsSt87E32h+/vlns9deexn9M6mCwApBNg2BpVdX67XVrVq1ChFZ5YdKjP3yyy9l/xhJYB1yyCHm/vvvL1vprrvual566aXE/2BVflbpHylh8cwzz5h11lkn/cYdafGII44wBx54oOncuXPJiG6//XbTrl07s8MOO5SNWDd2ScnaNDA99NBD5oMPPjDbbbddyeZ0U6rv28EHH5xGOIm0sWjRIpsjvf62XNH3YZlllkmkfSr1h4Ck9MKFC8sGrJtdTScvWpHoHjFihDnggANKnrr6CN18TZ48OTU0kmb6XtfX/0q66YEVpbgE9Dda32tdo+WK/kaUk9bFJZePMz/zzDNNz549Tdu2bUue0NSpU80GG2xgdt5550RPWP1U0GeVakjjE/VX9Y1TEg2Qyp0h8Omnnxr1SeWKriNKsgRGjhxpNttsM7PSSisl1hACKwTaNATW448/bgYPHmxWWGGFEJHFd+jXX39tevfubWbMmFG20o022sg899xzhRZYyy+/vJk+fbpZd91144PvWU1HHnmk+X//7/+Ztddeu2TkkyZNstfxbrvt5tmZVR6uOlDNRCs3O2nmzJmmRYsW5rjjjqu8Uo6EAARyRUAzME844YSys1QkB0aPHm0filAgAAEIuEJAs1n0gK6cwNLMKM3U7Nu3ryshEwcEIJAxAd0baoKHJjEkVRBYIcgisH6DhcAydoacJB4CC4GFwArRiXIoBApIAIFVwKRzyhDIAQEEVg6SyClAIGUCCKyUgTfUHAILgRVcI1ou9eKLL5r11luvocsmt79nBpYxzMDK7eXNiUEgNgIIrNhQUhEEIJAiAQRWirBpCgI5IYDAciyRCCwElghoHxdtaq39yrQJblELAguBVdRrn/OGQBgCCKwwtDgWAhBwhQACy5VMEAcE/CGAwHIsVwgsBJYI6K082hPg+uuvt2+gK2pBYCGwinrtc94QCEMAgRWGFsdCAAKuEEBguZIJ4oCAPwQQWI7lCoGFwBKBWbNmmcMPP9xutp/0m1cc+wr8IRwEFgLL5euT2CDgCgEEliuZIA4IQCAMAQRWGFocCwEIiAACy7HrAIGFwBKBN954w4wfP97ssssuZp999nHsKk0vHAQWAiu9q42WIOAvAQSWv7kjcggUmQACq8jZ59whUB0BBFZ13BL7FAILgSUCTz31lPnmm2/MF198YY4++ujErjfXK0ZgIbBcv0aJDwIuEEBguZAFYoAABMISQGCFJcbxEIAAAsuxawCBhcASgSlTppiNN97Y3HHHHeb000937CpNLxwEFgIrvauNliDgLwEElr+5I3IIFJkAAqvI2efcIVAdAQRWddwS+xQCC4ElAhMnTjQHHHCAGTFihDnnnHMSu95crxiBhcBy/RolPgi4QACB5UIWiAECEAhLAIEVlhjHQwACCCzHrgEEFgJLBEaPHm0GDRpkN6kbM2aMY1dpeuEgsBBY6V1ttAQBfwkgsPzNHZFDoMgEEFhFzj7nDoHqCCCwquOW2KcQWAgsETjllFOsxNIX9OyzzzatW7dO7JpzuWIEFgLL5euT2CDgCgEEliuZIA4IQCAMAQRWGFocCwEIiAACy7HrAIGFwFq8eLE56KCDzKRJk8z1119v2rdvb3r37u3YlZpOOAgsBFY6VxqtQMBvAggsv/NH9BAoKgEEVlEzz3lDoHoCCKzq2SXySQQWAuvVV1819957rxk+fLh54YUX7L9fcMEFiVxvrleKwEJguX6NEh8EXCCAwHIhC8QAAQiEJYDACkuM4yEAAQSWY9cAAguBNWrUKNO1a1fTvXt38+OPP5q99trLPPjgg6Zx48aOXa3Jh4PAQmAlf5XRAgT8J4DA8j+HnAEEikgAgVXErHPOEIhGAIEVjV/sn0ZgFVtgaflgv379zN///nez5JJLWhgDBw40F198sWnZsmXs15vrFSKwEFiuX6PEBwEXCCCwXMgCMUAAAmEJILDCEuN4CEAAgeXYNYDAKrbAWrBggRk6dKgVVkEZP3682Xvvve1eWEUrCCwEVtGuec4XAtUQQGBVQ43PQAACWRNAYGWdAdqHgH8EEFiO5QyBVWyBNWfOHLtc8NBDD/39ypw+fbpp1KiR6datm2NXa/LhILAQWMlfZbQAAf8JILD8zyFnAIEiEkBgFTHrnDMEohFAYEXjF/unEVjFFlhaOrjGGmuYLbbY4vdra/bs2WbEiBFm7NixsV9vrleIwEJguX6NEh8EXCCAwHIhC8QAAQiEJYDACkuM4yEAAQSWY9cAAqvYAmv33Xc3EydONCuuuOLvV+aiRYvMLrvsYu68806z/PLLO3bFJhsOAguBlewVRu0QyAcBBFY+8shZQKBoBBBYRcs45wuB6AQQWNEZxloDAqu4AuvLL7+0e11pyWDtctNNN9lN3PX7IhUEFgKrSNc75wqBagkgsKolx+cgAIEsCSCwsqRP2xDwkwACy7G8IbCKK7C0fFAzrHr27Fnnqpw/f7658MILzXnnnefYFZtsOAgsBFayVxi1QyAfBBBY+cgjZwGBohFAYBUt45wvBKITQGBFZxhrDQis4gqsYcOGmXPPPbfs9TRkyBBzwQUXxHq9uV4ZAguB5fo1SnwQcIEAAsuFLBADBCAQlgACKywxjocABBBYjl0DCKxiCqxff/3VnHbaaebSSy8te0Vefvnlpk+fPmbNNdd07KpNLhwEFgIruauLmiGQHwIIrPzkkjOBQJEIILCKlG3OFQLxEEBgxcMxtloQWMUUWBMmTDBt27atd4+rmTNnmpEjRxrth1WUgsBCYBXlWuc8IRCFAAIrCj0+CwEIZEUAgZUVedqFgL8EEFiO5Q6BVTyB9dNPP5levXqZRx55xDRt2rTeK7Jfv35m3Lhxpl27do5ducmEg8BCYCVzZVErBPJFAIGVr3xyNhAoCgEEVlEyzXlCID4CCKz4WMZSEwKreALrvffeM9OmTTMDBw5s8Bp68cUXzddff22FVxEKAguBVYTrnHOEQFQCCKyoBPk8BCCQBQEEVhbUaRMCfhNAYDmWPwRW8QTWJZdcYjSzarXVVmvwatRNir6048ePN40aNWrweN8PQGAhsHy/hokfAmkQQGClQZk2IACBuAkgsOImSn0QyD8BBJZjOUZgFUtgffPNN6Z///52+eASSyxR0dU4dOhQs+OOO5oePXpUdLzPByGwEFg+X7/EDoG0CCCw0iJNOxCAQJwEEFhx0qQuCBSDAALLsTwjsIolsEaPHm223XZb061bt4qvxB9++MGcccYZ5qqrrqr4M74eiMBCYPl67RI3BNIkgMBKkzZtQQACcRFAYMVFknogUBwCCCzHco3AKo7AWrx4sTnttNOMlhCGLVdccYXZb7/9TPv27cN+1KvjEVgILK8uWIKFQEYEEFgZgadZCEAgEgEEViR8fBgChSSAwHIs7Qis4gisW265xTRr1szsu+++oa/CWbNmmf3339/MmDEj9Gd9+gACC4Hl0/VKrBDIigACKyvytAsBCEQhgMCKQo/PQqCYBBBYjuUdgVUMgTVnzhwzYMAAc//995vmzZtXdRWed955pnv37nYJYl4LAguBlddrm/OCQJwEEFhx0qQuCEAgLQIIrLRI0w4E8kMAgeVYLhFYxRBYmn3VpUsXs8kmm1R9BWoJor7AI0eONI0bN666Hpc/iMBCYLl8fRIbBFwhgMByJRPEAQEIhCGAwApDi2MhAAERQGA5dh0gsPIvsPTmwWOPPdZIYlX65sFyl+mYMWNMx44dTb9+/Ry7kuMJB4GFwIrnSqIWCOSbAAIr3/nl7CCQVwIIrLxmlvOCQHIEEFjJsa2qZgRWvgXWr7/+ak499VRz2GGHmY033riqa6TmhxYsWGCOOeYYM27cOLPMMstErs+1ChBYCCzXrknigYCLBBBYLmaFmCAAgYYIILAaIsTvIQCB2gQQWI5dEwisfAus2bNnm8mTJ9u3D8ZVpk+fbv7973+bww8/PK4qnakHgYXAcuZiJBAIOEwAgeVwcggNAhAoSwCBxcUBAQiEJYDACkss4eMRWPkVWD/88IPp1auXmTJlimnbtm1sV9LPP/9sDj30UHPGGWfEMqsrtsBiqAiBhcCK4TKiCgjkngACK/cp5gQhkEsCCKxcppWTgkCiBBBYieINXzkCK78C6/LLLzddu3Y1W2+9dfgLo4FPSI6de+655uKLL4697iwrRGAhsLK8/mgbAr4QQGD5kinihAAEahJAYHE9QAACYQkgsMISS/h4BFY+Bda7775rxo4da6644orErqAJEyaYVq1amf333z+xNtKuGIGFwEr7mqM9CPhIAIHlY9aIGQIQQGBxDUAAAmEJILDCEkv4eARW/gTW999/b986KHm1wgorJHYF/fjjj+bkk082p59+ulljjTUSayfNihFYCKw0rzfagoCvBBBYfmZu/vz55pprrjG//PKLWWuttcyee+5Z8kSee+458/TTT5umTZuaE044wSxatMi+ybh58+Z/eAvxTz/9ZI+JWhYuXGiuv/56s+qqq5revXtHqm7x4sXmxhtvNEsvvfQfHrBp+4MmTZqYRo0aRaq/vg9rTP2Pf/zDzJo1y6y88sqWb5xbOCQWeIEqRmCln+zx48cb9T0bbrih3dqkVJk5c6Z56KGHzHLLLWcOOeQQ26/cdNNN9u3pf/7zn3//iF5Ope9wHN/j6667zj6Ij+PN6vfcc4+ZM2eOOeqooxKJtVzW9Lf49ttvN9rzuEuXLrb/VN9HiZcAAitenpFrQ2DlS2BpkHnhhReaPn36mD/96U+Rr4+GKlBnffbZZ5vG6ILfAAAgAElEQVQxY8bYga3vBYGFwPL9GiZ+CKRBAIGVBuX42/jyyy9Np06djB5ArbfeeubFF18s+bd7n332Mboh083dt99+aySqunXrZmXMww8/bAN74oknzNFHH21f6hK16HpSPDvttJO9aY1SdIOrty63adPGPP7447aqZ5991soszU5v1qxZlOrLfvaRRx4xBx54oK1/pZVWMl988YXRdgs6n7333juRNqk0PAEEVnhmUT/Rrl0789VXX5lNNtnEvPzyy3Wqk3SWeFHfogfir7zyill22WXt8RJZEuoq//rXv8zIkSPN3//+d9OiRYuoYZnOnTubNddc0+i7G7Xsscce5o033rDyWmXGjBlm9OjRVqYn9dZ28ZAQ1GQF9c0fffSRfTBx5513mlVWWSXqKfH5GgQQWI5dDgis3xKy0UYb2Q7SdwkjC//OO+9YqRTH04lKLld1/M8884zdE8v3gsBCYPl+DRM/BNIggMBKg3L8bQQCS7MaVN58800rtGoX3fzohlM3iRJYkkK6OVtyySXtU34VyZoHH3zQfPfdd5EDjVNg6Wb4tddes7OtNthgAxvb8ccfb8aNG2cWLFiQiMD67LPP7I23biYlrDQDQjNODj74YPPPf/7TjstKcY4MjgpCE0BghUYW+QMSWJplKaGrmVbrrrvuH+rU90f/T98ZfU8CgfXqq6+axo0b23s0FX2fnn/+efPSSy85J7DefvttG/9mm21mY9XLriTOdS5JCCz1c+uss46dHav7Vwk/8dXex+3bt7eyT30gJR4CCKx4OMZWCwLrN5R5EFgy71o2KOOvDj/NohlYepKhJxA+FwRWsQSWBkNa7qEp65pNsNpqq9W5fPX/NRtBRcdqFsIll1xib4Z08yfprdkJkyZNMtttt51Ze+21I38F9IbPBx54wA70opa//e1vZsiQIXY2gIoGkRLdmqEZ3NxFbaO+z4vNbrvtZjbddNPcvfQhSW6u143Acj1DpeMLBJZmO6iPueiii+xWADWLpNRf/vIX+yRfIkgCSzdL2p5AD8bUX+rfJQKmTp1qPvzwQ3szGcxskuxS3yixtdRSS9l+puZsCf1/CTSNUzQbY/XVV7d1BjOwJk6caF5//XV7M6gZGKWWwygeCTXVpT5XM55qFsWs+oNYTznlFLtE8ZNPPrGzFYI6Fetbb71lz1H9v5Yw1iy6IVTRjaBumnVz3bFjxzpwJ0+ebG9Yp02bZv8OBEU3r/qboT1JNb6gZE8AgZV+DiSwNAbQbM2dd97ZXHvttX8IQmMrLbeVfJE4DwSWvpfqczQT9JtvvjEDBw60v1O/ozqD77GWB2u8pO+r+iH1OTUnJOjvlY6RSFKfo/5C/U4wA0tLF9XXqc+RoG/dunUdSOor1IZikqzu0KFDnb5CS7OXX3552y9pKaH6DPUJmh0VxKq+K+gftcxYM8Bqlrlz59pxWsuWLe3nNZNUcdYu6v80htV+xFtuueXvvxaj++67z54Py5fju9YRWPGxjKUmBNZvGH0XWBpMakB6xx132H0X0i76w6Bli5JnwZOStGOIoz0EVrEE1l577WXuv/9+e3Om5TKl9oPRjY/e6KnBy1NPPWVvTq6++mo7LVwDEw1Kpk+fbrbZZhs7EzGOt35qtoDi0VPJqOXWW2+1U+71JFNFMe6www525kTPnj2jVl/v57/++mu7t4Qk4Iknnmg5UvJBAIHlZx4DgXX44YcbfT81Q+CDDz74/Um9+jnJ7R133NHOGtJsh9pLCNV37LrrrnZ5nm7YdKN4ww03mP79+9vvuvar0Q2clv7MmzfPSiQJ/l122cXejKoP1QwvXUOqSzMHFIPa1fghmFGgflljCy0Xqtk3SzgddNBB9mY4mOmkPvP888+3bdZcQqgbXY2N1FcHsY4aNcocd9xxRjMmdLOnZZSqRzHrv9Vf6uZRZd9997WztvT7u+++29avfrn2/qJakqmHiBJgNYWbbkD1twGB5c73BYGVfi4kmzbffHM7M+jRRx+18ln9QlAkf9UfqS/Rd6bUEkLN0FI/oe+3JJUeJOr7qtlH6s8+/vhj+/2UhJK81p59wdJdje3VB6y//vpW3Kuo/9h9991tXyTREywjlKzW3lgaHwaTASScJKQ0jgr6CvU5I0aM+H12Vc0lhFoKrRlQ6st0vB4UaC9BCfQjjjjCPPnkk1bqq2/RA1KNjYI+RXsYq8/bfvvtzZQpU2ysEvraP6yhovb69u1rpbxircm4oc/y+/oJILAcu0IQWL8lxHeBddppp9lOUU8wsyp6aqD9MDRQ09MSHwsCq3gCSzdo+iOvp3G6mapddFOl61kDjkBg1T7GZYFVO9a0BJb2shg0aJAdVGrAqYEmAsvHXrF0zAgsP3NZU2BJzkgq6UYrEO/aI0rjCM2I0MzqUgJL3219r3WjpX7xhRdesA/OdDOm2Qua/aBNmzXbQQ/XJLQkeCSK1JdKYOnmSrOrhg4daoJxqNr9/PPPrTSSjFK/odmojz32mJ1xsdVWW9mZC5Jr6pcVn/pu1atNn/U5PVioKbB006qbxjPPPNNI5qtdzaDSzDDVoSWRN998s1lxxRXt3jUHHHCAnc2gWar6nerUja2O/etf/2o+/fRTO/OskiIBJ/GmG2bdeOtvDCV7Agis9HMQCKzDDjvMflfVrwRCRn2E+g+9NEJ7+JYTWPoOabao5Jf2eApeHqX97vTvV111lRVgmsGlB2eST//5z3/syWpsr++5ZLLul9QPqG/REjyJZ8kniW0VCWzNAtV4UP2jxLa+/xJOWh4s0aRZp+or1JepX5H0qimwVKce2mkWlMS3Zm6qP9DxkmwS/pqppYcEkmxaenzXXXfZ9tWv6iGp+uSzzjrLstK2MOqPyhXtRyyRp35XHCXvJLIo8RFAYMXHMpaaEFi/YfRVYKlD1FMIdYT6o5zWvlflLj4NLnWTKokVx5uJYrnIQ1SCwCqewNJgafjw4VawaLBTc3mInmJp+YcGBXriHwgsTTfXTZWevmkWgqZwa8aUBiLBTZlu2DSNWzeCwSBKg6UBAwbYjYr1XdXgRct+1bYGKvp/5513ntGyP9Wn2WFqW8dpeYueMuqzQdGNmm7sdLOl2QS6CdPTPM2ECJbz6AZTg70rr7zSzo5Qe/fee6998qgp/bopU9HvbrvtNvvkToNA1aMbz2Dpj24CNbhUP3POOefYm0QtTdSAsFTRgE0DS83K7N69ux1QIrBCdEaOH4rAcjxBZcKrKbB0U6QbM/U/wR6WEkD6b80y0h5X5QSWqtcNnPrCYA8sbVoc/P3XmCQoGvjrhlA3jbpR1U2cpP/777//u9QJ9sCSkNJsg2CPLs3A0vKZLbbYwvZP6q80vgiWHgZtSGZptqz6Ws2Cqr2Ju2ZcqS8N9sC6+OKLbV2ahVGzz9dNrG5g1Q/qplsCSzeglc6AqIl92LBhti7VedJJJ/l5weQwagRW+kkNBJZmYur7pj5B3w8VvRVV3xOJKQmucgJLx2ocJmEe7IGlfkpCSmJLfURQNI7S91uzLiWyNLZXH6T+TOOeoKhvkfCSkNJSPRVttyDZrP5Ny47VN6q/UH9Vc0neBRdcYC677DIr1XV+tTdxl6iTVAr2wNJYUMdo7KgxUVAkrjQufO+996zoksBSu+oja8ZaX9Y0vtO2FhqnaZbZpZdeasdmWd8Tpn+lJdciAis5tlXVjMD6DZuPAkvySp2jfmrvYVHVxRDTh7QkQQNNibVgEBpT1YlXg8AqpsDSjZf+6EvM6KlZUDSA0XR03dBJ+AQCS7MDNEDQ03jNXtAATDc5EljawFNiRzdUp556qunRo4cdtOjpvm4OtbeBZgxIZml2gPaD0NR4PUHTYEuDHQ2WJMUkiTSNXVPJJYI0O0HCKhj8BPuu6CZU09tVnwZDkkUaKGrgpps29Q/ai6q2wFKsGkRKgOlcddOn74D2edATQg2eVKdkmOLSf2uWhG6CFZs2J9aygFJF5xtsWqwp+gisxLuvVBtAYKWKO7bGagosiSAtJ9ayE83MVNFWAJJM6tM0KyCMwNLnNS5RXyPxpBs+jQd0k6f9azQbQX2BBJbGnpLuQQkElmYNqM8KSvB2MvW1ikX76Uk66WZNs6iCoj5LQk6zISSd6hNY+pxmiilOCf2aRQ8LTj/9dDtrSn2+6lK/r/650qJ+XDfVuqnUzHjNpkh7X9JKYy3icQis9LMeCCxJHI2n9BBN4xkVfae1ZFdboOhNoWEEVtDnaFylPkciSn2Z+hzNJtX/0+wojWs0JlL/V3NZnQSWZlxqxlLNotme6rMksjU2DCYL1DxG4mrw4MFWSOnBYkMCS2M5LQnUT22xpLGjRJnqk8BSPyahFUi1SjMmQa8xp/pDcSy1d1aldXHcHwkgsBy7IhBYvyXER4Gl2R2aKqrZIy69PVE3tvrjpA5UywN8KgisYgos3WhpppVu3IL9EXTDIsmkvQu0WWc5gaXvXu0lhLohlLyR3AmWouh7oBlVukHTIC7Yl0WDDc10kjDSIEzLboI3ZkmC6d81ANPARNPZtR+NhJueGkp8HXPMMVZ4BdPLNXNLg0D9UzHXFFiKofYSwiBWiSl9b4O+RP2LZmFJmGnJTiCwJKI0uNLNn46t5AkfAsunXrCyWBFYlXFy7aiaAksSSP2dJI1mLukmTf2ABJH6wrACS3/7JX8k82fPnm33fpH0DjZcrymw1J9J5AclEFjqCzUbo2ZRP6SYNPNC8l6zocrdmGlWrCRcfQJLMikQ8eXeDKjZprohFRvN9gpm0TaUT52HZpGo/9V56OEBbwJriFq6v0dgpctbrdUUWPo+SRBpKbKWyWm2k2ada0yk2eNhBJYElcS1Htxp9pEetqnP0b56GsPUFliSUjXvl4KXT2msVbNINmnMo35HS6I13ir1kh99Rp/V2KwhgSVxr7FbuRf96LrUQ89gDyzJuGq2Y9FDVT30lJzXvluUeAggsOLhGFstCCz/BJYGg8ESJs1ycrVouq72ydA6c1+WEyKwiimwNPDRjY+e2mlKumSQZitpk3M9gdOTvDACS99JPYXX4ElP+/VmHA2c9CRfywD1pFEiSLObJLD0fdamyEGRtNImnpJoNQWRntDpO68bQS0N1PWq2Y41p5nrM3qiqbfTaGDVkMBS2xo4Sl7ppi8oil8zu4J9ZQKBpfY0yAxTEFhhaPlxLALLjzzVjrK2wNJ4QkvuNANTMxN0I6gbSPU7YQWW+ibtNaW974K3GKoezSrQjK6aAktLrCWkagss9bOafRoUxReIez0oUN+mcYUekNUcV6iv1QMA3ZzqM/UJLPXvWuqtf+pcaxbVIzmvBwmKXf2f+j7dTDZUtAm1bmKDpeGScRT3CCCw0s9JTYGlh3Aas2h/OM1c0vJezdjWio2wAkv7VOk7p7GQ5I/e6Kd6tGxX9x7qE/Q9D2Zgqe2aL1mQwNJMdI1rgiIRr/5B4lkrXPTvmiGm2aQ1i+oOHjqqr2hIYKkv0QNBybCafZf6K+0hrO0aVE8gsCTN69uEXeNSCTEtq6w5TlT/KNmmvlginhIPAQRWPBxjqwWB9RtKn2ZgaQaFOm0td3L5yZ46ZS0x0h+AYK17bBduQhUhsIorsCSYtIeUppJrP4JgA06JLEmesAJLb9/SPgyatq5NSgOhpRlPmpW13377/S6wJMlqvoBBAkuzK4M3BwaXu2LT4Fs3grrR1AxHDYRqLk8JlvBIkKmdhgSWBji6wdSTy9qzqXSTqRtB3cAFAquaNy0isBLqsDKsFoGVIfwITdcWWKpKS3rUn+h7qiWFwbK6hgSWBI1mlUrQq2jPFdWvpS81+xLNOpV8Un+m2ayaiVBOYKkPVl8TFPWbiks3tlqSp70CNXNM4mmttdb6/Ti9NUx7YGl5js6htsAKZrVqSbhuYDU7Sv2eNoauOQtLdasNxauZF5UKLN3I6kZX564ZEDVfax8hXXw0AQIIrASgNlBlTYGlMYq+z5JW+j5q+Zy2ZVCpRGBpKbG+/5JKyqUelksASTqrSECpL9K9h/oZjZHqE1gSSlrOGHxeG7BrdrtmT+rBpu5f9E893NR5BEUPPLUCRhJJs/VrCyy9WVHSSzPOJKc0816zQ9Vn6p9B0X2S+hlJfo09KxVYkm568KA+T20HRQ8/tX+hZrgl/abp9K+k7FpEYGXHvmTLCKzfsPgisLTnjZ48ao8dl5YNlrus9YdEy4309NKH5YQIrOIKLF3DklR66qWBj95qo5lSWrIiYRxGYGnQpGV32iNBb+bUjZCeiOnpvm4KawssPbGvOa1cN1vaHF7f9ZpF0+z1OwksbcyuGVnaX0UzKGoX3QjqLT8NCSw9qdSTOg12SglxDep0MxYILA3INP0/TEFghaHlx7EILD/yVDvKUgJL8kpCXdJJ3+9gM+SGBJZmTujNX9rMWP2jbpy0nFnLrvXfEvcSS/r/qltL/9QP1iewdDOpmzs9QJAY042tNlXWgwT1ydo3a9ttt7X1aMaF9rLS79QXalaHlkTqhrW2wNIyI8WpG07NdlV/q5tc3UBrs2f1lRJsullV3ZodK9FVqcBS36zxg2Zz6PxqF0m8mhs3+3n15CNqBFb6eawpsNS6JK9mX0lm6fur77RKQwJLe31K3GjMIjmjsZNEuv5b3z+9UEIboKvP0UNJSScth65PYOkYjdcktPV3TX1YsL+w7g01q119hR4+qq9QnyOBpn+XRH/00UdtX1FbYKkP09YQEuKaRarZXtqqQuNAxav+SuOq4G2IwX6jlQosyX0x1DhRe7JKoCtuybbWrVvbMWQ1SxDTvzr8aBGB5VieEFh+CCx1VFrPLZMfPKlw7FKqNxzNQpHEUgcQvB3NxfgRWMUWWNdee619+qWbGP27BgZ6yteQwNJNn/Zy0KwpDXT0XdX0eD0Zq/kq4+AJXLAML1hCWEpg6ZXPeipYU1RrpoRu0HSjpQGgbjrVlm4Wg6IBnJ5IKh7diDYksPQ0U0JKAy09MQyK9qjRE0YNLHVDhsByscfKLiYEVnbso7SsMZ/6KN0oaoaoiv5f165drQjXzWQwe0rLkCXLJZ40w0gzJfQKeb1KXkWzMXWMJJD2WtH+V6pXs5eC5XxahixhoL/9ku4SPOq3JPk1EyEomkGhF1qoL9KMVI11dHOrGVu6IdXngqL+UkuxNdtJy/00u0F9nR7w6UZSD84kqfQmRN3IqmiWhGYlqB3FrJtU9e96wKClOKpHYxPdBOr89ABARb/Xcepv6yt6y6D6+3JFN7HqvynZE0BgpZ8DfX8lgzTOCIrGKJJMGoNozyoVjb/0NkKNuTT20vYG2oZBWxyoqH/SixH0PVafo5clSGCpL9KYRQ/cJIY0dpE00stvNBtdkkj70qkvq3kPotma6g/Vl2g8pj5He3Kpz6m5pYI+p75AMzbVV6if0TlpnCZZpKK4tGdW8EIMSS7NqJKI12e1akayTH2XxnBBn6MZoHrQr3ZVJNvVN6rPCbiUy5i2v1B/qgevOn+NF9UXara++FHiI4DAio9lLDUhsH7D6PoMLO1lo0GabjBrvnknlosghUo0oNT+Pxpgaop+sOF0Ck2HagKBVWyBpRsnzZbSd02bYEoOaXleQwJLAzDNUtIASZt/6omcZi/oJkmzBFR0w6b9rnRzpxsk3UTVJ7D0PdHgTbPANCjRbC6JJMWldiSqNLNJr6TWfljt27e3gy/NztTyGN24aWBTW2BJtqkOvRFRN3T6jDabD2aeBTPBdHOrAZdmZ0jGIbBCdSW5PxiB5WeK9bdYM6M0S6mmHNfeMPq7rL4vKMqxZh0ET/F1Iya5FdwYqe9QPxRIJH1Wsws0rtQ/daMoEaQ29Vnd9On/qV59tubNmf5bxygGxaZZV/p/em19qTFP0E4gyiSrar71uHasOifFqn5Y5x20rfPTrC/Vo3b11q+aM1F1o6xj6tuLRnXrOMVUrgTn7udVk6+oEVjp51PfPX2v6utfgu+Rvm/6fqqvCZYn1+wr1H9JmqsfUn16wK8+JxBLkuzqC9Sm+hNJLW3poO+4+rKay5tVl45RHxP0Ofp8qRUuNfsK9WM6rqG+Qn1dsL9V0G8qXs3qKtfn6Nz0O/U5lbwkJ4grEGLqc317A3z6V2T4FhFY4Zkl+gkEltsCSx2TbiJ1kypr73unpBttLZ/STbam9bpWEFjFFlj6vklmS2QFy/x0jTYksLSXg57GaaCip2l6uqalJ9o7S08BNYCS5NJMKYkjLQPUhsf1CSw9zVdd2hhYN3Ga3SUpptmMwRM/1ak3XumpnmYu6J96QqilPZJY6i9qCyzFqtkWGhhq+rumnOupoQb12vtBv9PATwwOOeQQuxG8BnMILNd6q2zjQWBly5/WIQCB6gggsKrjxqcgUGQCCCzHso/Acldg6cZVMyi0nEnrs/NStCxK0/u1zEnT9V0qCKxiCSxJGkmnYM8XXYuaki3Jo+ntgTDWNHctI5Hc0lMxHfPpp5/aWVfBBup6evfII4/YJ3wSVfr/EraSVHpSpxlX+qeW5GgWgD4rUaTp8poBVfPNOJJQejKo74emzkuI6e1b5fae0iagakuiS5t6BstfdD56nb1mV2mafFA020JT1HUuqldPH4O9KDRFX7FoWr7EeVDESRJLS4LCTk3X8h3FpD1sKPkggMDKRx45CwgUjQACq2gZ53whEJ0AAis6w1hrQGC5KbC0dlpvApK80mth81Z0M6y3n2kW1jHHHPOHt6hlea4IrGIJrCyvNdqGgM8EEFg+Z4/YIVBcAgis4uaeM4dAtQQQWNWSS+hzCCy3BJZmZmjpkDbv02bteX6DhGZ86LXYuhGSOKr5etqELvcGq0VgIbAavEg4AAIQsP22NtHVBrmlivb50Aa6wYa2IIMABCDgAgEElgtZIAYI+EUAgeVYvhBY7ggsbXSq5T/aOyd4pbVjl0si4WjfHi2v0ts8tCl1lgWBhcDK8vqjbQj4QgCB5UumiBMCEKhJAIHF9QABCIQlgMAKSyzh4xFY2QssiSu9MUxvJzvqqKPsPjtFK3oL0LXXXmvf9nPKKaf84U0labJAYCGw0rzeaAsCvhJAYPmaOeKGQLEJILCKnX/OHgLVEEBgVUMtwc8gsLITWBJX77//vt3rSvtcaTlGzVeyJph2Z6t+7LHHzHXXXWclljaL1utt0ywILARWmtcbbUHAVwIILF8zR9wQKDYBBFax88/ZQ6AaAgisaqgl+BkEVjYCS/s/DR8+3L5pbPDgwfbtYZTfCGiDd72h8Pnnnzfjxo0L/cazKBwRWAisKNcPn4VAUQggsIqSac4TAvkigMDKVz45GwikQQCBlQblEG0gsNIVWD///LN54IEHzOOPP252331307NnT9OoUaMQGSvOoa+99trv+2IddthhpnXr1omfPAILgZX4RUYDEMgBAQRWDpLIKUCggAQQWAVMOqcMgYgEEFgRAcb9cQRWOgJr4cKF5r333jPnnHOO2Xzzze0SuaIvF6z0WtYbGUeMGGEGDRpktttuO9O8efNKPxr6OAQWAiv0RcMHIFBAAgisAiadU4ZADgggsHKQRE4BAikTQGClDLyh5hBYyQusqVOn2n2uBgwYYHr06GHatWvXUFr4fS0CWlY4Y8YMc/XVV5s99tjDHHLIIYkwQmAhsBK5sKgUAjkjgMDKWUI5HQgUhAACqyCJ5jQhECMBBFaMMOOoCoGVjMDS3lbakPzpp582q6yyin27YMuWLeNIWaHr0BLMW265xe6PteWWW9olmO3bt4+NCQILgRXbxURFEMgxAQRWjpPLqUEgxwQQWDlOLqcGgYQIILASAltttQis+ASWNmbXoF4bj0+ePNlceOGFdp8r9riq9uqs/3OvvPKKOe644+zbCocNG2Y3wm/cuHGkxhBYCKxIFxAfhkBBCCCwCpJoThMCOSOAwMpZQjkdCKRAAIGVAuQwTSCwogusTz75xNx5553mrbfeMuuvv77ZeuutzcYbb2yaNm0aJhUcWwWBX375xbzzzjtm+vTpRkKrTZs2Zt9997X8qykILARWNdcNn4FA0QggsIqWcc4XAvkggMDKRx45CwikSQCBlSbtCtpCYIUXWAsWLDDvv/++mTlzphUn8+fPt/tb7bjjjmzMXsE1l9QhmgH36quv2iWGX331lenWrZvZdNNNzZprrmlWWGGFimbCIbAQWEldn9QLgTwRQGDlKZucCwSKQwCBVZxcc6YQiIsAAisukjHVg8CqTGBpps+0adPMXXfdZZ566ikzcOBA079/f9O6dWvTrFmziuRITCmjmgoI6K2P8+bNM0888YQZP368WWqppaxk1AbwrVq1KlsDAguBVcHlxSEQKDwBBFbhLwEAQMBLAggsL9NG0BDIlAACK1P8dRtHYP1RYOltdx9++KF5++237SyrX3/91S4FXHrppc0aa6xhunTpYn/Y18qxC7mBcD7++GM7Y07LDX/44QcjwaUN4Tt06GDz2blzZ/vvEpPqpNZee+2SNU6aNMnO5tptt938AhAiWi2H1Sb522+/fclPiWOLFi3s/mMUCECgmAQQWMXMO2cNAd8JILB8zyDxQyB9Agis9JnX22JRBJaW9916661lWey8886mU6dOdg8lLTvTzbuWoC2zzDKOZYxw4iIgOfnaa6/ZWVovvPCCFZaatTVq1Ciz2mqrlWzmgQceMBtuuKHdnD+vBYGV18xyXhCIjwACKz6W1AQBCKRHAIGVHmtagkBeCCCwHMtkEQTWokWL7N5I2iOpXGnSpIndgH3JJZd0LEOEkxYBCS3N1NJ3or6iPbW0dDSvBYGV18xyXhCIjwACKz6W1AQBCKRHAIGVHmtagkBeCCCwHMtkEQSWY8gJBwJOE0BgOZ0egoOAEwQQWE6kgSAgAIGQBBBYIYFxOAQgYLeXWWeddUy7du0So6H7r4kTJ8ZSf6PF9U3biaWJbCtBYGXLn9Yh4PLEUe0AACAASURBVBoBBJZrGSEeCLhHAIHlXk6ICAIQaJgAAqthRhwBAQj8kQACy7ErAoHlWEIIBwIZE0BgZZwAmoeABwQQWB4kiRAhAIE6BBBYXBQQgEBYAgissMQSPh6BlTBgqoeAZwQQWJ4ljHAhkAEBBFYG0GkSAhCITACBFRkhFUCgcAQQWI6lHIHlWEIIBwIZE0BgZZwAmoeABwQQWB4kiRAhAIE6BBBYXBQQgEBYAgissMQSPh6BlTBgqoeAZwQQWJ4ljHAhkAEBBFYG0GkSAhCITACBFRkhFUCgcAQQWI6lHIHlWEIIBwIZE0BgZZwAmoeABwQQWB4kiRAhAIE6BBBYXBQQgEBYAgissMQSPh6BlTBgqoeAZwQQWJ4ljHAhkAEBBFYG0GkSAhCITACBFRkhFUCgcAQQWI6lHIHlWEIIBwIZE0BgZZwAmoeABwQQWB4kiRAhAIE6BBBYXBQQgEBYAgissMQSPh6BlTBgqoeAZwQQWJ4ljHAhkAEBBFYG0GkSAhCITACBFRkhFUCgcAQQWI6lHIHlWEIIBwIZE0BgZZwAmoeABwQQWB4kiRAhAIE6BBBYXBQQgEBYAgissMQSPh6BlTBgqoeAZwQQWJ4ljHAhkAEBBFYG0GkSAhCITACBFRkhFUCgcAQQWI6lHIHlWEIIBwIZE0BgZZwAmoeABwQQWB4kiRAhAIE6BBBYXBQQgEBYAgissMQSPh6BlTBgqoeAZwQQWJ4ljHAhkAEBBFYG0GkSAhCITACBFRkhFUCgcAQQWI6lHIHlWEIIBwIZE0BgZZwAmoeABwQQWB4kiRAhAIE6BBBYXBQQgEBYAgissMQSPh6BlTBgqoeAZwQQWJ4ljHAhkAEBBFYG0GkSAhCITACBFRkhFUCgcAQQWI6lHIHlWEIIBwIZE0BgZZwAmoeABwQQWB4kiRAhAIE6BBBYXBQQgEBYAgissMQSPh6BlTBgqoeAZwQQWJ4ljHAhkAEBBFYG0GkSAhCITACBFRkhFUCgcAQQWI6lHIHlWEIIBwIZE0BgZZwAmoeABwQQWB4kiRAhAIE6BBBYXBQQgEBYAgissMQSPh6BlTBgqoeAZwQQWJ4ljHAhkAEBBFYG0GkSAhCITACBFRkhFUCgcAQQWI6lHIHlWEIIBwIZE0BgZZwAmoeABwQQWB4kiRAhAIE6BBBYXBQQgEBYAgissMQSPh6BlTBgqoeAZwQQWJ4ljHAhkAEBBFYG0GkSAhCITACBFRkhFUCgcAQQWI6lHIHlWEIIBwIZE0BgZZwAmoeABwQQWB4kiRAhAIE6BBBYXBQQgEBYAgissMQSPh6BlTBgqoeAZwQQWJ4ljHAhkAEBBFYG0GkSAhCITACBFRkhFUCgcAQQWI6lHIHlWEIIBwIZE0BgZZwAmoeABwQQWB4kiRAhAIE6BBBYXBQQgEBYAgissMQSPh6BlTBgqoeAZwQQWJ4ljHAhkAEBBFYG0GkSAhCITACBFRkhFUCgcAQQWI6lHIHlWEIIBwIZE0BgZZwAmoeABwQQWB4kiRAhAIE6BBBYXBQQgEBYAgissMQSPh6BlTBgqoeAZwQQWJ4ljHAhkAEBBFYG0GkSAhCITACBFRkhFUCgcAQQWI6lHIHlWEIIBwIZE0BgZZwAmoeABwQQWB4kiRAhAIE6BBBYXBQQgEBYAgissMQSPh6BlTBgqoeAZwQQWJ4ljHAhkAEBBFYG0GkSAhCITACBFRkhFUCgcAQQWI6lHIHlWEIIBwIZE0BgZZwAmoeABwQQWB4kiRAhAIE6BBBYXBQQgEBYAgissMQSPh6BlTBgqoeAZwQQWJ4ljHAhkAEBBFYG0GkSAhCITACBFRkhFUCgcAQQWI6lHIHlWEIIBwIZE0BgZZwAmoeABwQQWB4kiRAhAIE6BBBYXBQQgEBYAgissMQSPh6BlTBgqoeAZwQQWJ4ljHAhkAEBBFYG0GkSAhCITACBFRkhFUCgcAQQWI6lHIHlWEIIBwIZE0BgZZwAmoeABwQQWB4kiRAhAIE6BBBYXBQQgEBYAgissMQSPh6BlTBgqoeAZwQQWJ4ljHAhkAEBBFYG0GkSAhCITACBFRkhFUCgcAQQWI6lHIHlWEIIBwIZE0BgZZwAmoeABwQQWB4kiRAhAIE6BBBYXBQQgEBYAgissMQSPh6BlTBgqoeAZwQQWJ4ljHAhkAEBBFYG0GkSAhCITACBFRkhFUCgcAQQWI6lHIHlWEIIBwIZE0BgZZwAmoeABwQQWB4kiRAhAIE6BBBYXBQQgEBYAgissMQSPh6BlTBgqoeAZwQQWJ4ljHAhkAEBBFYG0GkSAhCITACBFRkhFUCgcAQQWI6lHIHlWEIIBwIZE0BgZZwAmoeABwQQWB4kiRAhAIE6BBBYXBQQgEBYAgissMQSPh6BlTBgqoeAZwQQWJ4ljHAhkAEBBFYG0GkSAhCITACBFRkhFUCgcAQQWI6lHIHlWEIIBwIZE0BgZZwAmoeABwQQWB4kiRAhAIE6BBBYXBQQgEBYAgissMQSPh6BlTBgqoeAZwQQWJ4ljHAhkAEBBFYG0GkSAhCITACBFRkhFUCgcAQQWI6lHIHlWEIIBwIZE0BgZZwAmoeABwQQWB4kiRAhAIE6BBBYXBQQgEBYAgissMQSPh6BlTBgqoeAZwQQWJ4ljHAhkAEBBFYG0GkSAhCITACBFRkhFUCgcAQQWI6lHIHlWEIIBwIZE0BgZZwAmoeABwQQWB4kiRAhAIE6BBBYXBQQgEBYAgissMQSPh6BlTBgqoeAZwQQWJ4ljHAhkAEBBFYG0GkSAhCITACBFRkhFUCgcAQQWI6lHIHlWEIIBwIZE0BgZZwAmoeABwQQWB4kiRAhAIE6BBBYXBQQgEBYAgissMQSPh6BlTBgqoeAZwQQWJ4ljHAhkAEBBFYG0GkSAhCITACBFRkhFUCgcAQQWI6lHIHlWEIIBwIZE0BgZZwAmoeABwQQWB4kiRAhAIE6BBBYXBQQgEBYAgissMQSPh6BlTBgqoeAZwQQWJ4ljHAhkAEBBFYG0GkSAhCITACBFRkhFUCgcAQQWI6lHIHlWEIIBwIZE0BgZZwAmoeABwQQWB4kiRAhAIE6BBBYXBQQgEBYAgissMQSPh6BlTBgqoeAZwQQWJ4ljHAhkAEBBFYG0GkSAhCITACBFRkhFUCgcAQQWI6lHIHlWEIIBwIZE0BgZZwAmoeABwQQWB4kiRAhAIE6BBBYXBQQgEBYAgissMQSPh6BlTBgqoeAZwQQWJ4ljHAhkAEBBFYG0GkSAhCITACBFRkhFUCgcAQQWI6lHIHlWEIIBwIZE0BgZZwAmoeABwQQWB4kiRAhAIE6BBBYXBQQgEBYAgissMQSPh6BlTBgqoeAZwQQWJ4ljHAhkAEBBFYG0GkSAhCITACBFRkhFUCgcAQQWI6lHIHlWEIIBwIZE0BgZZwAmoeABwQQWB4kiRAhAIE6BBBYXBQQgEBYAgissMQSPh6BlTBgqoeAZwQQWJ4ljHAhkAEBBFYG0GkSAhCITACBFRkhFUCgcAQQWI6lHIHlWEIIBwIZE0BgZZwAmoeABwQQWB4kiRAhAIE6BBBYXBQQgEBYAgissMQSPh6BlTBgqoeAZwQQWJ4ljHAhkAEBBFYG0GkSAhCITACBFRkhFUCgcAQQWI6lHIHlWEIIBwIZE0BgZZwAmoeABwQQWB4kiRAhAIE6BBBYXBQQgEBYAgissMQSPh6BlTBgqoeAZwQQWJ4ljHAhkAEBBFYG0GkSAhCITACBFRkhFUCgcAQQWI6lHIHlWEIIBwIZE0BgZZwAmoeABwQQWB4kiRAhAIE6BBBYXBQQgEBYAgissMQSPh6BlTBgqoeAZwQQWJ4ljHAhkAEBBFYG0GkSAhCITACBFRkhFUCgcAQQWI6lHIHlWEIIBwIZE0BgZZwAmoeABwQQWB4kiRAhAIE6BBBYXBQQgEBYAgissMQSPh6BlTBgqoeAZwQQWJ4ljHAhkAEBBFYG0GkSAhCITACBFRkhFUCgcAQQWI6lHIHlWEIIBwIZE0BgZZwAmoeABwQQWB4kiRAhAIE6BBBYXBQQgEBYAgissMQSPh6BlTBgqoeAZwQQWJ4ljHAhkAEBBFYG0GkSAhCITACBFRkhFUCgcAQQWI6lHIHlWEIIBwIZE0BgZZwAmoeABwQQWB4kiRAhAIE6BBBYXBQQgEBYAgissMQSPh6BlTBgqoeAZwQQWJ4ljHAhkAEBBFYG0GkSAhCITACBFRkhFUCgcAQQWI6lHIHlWEIIBwIZE0BgZZwAmoeABwQQWB4kiRAhAIE6BBBYXBQQgEBYAgissMQSPh6BlTBgqoeAZwQQWJ4ljHAhkAEBBFYG0GkSAhCITACBFRkhFUCgcAQQWI6lHIHlWEIIBwIZE0BgZZwAmoeABwQQWB4kiRAhAIE6BBBYXBQQgEBYAgissMQSPh6BlTBgqoeAZwQQWJ4ljHAhkAEBBFYG0GkSAhCITACBFRkhFUCgcAQQWI6lHIHlWEIIBwIZE0BgZZwAmoeABwQQWB4kiRAhAIE6BBBYXBQQgEBYAgissMQSPh6BlTBgqoeAZwQQWJ4ljHAhkAEBBFYG0GkSAhCITACBFRkhFUCgcAQQWI6lHIHlWEIIBwIZE0BgZZwAmoeABwQQWB4kiRAhAIE6BBBYXBQQgEBYAgissMQSPh6BlTBgqoeAZwQQWJ4ljHAhkAEBBFYG0GkSAhCITACBFRkhFUCgcAQQWI6lHIHlWEIIBwIZE0BgZZwAmoeABwQQWB4kiRAhAIE6BBBYXBQQgEBYAgissMQSPh6BlTBgqoeAZwQQWJ4ljHAhkAEBBFYG0GkSAhCITACBFRkhFUCgcAQQWI6lHIHlWEIIBwIZE0BgZZwAmoeABwQQWB4kiRAhAIE6BBBYXBQQgEBYAgissMQSPh6BlTBgqoeAZwQQWJ4ljHAhkAEBBFYG0GkSAhCITACBFRkhFUCgcAQQWI6lHIHlWEIIBwIZE0BgZZwAmoeABwQQWB4kiRAhAIE6BBBYXBQQgEBYAgissMQSPh6BlTBgqoeAZwQQWJ4ljHAhkAEBBFYG0GkSAhCITACBFRkhFUCgcAQQWI6lHIHlWEIIBwIZE0BgZZwAmoeABwQQWB4kiRAhAIE6BBBYXBQQgEBYAgissMQSPh6BlTBgqoeAZwQQWJ4ljHAhkAEBBFYG0GkSAhCITACBFRkhFUCgcAQQWI6lHIHlWEIIBwIZE0BgZZwAmoeABwQQWB4kiRAhAIE6BBBYXBQQgEBYAgissMQSPh6BlTBgqoeAZwQQWJ4ljHAhkAEBBFYG0GkSAhCITACBFRkhFUCgcAQQWI6lHIHlWEIIBwIZE0BgZZwAmoeABwQQWB4kiRAhAIE6BBBYXBQQgEBYAgissMQSPh6BlTBgqoeAZwQQWJ4ljHAhkAEBBFYG0GkSAhCITACBFRkhFUCgcAQQWI6lHIHlWEIIBwIZE0BgZZwAmoeABwQQWB4kiRAhAIE6BBBYXBQQgEBYAgissMQSPh6BlTBgqoeAZwQQWJ4ljHAhkAEBBFYG0GkSAhCITACBFRkhFUCgcAQQWI6lHIHlWEIIBwIZE0BgZZwAmoeABwQQWB4kiRAhAIE6BBBYXBQQgEBYAgissMQSPh6BlTBgqoeAZwQQWJ4ljHAhkAEBBFYG0GkSAhCITACBFRkhFUCgcAQQWI6lHIHlWEIIBwIZE0BgZZwAmoeABwQQWB4kiRAhAIE6BBBYXBQQgEBYAgissMQSPh6BlTBgqoeAZwQQWJ4ljHAhkAEBBFYG0GkSAhCITACBFRkhFUCgcAQQWI6lHIHlWEIIBwIZE0BgZZwAmoeABwQQWB4kiRAhAIE6BBBYXBQQgEBYAgissMQSPh6BlTBgqoeAZwQQWJ4ljHAhkAEBBFYG0GkSAhCITACBFRkhFeScwLx588wLL7xgdtxxx5yfaeWnh8CqnFUqRyKwUsFMIxDwhgACy5tUESgEMiOAwMoMPQ1DAAIRCCCwIsDjo7kh8PPPP5tPPvnEvP/+++ajjz4ys2fPNrNmzbLnt+yyy5qHHnrIPP/886ZVq1a5OecoJ4LAikIvgc8isBKASpUQ8JgAAsvj5BUg9EWLFpng59dff7X//ssvvxg9MdSP/l/z5s1NixYtzFJLLWWJXHHFFaZjx46mV69e9v8vueSS9neNGjUqALFkThGBlQxXaoUABJIlgMBKli+1u01A4kpjpW7dupnOnTubvn37mh49epg11ljjD4GfeeaZpl+/fmbzzTd3+4RSig6BlRLoSptBYFVKiuMgUAwCCKxi5NmHs9RA69133zWvvvqqeeONN8yHH35oBdSKK65oWrdubX/0dHDppZc2TZo0sT+SUhJa+lm4cKGZO3euueeee8z6669vnzR+/PHH9ndt27Y1K620kunatasdpLVp08YHJM7EiMByJhUEAgEIhCCAwAoBi0NzQ0AzrCZMmGC++OILs8kmm5jJkycbjfc1FipV7rvvPjN//nwzYMCA3DCIciIIrCj0EvgsAisBqFQJAY8JILA8Tp7HoWsmlaavf/DBB1Y06efLL780q666qtl4443NRhttZJ8WBrOqKj3Vzz//3PzrX/8y/fv3/8NH9LdvypQp5tlnn7VT5x988MFKq+Q4YwwCi8sAAhDwkQACy8esEXM1BDTOeemll8xTTz1lvvrqK3PYYYfZmVeNGzc2I0aMMNttt539KVXmzJljrr32WjN48OBqms7dZxBYjqUUgeVYQggHAhkTQGBlnICCNa8nfFdeeaW5/vrrzfbbb2+OOOIIK6u0zC+YURUFyTXXXGM23HBDO2grVX788Uc7SDvhhBOiNFO4zyKwCpdyThgCuSCAwMpFGjmJeghoXDN06FDzzDPPWFGl8U/tbRMef/xxO6tdY65yZciQIeaCCy6AtTEGgeXYZYDAciwhhAOBjAkgsDJOQAGa/89//mPuuOMOO5W9Q4cOZsstt7SzrLQ8MO7Su3dvI4mldkoVxfL666+bPffcM+6mc10fAivX6eXkIJBbAgis3Ka28CemLRduuOEGK6t22203u0XCEkssUZKL/oZfdNFF9QqqYcOGmXPPPbfwXAUAgeXYZYDAciwhhAOBjAkgsDJOQE6b1/R17WV19913m2+//dacfvrpiW8Oqj202rdvb5cilhvEjR8/3myxxRaJx5K3tCKw8pZRzgcCxSCAwCpGnot0lnoYePvtt5vp06dbKdWpU6eKTl8btev4cmX48OFGPxQElnPXAALLuZQQEAQyJYDAyhR/7hrX3lZ//etf7Z5Wp556qt3HSpuvp1G0n5b2b7jtttvKNtenTx+7hFCii1I5AQRW5aw4EgIQcIcAAsudXBBJNAIaX40bN868/PLL5qyzzjJrrbWW3d+q0qKx2TnnnFP2cMmtk08+2TRt2rTSKnN7HDOwHEstAsuxhBAOBDImgMDKOAE5aV4bsmuZoDZI32OPPcxOO+2U+plNmzbNzr464IADSratfSK6dOli3nvvvbIztFIP2pMGEVieJIowIQCBPxBAYHFB+E5A4urhhx82jz76qNl6663NPvvsY/cNDVsuvPBCK77KlVtuucV07NjR7k9a9ILAcuwKQGA5lhDCgUDGBBBYGSfA8+a///57uyG75NFll11m1lxzzczOSHtB9OvXz7Rs2bJkDO+8847RAG7ixImZxehrwwgsXzNH3BAoNgEEVrHz7/vZawsGLf3T2EpbMTRq1KjqUxo7dqw55JBDzLLLLluyDm0C/8QTTxht5l70gsBy7ApAYDmWEMKBQMYEEFgZJ8DT5vVE8KqrrjJvvPGGGThwoH3zXzVPBOM8/ZEjR5ozzjijbJUPPfSQ0SysvffeO85mC1EXAqsQaeYkIZA7Agis3KW0ECe0ePFiO6tdDwcHDRpk1llnnUjyStDuu+8+y65v374lGX7++efmsMMOM4888kghGNd3kggsxy4BBJZjCSEcCGRMAIGVcQI8bP7ZZ581N998s31V85///OdQezAkeboacIwaNapsE1dffbU56KCDEnn7YZLn5ULdCCwXskAMEIBAWAIIrLDEOD5rAnPmzLF7deplNJJXce1J9dprr5kbb7zRXHrppSVP8ddff7UPI1955RX7ZsMiFwSWY9lHYDmWEMKBQMYEEFgZJ8Cj5vWWP23Mrk1DNQAKs3lo0qepp5V/+ctfzHXXXVe2qREjRthN3inhCSCwwjPjExCAQPYEEFjZ54AIKicwb948E7xsRi/BibN89913dn9SbQJfrugh38UXX2xWWmmlOJv2ri4ElmMpQ2A5lhDCgUDGBBBYGSfAk+affPJJc9NNN9np5dtss41T8koIX3zxRTN16lS7V0S5ouWFWmZICU8AgRWeGZ+AAASyJ4DAyj4HRFAZgSlTpthxjDZaX3nllSv7UMijNtlkE/P000+bZZZZpuQnr7zySrPzzjub9dZbL2TN+TocgeVYPhFYjiWEcCCQMQEEVsYJcLz5+fPnm1tvvdXMnDnTyp+s97kqh2vMmDFmgw02MLvsskvJQxYuXGg3QL388ssdJ+5meAgsN/NCVBCAQP0EEFhcIa4T0J6imj3+wQcf2HFWlI3aGzrX4447zkjOrLbaaiUPnTFjhtFs+2233bahqnL9ewSWY+lFYDmWEMKBQMYEEFgZJ8Dh5iWvjjjiCLsHw2abbWaaNGnibLT77ruvueaaa8wKK6xQMkY9cXz11VfN8ccf7+w5uBwYAsvl7BAbBCBQjgACi2vDZQLad+qkk04yO+ywg33BjPa9SrJMnjzZrL322mbzzTcv2cwXX3xhNON+//33TzIM5+tGYDmWIgSWYwkhHAhkTACBlXECHG3++eeft5t9HnXUUWbjjTd2NMrfwvrpp5/sq6Fvu+22snGef/75Zscddyz8U8VqE4nAqpYcn4MABLIkgMDKkj5t10dAY5fhw4dbmbTPPvskOvMqiOPDDz8077zzjtltt91KhqZ9siZMmFDvG52LkFUElmNZRmA5lhDCgUDGBBBYGSfAseb1NPD++++3b8CRECq3T4JLYX/77bd2aaAGgqWKNnjXYE2vpG7ZsqVLoXsTCwLLm1QRKAQgUIMAAovLwUUC2qz98MMPNwMHDrQbq6dVvv/+e3P77bfbl96UKgsWLDCnnHKKueqqq9IKycl2EFiOpQWB5VhCCAcCGRNAYGWcAIea174H2jy0U6dO5uijj3Z6yWBNbJ999pl55plnTP/+/UvS1EBRgzVNnadURwCBVR03PgUBCGRLAIGVLX9ar0tAM68krrQfVdeuXVNFpK0htM/WOeecU7JdPcTs27evue+++5x7WU+aoBBYadKuoC0EVgWQOAQCBSKAwCpQsus5VUkevTq5S5cuZr/99vMKyrRp0+zMqnIDwS+//NJMnDix8FPioyQVgRWFHp+FAASyIoDAyoo87ZYioA3b9UZkzQrv0aNH6pD0oFIPKP/2t7+VbVti7eSTTzadO3dOPT5XGkRguZKJ/4sDgeVYQggHAhkTQGBlnAAHmtcSOw1oBgwYYLp37+5AROFC0JNE7YG1+uqrl/zge++9Z9/us+uuu4armKN/J4DA4mKAAAR8JIDA8jFr+YxZs5sOOuggc9hhh5mePXtmdpL9+vUzkyZNMs2aNSsZw/XXX2+WX355s9dee2UWY9YNI7CyzkCt9hFYjiWEcCCQMQEEVsYJyLh5TSfXVPaDDz440wFVFAx6innvvfeW3d/qnnvusW/dWX/99aM0U+jPIrAKnX5OHgLeEkBgeZu63AU+evRos95665ndd989lQ3bywE877zzTK9evcwWW2xR8hC9sfmBBx4wZ599du5yUOkJIbAqJZXScQislEDTDAQ8IYDA8iRRCYSpfRg0oNpmm228nHklJHpjjqbiP/vss2UJaSAyaNAgs/LKKydAsRhVIrCKkWfOEgJ5I4DAyltG/TsfzXK/+eabzaeffmr3GW3UqFGmJyE59cUXX5gjjzyyZByVLDPM9ARSaByBlQLkME0gsMLQ4lgI5J8AAiv/OS51hhpQnXjiiXbWVZ8+fTIfUFWbBYmrhx9+uOyGpKp3++23N48++mjZ6fLVtl2kzyGwipRtzhUC+SGAwMpPLn09k//85z92H85hw4aZJZZYIvPT0ItvLrroInPllVeWjeWkk04yl112mbdjw6iQEVhRCcb8eQRWzECpDgKeE0BgeZ7AKsMfP368WWaZZcyhhx5aZQ1ufOyGG24w6667runWrVvJgGbPnm2OOeYYM2XKFDcC9jQKBJaniSNsCBScAAKr4BdAxqevPThPO+00K7Bat26dcTS/Na8HmPpeaPxUbjbYueeea4YOHYrAatcusZzp/kvXRRyl0WJlNccFgZXj5HJqEKiCAAKrCmief+TBBx80999/v5HEynoqe1SU2sBdTzXLnYdmXr377rvm+OOPj9pUoT+PwCp0+jl5CHhLAIHlbeq8D1zbNJx66ql2q4all17aqfPRDKMRI0aYJk2alIxr3Lhx9uFf48aNnYo7rWCYgZUW6QrbQWBVCIrDIFAQAgisgiT6/05TezBoA0/JKxemskelL3mlJ4XlyqWXXmqXSGoTd0r1BBBY1bPjkxCAQHYEEFjZsS9yy3rj4LHHHmv0xr+dd97ZORSXXHKJfbDXtGnTkrHdcccdZquttjIdO3Z0LvY0AkJgpUE5RBsIrBCwOBQCBSCAwCpAkv/vFOfOnWuOPvpoc8EFF5jVVlstFyeuKe4ScuXK4MGD7VNGSjQCCKxo/Pg0BKohsGDBAvPJJ5/Yn3/84x+mRYsWZuHChebHH3+0P9psWQtH5s2bZw455BD7djPKHwkgsLgisiDwzDPPmFdeecXZ2d+33HKL2WOPPcyyyy5bEs/TTz9tPvjgA++3mag29wisaskl9DkEVkJgqRYC0zDg3gAAIABJREFUnhJAYHmauJBh62mgRI5ucDbZZJOQn3bzcAm5MWPG2H0aypWGBJebZ+ZeVAgs93JCRPkhoP5ZYko/H330kfnnP/9pfz788EP7ltj111/frLLKKmbAgAElT/qbb76xguvggw/OD5SYzgSBFRNIqqmYwLfffmvl0COPPGL3GnWxPPbYY2appZYy2223XcnwJK+GDx9u355YxILAcizrCCzHEkI4EMiYQEMC6+2337YDas3aWW655TKOluarJXDrrbcavXnm5JNPzsXSQXHQxuzaY6J///5lsWh5oZYZUqIRQGBF48enIVCbgGZOaX8+7Uc4ffp007lzZ7Pmmmua1Vdf3bRv397+LL/88nYPGsl67V1Yrq9DYJW/vhBYfPfSJjBkyBA7I3KdddZJu+mK23vjjTfMvffeW/YB4Pz5881aa61lx41FLAgsx7KOwHIsIYQDgYwJ1Cew9HRGT4/uu+8+8/LLL5sOHTqYrl27mi5dutg/zBpgU9wnoH2vtBeUfvJUtL+ENhndcMMNS57Wxx9/bG8OjzvuuDyddibngsDKBDuN5oyAlv3pxvGFF14wr732mmnZsqXZbbfdTPfu3evdLBmBVf2FgMCqnh2fDE/gzTfftLMhzzjjjPAfTvETc+bMsTM6NROrXNHMTy0ldOXtiSniMQisNGlX0BYCqwJIHAKBAhEoJ7C0Ll77b2iPjaAsWrTILnHQwHvq1KlGN7UnnniiOfDAA+1AnOIeAeWrW7duVuSsvPLK7gVYZUSavbDRRhtZsbrkkkuWrGXChAlmjTXWMLvsskuVrfCxgAACi2sBAtUTUH912WWXmauvvtoMHDjQHH744fZvZqUv0qhEYGmG1kEHHVR9kDn9JAIrp4l18LQ0Zt58882N9r9q1aqVgxH+/yGpT2rbtq35/PPPy76JcNCgQeYvf/mLXcJctILAcizjCCzHEkI4EMiYQG2BpQG1XverpVk15VWpMHVTq+WFmumiYyUStL9Sz549c7NJeMbpidy83iTTvHnz3G3u+/XXX9vNUbU0slzp27evGTt2rFl11VUjcyx6BQisol8BnH9YAtrX6oknnrAzmFdYYQWz/fbbmy222ML+fQ1b9P17+OGHzX777Vfyo1pC+NBDD5k///nPYavO/fEIrNyn2JkTvOeee+ym6D169HAmpvoC2WeffezM/E6dOpU8TA8+mzVrVsiHgAgsxy5hBJZjCSEcCGRMoKbAatKkiX3L0XfffVdVVJJYmhGjKccapO+6665m6623tpvP6klPpU+bq2qcD9UhMHv2bHPKKafYTTjLzVLyFZv2jnn00UfLvuFHAnazzTazy3UaNWrk62k6EzcCy5lUEIjjBPRGQC0RvOGGG+x+Vtp3MOr+kZUILAkuzYam/JEAAosrIg0C+t4fddRR5vrrrzdNmzZNo8nIbYwbN85svPHGZtttty1Z1w8//GD3ydJ+XkUrCCzHMo7AciwhhAOBjAkEAqt3797ml19+sa/mjqOoHv1B1+u/teRQb1PS0x69JYkZMXEQbrgO7Q915pln5nI2nDY9liQt90ZFXXcXXXSR0QCNEp0AAis6Q2rIPwG9OVBve9WDA824iiquAmL6/umNZv369SsJUTNS9XsEVl08CKz8f+9cOEO9MEYPbHfeeWcXwqkoBr2kSePzcm83VSWaoaX+rGgFgeVYxhFYjiWEcCCQMQEtwZIM6NWrV6KRaC8mzZrRj/bS0gbwesPJlltuadZdd92ya/ATDSrHlesVyJr+rT0M8lj0lFMz/Mrt6/XSSy+ZWbNmmX333TePp5/6OSGwUkdOg54Q0IOfxx9/3AokzbiSMNGy7ThLJQJLM1IPOOCAOJvNRV0IrFyk0emTUB9w1llnmdGjRzsdZ+3gtA/WFVdcYU466aSycQ8dOtScd955Xp1XHMEisOKgGGMdCKwYYVIVBHJAQMsFL7zwQnP33XfbJVcSSpJLWveuJYVJlnfeece+AUVvydPsrP3339+stNJKdhlj3pa8Jcmxdt1ayqlc6oYqr2+KPPXUU82wYcPKznCQvNt0003t8lVKdAIIrOgMqSFfBHTzp79dusFbbbXVzODBgxNbOqTvnwRVOSGvGVgIrNLXFwIrX987F89GM7032GADs8MOO7gYXr0xnX/++ebss88ue8wJJ5xgrrzySu/OK2rACKyoBGP+PAIrZqBUB4GcENATJC270lI/zch68skn7VtUNCVaM6WS3EdI+xVpAP7FF1/YGwLt3dSlSxe7XKJr166Jtp2T9P3hNLSZr/p6LdfMa9Gr5yWpyknWSy65xL7pq4ivf04i5wisJKhSp68E9Ddr1KhRdjax+pmkl8VXIrC0fLG+pUC+so4aNwIrKkE+Xx8BjVf79+9vpk2bZpZaainvYGmbCW23UK7oZTlaFq3N6YtUEFiOZRuB5VhCCAcCjhLQG5S0Nv4f//iH0XI0zYhafvnlTceOHe2sliRnZ+nJttp89dVXrdjSky29xne99dazyw2XWWYZR6llH5bypk2DL7/88uyDSSgCXRuaNXjdddeVbUGvqhcDzSSkRCeAwIrOkBr8J6C/TS+++KKZOHGi2Wmnnczee+9tGjdunPiJ6fsnQaWZyqWK/k4isEqnAYGV+OVZ6AZuvPFGuxH6n/70Jy85nHjiiWbMmDFlX7KkJYY6N+3pV6SCwHIs2wgsxxJCOBDwiIBmZ1122WV28L7jjjuaPn36lN2DKO7T0lLHBx980M4M69atmzn99NPtckfKHwnoNc6axaZp33ktevHAggULys4w035rutHTDK0kZw7mlW+p80JgFSnbnGs5ArfccouZOnWqledpvlW3EoGluLQMn/JHAggsrogkCfi+xE6zqyTi9YC4VNE2H6+//rp9MFqkgsByLNsILMcSQjgQ8JCA9lj697//bWbOnGl/3nzzTTu9WG+EW2ONNRJ9Iq0lG1999ZWVNPqnYtHb6LbZZhv79pc2bdp4SDSekMVCrzueMGFCrqd7DxkyxL6uWvvOlCrPPvusvcnU3jSUeAggsOLhSC1+Evjyyy/tRsbdu3c3ffv2TX2PRr3OXn1afTOwdKOppUwUBBbXQDoEHnjgAfPxxx+bY489Np0GE2hFDz3Vvxx66KEla//888/tA+NJkyYl0Lq7VSKwHMsNAsuxhBAOBHJAQMsqXnnlFfP3v//dvPXWW3ZWluRCu3btrFBKcrmh8H3//ffm5ZdfNi+88IJtU1OdJdPSWO7oUvo++ugjo/2vjj76aJfCij2W4447zmjT1HJFU9432mgjO0uQEg8BBFY8HKnFPwLPP/+8Offcc+1GxnrLYBZFN5gSVJopUapoCSECq3RmmIGVxRWb/zb1MHW//fYz1157rVlhhRW8PWE9jFbfVt+Yas899zR33XVX4mN5lyAisFzKhjF2Y18t+6nvjQNRQ9brhPU2Fp+/0FEZ8HkIFJWAZgHpZlcyRUJLy720fn6XXXYxHTp0SByLlo/9+OOPdkP6l156yYo1bfh92GGHWamV5yVlmpmk89Sm+3kuDb3W+YgjjrCDMfa/iu8qQGDFx5Ka/CFw++23G82y0KxWzfTNqmgJvcbW9QksbSKtG2rKHwkgsLgikiCg+2k9LJPc9rlIxGn1gvqPcuPjQYMGGb2tUG8IL0pBYDmWaQSWYwkhHAjknIDebqjN2J977jk71VpvGmzatKndjF3LDbU5fJJFf5wl07R/17fffmuWW245+2Y6SbUtttjCbkifh6LllHoDlV6lnvSMt6x5XXrppeaUU04pGYZmA2qvBu3VRomPAAIrPpbU5D4B7bF3wQUX2Bm9mtGa9N+phojob5f2f9xrr71KHqqx/RNPPGHf3EtBYHENJE9AS3r1kGzbbbdNvrGEW9CDTz30K/eCJIm6Aw88sFBbdCCwEr7owlaPwApLjOMhAIG4Cbz77rvm+uuvt3t6aLaQ3uCiZYf64ym5lXSZP3++FWraK0lvkNL06J49e5qVVlrJtGrVysuZO9qfQLNeNdssz0VvINSSngMOOKDkaeotjCNHjjRnnXVWnjGkfm4IrNSR02BGBDSL95xzzrE3pq70p99884156qmnEFhVXBPMwKoCGh9pkICkj8Yakty+F23kfuSRR5q2bduWPBXNQtW2DKuuuqrvp1px/AisilGlcyACKx3OtAIBCDRMQMsNtTmuNmSfPn26efjhh41m0Ogtg5ohtdRSSzVcScQj9KRde2ipb/zPf/5jlx5qlpaWakhqSWj5ULR8UJsMp/FK9yx5aPaVrg/9lCo//fSTmTx5stFNCyU+Agis+FhSk7sE1H8MHDjQzmbdddddnQlUe1z961//QmBVkREEVhXQ+Ei9BLSxuQSW9hzNw5jr7rvvNptuuqnp1KlTyfPW/rKS6L169SrMlYHAcizVCCzHEkI4EIDAHwhIImlm1muvvWb0JFxr8rUZu36WX375VPaw0nI8bWypZYd6u6I27tWPXjO8zjrrOLcPwNy5c82oUaO834uhkq+CNui/7bbbTPv27UsergGllvtoTwdKfAQQWPGxpCY3CWiZnmZe6S2DO+20k1NBzpkzxz7k0WzhUkVjey0x3HfffZ2K24VgEFguZCFfMWgMonFGubeC+na22i9W8n7rrbcuGbpmvmtPWz0oLUpBYDmWaQSWYwkhHAhAoF4C2kNLg4Wrr77aaCPb7bbbzv5oQ90lllgiFaGlADUzS3uM6CZCIkuvHNbyEm1qqT2nsnwKN3bsWLufWO/evXN9NWlzfolEPf0sV4466ihz2mmnmbXXXjvXLNI+OQRW2sRpL00CWnp8/PHH258uXbqk2XRFbemhipa81yewtMQwLzfUFUGp8CAEVoWgOKxiAhI52tQ8Ly8Fev/9980jjzxi9IbnUkWzrw4//HBz7733VszI9wMRWI5lEIHlWEIIBwIQqJiA/ojqD6320NLG8DNnzrT7D2gPrc6dO6cymNCNjp7U64m4NqTX8sN58+bZPbx69Ohh901p2bJlxecU9UDNUtMbHjXzqHnz5lGrc/rz7733nhk9erS55pprSsap5ad606WukSzfGOY0xCqDQ2BVCY6POU/ghx9+MMcee6xdEuTqzE0ttZ8xY4adHVaqaGyPwCp9qSGwnP8KehegBJZe8pCXov5j8ODBZcdWGvdqnK2ZWmls7eECVwSWC1moEQMCy7GEEA4EIFA1Ac3O0tr8+++/3y750xJDCS1txr7iiiumutRP+3hp2aPikETZbLPN7JN8bXqpn6Tkkt6wqA3xtfQl70WvkZdIKXcTJ6Go18hrrxhKvAQQWPHypDY3CGgfxgsvvND06dPH7gHjalHfppdX1Cew1O9p70bKHwkgsLgi4iSgB5haEZCnF8XoQeiOO+5onn766bKrCfQWQu2zuuaaa8aJ09m6EFiOpQaB5VhCCAcCEIiFwKJFi4yWmGmz2/vuu8/ceOONdk1/9+7dzTbbbJOYQKodvGYBSazpZ/bs2famQ5JNf/S17FA3Slp2GFfRvifaaF5Px/Jebr75Zvua+HKzq4I3S5588sl5R5H6+SGwUkdOgykQ0CwKzZ7V7CuXlwNp2fSLL75o9thjj5JUNLZHYJW+YBBYKXyRCtSExiGtW7e2Y7k8FcnxCRMmlN1fdPz48XZrBldnqcadCwRW3EQj1ofAigiQj0MAAt4Q0FNrLTV8++23zccff2w+++wzO/DQRuzaM0p7V6VRJLW05FD7aElqaTq2JIxmim2xxRZmyy23rHrZ4fDhw+2+BZpxlvdy0UUX2f2tyuVNe6WJp/bJosRLAIEVL09qy57Ao48+al5//XXbp7he9HdDy3fKCSz9fXnmmWfKvqXQ9fNLMj4EVpJ0i1f3/vvvbzQWyds4Q+ekTdz1opxS5Y033rD78Gmf0SIUBJZjWUZgOZYQwoEABFIloJsAvU1Fs3X0ZkM9UVpllVWsQFpmmWVSfQovoaYZWopJgyG9+WqrrbYybdu2taJNMdU3K0BiTJv63nnnnYXYl2DQoEHm0ksvLTvF/bLLLjM6hhI/AQRW/EypMTsCb775phX/klhNmzbNLpAKW9YS9VdeeQWBVSGvmochsKqAxkdKEtBSO43RNGZzecZmNenT8kHtL6vN2ksVjTe1hHDYsGHVVO/dZxBYjqUMgeVYQggHAhDIhICW+GlTeC05lETSJujaFH7zzTe3M6IktdIaoGhgsGDBArsZvGL68MMPzaxZs+ySyB122MH+6MmYXttcs2hGl/ZhmDRpUiYM02xUy0EHDhxoJk6cWLbZs88+274ZiBI/AQRW/EypMRsC6vs1i0Bvb01qb8K4z0x9vfZYLLdsSTOw9Ibccm8pjDsen+pDYPmULbdj1VLec88911x11VVuB1pFdBpjaUm1zq9c+etf/5r7/VY17pbMU44POOAA06xZsypoVvYRPXyub0xbWS2/HdVose4kclwQWDlOLqcGAQhEIiCBJJml2Vlafjh//nxb32qrrWY3Ytcm8WmWiy++2GjAoNkCWgIpgaXlc5qhpT21tIG7JJvETt6LlsfoBu30008vear6060ZFdqngRI/AQRW/EypMX0CklfqQyR6tGmxL0X9v5Y71iewtLyn3CbvvpxnEnEisJKgWsw6tR2FxiJHHnlkLgE09BBw6NChdhZWXorG+W+99ZZ9+ZLkpH70Vlo9wNaqCG01kmRBYIWgi8AKAYtDIQCBwhOQ1Jo8ebLRxp1z5841Xbt2tT/LLbfc70IpKUgaKOjV6bWLnrZrxpgEl96Gs9FGG9lYgtcbpzVzLKnzLlXvqFGj7Mw4zUYrVT744ANzww03MAMroaQgsBICS7WpEtDDiXfeece+UMOnoocVepCx++67lwxbfxMQWKUzisDy6Up3O1Y9RNOMHJffWBqFoPZU1U+5IoGlGVq+jTG176xmmOlHyyTv/f/YOw9oKYq0DReCqwKCIihgTpizYkBUMCO66ooRc1gVFROKiIKKgFlZ3RV1F0QwR1gVBBfFsIpizph1jUcFzOyq/3lrt/jnXmaYnpnuruqep8+ZM3PvdFd9/Xw13dVvffXVvfea++67z/aZ1a/Uy0ceWQSsClorAlYFsNgVAhCAwP8IKMJn9uzZNhJK0/s0nUOrQmnqnwQkveKO0BozZoy5/fbbS/rgpJNOMsr7tNBCC9nE8Nr0rhUZmzZtarREvDpbWetsND5hsVfi1L/+9a8lk91LvNJqjCwjn8xPFgErGa6Umh4Bidy6ZuqaqnyHWdp0z9EU9wUJWBLnSiV5z9K5xm0rAlbcROu3vDvuuMNsueWWZrnllsslBIlTC8pxpf6mrjGaARD6pvQgEhynTp1q++wadFYfUTMY1FfXq9SK1mmdGwJWBaQRsCqAxa4QgAAEyhBQCLJukFrCXNFauiHqRqkVBpdZZhnTqlWrqhjqWq3XglbIKhfurYqVdNSJWZp+6MSutFZgrOrkGx2kczjuuOOsgFVqU+JRjRxqqidb/AQQsOJnSonpEZAIftppp5n+/fvbB5isbcqLqGkuPXr0KGq6IrAUrVtqimHWzjdOexGw4qRZ32VddtllNnqzbdu2uQRx1VVXmQMPPLBkNNKECRPMN998Yw455JBgzl/9Qy1yoShVDTDPnDnTXis1uLzaaqvZhZokOKofHNqGgFWBRxCwKoDFrhCAAAQqIOCinzTyo1F+RVDNmjXLTnvr2rVrRZ0eTVvccccdjTrfpTZ1pvRQVummhzmJbQqf1s0/7dUXK7VXOQmuueYam7C+2KZIs169etmwcLZkCCBgJcOVUtMhoAhNbQu6nqZjSXW1KHpMUx8RsCrnh4BVOTOOKE7glFNOsVPotEJ0HjdNq1N/ap999il6esoXJZFr5MiRXk9f/ZF77rnH3Hbbbea5554zG2ywgencubNZZ5115s060GBt6BsCVgUeQsCqABa7QgACEKiRgFYVVOJPzbvXCNF7771npyIqOeTqq69uR4aKTfFTR0kRR9tss01RC95++22bcF6jZbVu6rC4yCyJcBqpUrJjLS8fwvTDzz//3EybNs2KVMU28Rw2bJgZPnx4rSg4vgQBBCyaRlYJ6Pqh66lELF3Tsrjpeq97CAJW5d5DwKqcGUcUJ7D//vubG2+8MbPXkXJ+1UIR6ndKpCq2KapJg7HPPPNMKn1D5Z19/vnnbboOCfja1EdVaowOHTrYWQ6KhsuCWFWMJwJWuRZZ8D0CVgWw2BUCEIBAAgQkBjz88MPmgQceMBpZl4ill27ImnLYsmVLG6auFVH0udim6KutttrK5mNIatNywhKzFKWlBz99VudBnYU0ha2JEyfaaZmlzlWcpkyZYg4++OCkUNR9uQhYdd8EMgvghhtusNfKtddeO7PnoGkxErF23XXXoufwxRdf2IfKUjmyMnviMRiOgBUDRIqwBLR66V133WVXg87jpmj37bff3g6Olurj6Rpzyy23VJ0eoxg3JVfXzAW9NB1wxowZdkq0+nbrrruujaxaY401MitUlWorCFgV/IoQsCqAxa4QgAAEEiag6CeJA4oievnll62opdEmhWorYebOO+9sVlxxxfms6NKli7n77rvtCFQam6YdatO7y6ulTodyfiWdW0DL3isHVqkljdXRUeJ6PaSyJUMAASsZrpSaLAHlQjnvvPPM2LFjE79OJXkmir7SYMeCBCzdN0pFaCVpW+hlI2CF7qHs2LfTTjsZDahlNeInCmlFWGmV61KDp1qJ8Oijj64536jy+k2ePNnW9dFHH9l8VXqttNJKpnnz5jbKymfErIS0pJP1I2BFaZH/2wcBqwJY7AoBCEDAAwGJWnrwckunawqM8lRJKOrYsaNZeeWVbQdCK6ukGQlVDIWmGsoGCUh6d/boPS5ha9NNNzWPPvpoyZXDLr30UjsyqimZbMkQQMBKhiulJktA4rdWHlx++eWTrSjh0jV9RtPPd9lll6I1KQILAau4ExCwEm6cdVK8Bu+6d+9uF+3J86a8qn379i0pUCn3lISm9dZbrywGRezruqU0GrqGKcJKeWEV6aU+7bLLLmuvzZoG6Ksvq3ywEtD0UoJ6CXfKcaaI1gMOOMDOjEhqQ8CqgCwCVgWw2BUCEIBAQAR001dotZZyVtSRbrTKkaWVpzbffPOALP1vngJFaLkVEBWppQ6KOoGVjF7qwUwJRZUDq9S2xx572LwUSy65ZFAM8mQMAlaevFkf56I2q1wuWq0165seADWgsSABS/eGUhFaWT//WuxHwKqFHsc6AurPqK8xadKkXEPRAkQaDNxoo42KnqemM0vskZjnNkXlK+WEGEkEUn9NaR3++c9/WrFr/fXXt+W1adPGGzv1PWWfs/HVV1+1wpruE5oWuddee9lk8K5/esYZZ9hpi0nOckDAqqA5IGBVAItdIQABCARIQEktlRdAN2JFag0dOtQoz4sELd18Q8zPoAgt2aZ3RZgtvPDC5ocffrBh4loNsdT2+OOPG7369+9fdBcl+VRHSoKerxG8AJtI7CYhYMWOlAITJCABXdOv//KXv9gHqKxvmlKuh0adU7FNQj8CVnEvI2BlvfWHYb/SPBx22GF29bs8b5qqrOl9WgW72PbJJ5+YcePGWZFLaS+U+F19Uc0M0P+WXnppM2DAADN48GAbyRRXJH41zDVDQJFfslN95TXXXNMO9kpQkzCl1xJLLFG074iAVQ3xBI9BwEoQLkVDAAIQSIGApopoNEsdA+VGUUj7H//4Rxv1pGu8E4XUqdBnJ2qFKPBIzNKmd4lbitTSSJk+K//B6NGjzSabbGI7HMU2LaGshKKXXHJJCuTrtwoErPr1fRbP/IUXXrAPWXm5LihaQDlZSglYmmaugY1SEVpZ9GFcNiNgxUWyvsvRb+zUU0+115U8b+pDKlG9os0kVumlc3fT/7788kvz2GOPGU011MIYa621lllqqaXmIVH/bbPNNrPfS8BKY1Od6qN89tln1laJjeoPa1MUlfKjqh+5oMHSxnYiYKXhuQrqQMCqABa7QgACEAiQwL333mv23HNPa5mik7RC34LyEWgU6l//+pedYicRSwkyfY6KRUGqzodyE1xxxRU2/5XOV1MlldC+MNeWOpPKUVAYzh6lfPapjAACVmW82NsvgSFDhhjlv/KZBDhOAq+88op9kFQS6WKbVut68cUXEbCKwEHAirMl1m9ZEkZOOeUUc/PNN+caggQqpaZQdFK3bt3sNUeClIvs13RBpXUYP358SQ7qq2288camc+fOibByiwpJ1JeYpqmKmoGglaj33Xdfmwi+1g0Bq1aCMR+PgBUzUIqDAAQgkDKBMWPGmEMOOcTWeu2119qRMiV3j7JJGPrxxx/tg52iniQSSQBzEU+hRWnJLnUclf9FnRU9qGm6jDpZSgKqsPALL7zQRmiFLspF8U+o+yBgheoZ7GpMQNNflPtKq7iGdj2r1luapqPoAgSsygkiYFXOjCPmJ6ConkMPPdRoADHrm/JVaVOfSX1CXSclUOmz/lfuuimR6Oqrr7bTBYtt6pNpdkCvXr1iQfX111+bt99+267Eqs8SqDRdUe9anVrTF9WPjXNDwIqTZgxlIWDFAJEiIAABCHgiIPFGHYOtt97aWnD88ceb4cOHm1atWtVkkcQsddBUjiK21JnRSyNdIQpDsksRCccee6ztvEjc0mo2q666qo1G0+ihEoa2a9cuSPtrcpaHgxGwPECnyqoInH322XZV0qRG/6syqsaDyglYuhYqz0upKYY1Vp/pwxGwMu2+YIzPWhJ3t0K0WyVa9mvgUv/XeyWL6TR2glZ+1pQ8RWgV29RH1RRCpbaoZNOAqlYpVF9Ug5Satqik8BqsVJ9XkWGaslhOYKukzlL7ImDFQTHGMhCwYoRJURCAAARSJnD33XfbFVNcR0QPLJMnT66pM9L4FCQO6eU6Pm7JY5ejKo3OQ1RDb37eAAAgAElEQVSs55xzjrngggtsBJlGFRVdpmTH//jHP+wqOIre0kidEpKqsyWBi61yAghYlTPjiPQJ6Bpw0kknmZEjR6bykJPWGSqnlx7oSiVWloCvPFkIWPN7BAErrVaa/3q23357268IqQ/kqLuIek2lc2JV4eBjnDZr2p6uSSeeeGJJpyvvlJK5L2hTxJcWqFAuU73at29vo0x1nVNfTTlRlcdVi/6kvSFgpU28TH0IWIE5BHMgAAEIVEBAYdvHHHOMTUapnCc33XST0WhYGptELeU/UGSWBCMXnaXP6mDUMqJXjf0SVTRVaODAgQvsRGnlIEWuaQqOVi2U+Kc8YHpfbrnlrMDVqVMnG8EV4gqO1bCJ+xgErLiJUl4SBPRQpWkmf/jDH5Io3luZStCu/jsCVuUuQMCqnBlHFCegqXNjx46tKBl4nCwVPSWhSv0/fXZ9MCdOpdV/UaSUxCn1v0ptXbp0MWeddZb9WitOa2BRuViVBkKilBK/Ky/rCiusYKOqlGw9raTvUXyCgBWFUor7IGClCJuqIAABCMRMYNCgQWbSpElmnXXWMYqMOvLII4NI3CthSAKWS7DuBC11sJIStu6//3678sz+++9flLLq1qpcpUYJNfr33nvv2TxaCnnXNBwJWVpmWeHxyq2g0HWNaErwSqtzGHOTiaU4BKxYMFJIwgSUxFf5V/RQlKdtxowZNvdLKQHrww8/tNexUjmy8sSi0nNBwKqUGPuXItCnTx9z0UUX2T5BEpv6LOqXqM+kzxKpJP6o/6GBQkVUVbKSXhI2ujK1IuPll18+rwrZK2HLvY477jiz7LLLmvfff99Gx2+77bb2+qTIrCwsroGAlWTrqaJsBKwqoHEIBCAAgYAIqCOjPAHKDaBV+XyEVy8Ih4vOUidMwpY6YBppU2dMHbG4QtklTB199NE2gXuxTSs03nDDDXbFnCibOo6y1b30wKioLd03NRWxbdu2VtiSwLXRRhvZHFv1siFg1Yuns3ue+o0qQmLq1KmJiea+6EjA0vV+hx12KGqCFrl48803EbCK0EHA8tVq81fveeedZ6coqz8Tx6a+ku6tLieV+iAaKCuc+pfUAGCt9g8ePNgmtX/qqafsKoCKftXAgSLa9VJElXKQqp+UlOBX6zks6HgErCTpVlE2AlYV0DgEAhCAAARqJqBROEWNKUxcIpb+VsdNI4oavaskwkkdvy233NJMmzbNhqMX24466ii7Mk2pRKOVnpAELYXAS9RStJZsVgdNK/EoHF6J4zUlUVMRlcshlJHSSs+z2P4IWHFQpIwkCUycONFOT5FgkbftmWeesddO5eAptinKYebMmSUjtPLGo5LzQcCqhBb7LojAqFGjbFR3hw4dIoNSP0cilEQpNwVQg476W/0Y9RPiGtSLbFSVO95xxx1WKNcgn6ZqS6TSbADlq1pzzTUzKVSVQoGAVWUjSeowBKykyFIuBCAAAQhUS0DikDp6EoSUgFTJO93Io+vcufB6dfy0Os0JJ5xgbrnllpJVKq+CVilMI3G7Rk61zPMrr7xip/Koc6clnrt27WpXz5HYJuFOtrtXVjqtAoyAVW3L5ri0CGgxB61AGGrEQi0cpk+fbn+DpQQsTYXW9afUFMNa6s76sQhYWfdgOPY/8sgjdlqcIozc5ha80d/6rN+prkEaWNOiMoo6D3El5wVRdefk8p66fFuKunI5V9XP0cCd+mx53BCwAvMqAlZgDsEcCEAAAhBoQECjkhKxNEopkUeRB+oQKlT9tttus5Fa6kQqofz5559fNHJLeRgkXF177bUVRXbF5QoJWrJBtqtDqymfeleHVnZLrFPE1rrrrmtfGsVs1apVXNXHXg4CVuxIKTBmAnrguPjii2MuNYzinn76aTsdu5SA9e6771rRHAFrfn8hYIXRhrNuhe7pyj+qCOyDDjpo3irNEqdc/k83BTBr5yqhSn0S9a3Ub1HfSwKc+mLaXDS5crBq0Rx9r/2Uh1TTtvO4IWAF5lUErMAcgjkQgAAEIBCJwJVXXmmURFVi0IMPPmg0GiqBSNP1Vl55ZZt/oWPHjvZvRXQdeOCB5oorrohUdto7qaOrlRGVu+bjjz+27+okagqi8prpXQKX8kdolFPvSyyxhLeRXASstFsI9VVCQALOrbfeWnbZ9krKDGlfifeattO9e/eiZkm8UhRWqRxZIZ1L2rYgYKVNPJv1ScRR30LR3XrX87Km5ipdgPLP6X4tgUcRVddff33mTlJ9DpcgXisZOrFNnxVh5VI7LOjEdN4bbrih2WyzzexuWmVw2LBhmWMRxWAErCiUUtwHAStF2FQFAQhAAAKxETjzzDPN0KFDrYijB1ZFLEnYcR0wdTofffRRm1B0ypQpNtppgw02sEneFeWkFQVD3tSh1Iin62iq06zz1EsCl/JvrbbaanY6ol6dO3e2Yl0aGwJWGpSpo1oCEqr1G89rBNKTTz5pIyRKCViaPqiHbQSs+VsQAla1v6p8H6fBL03NlTj8xBNP2On/EnH0O1OU0RZbbGEHkhRtJOFKL90HDzjgABt5FPomQU5RmxoY07s29ZcU1a7vtFWaxuAf//iH5aRE9trUJ9OqjHncELAC8yoCVmAOwRwIQAACEChLQMKOkrL/7W9/s50uJSxW8nQlaS+1qYMq4UeRCR999JEdUf3yyy/tuzpw6pxqKqLeNaoa+iYGs2fPtqPBeinKTCKdeLiksOpkK8Gs8m8pKk3viuCqtKPamAUCVuito37t02951113NePGjbNtPY+bHrA1rbqUgKXr4YcfflhyimEemUQ9JwSsqKTys59EKN3zJerq/q93iTgaHHLRR7pn6nqhyGYX4azoqz//+c/mueeeKwpDxyv6SL/HUovHpEnRnY8G9TSlT/d55Q/VNVHnWZhLNA67xFGilVI5aLvrrrvMzjvvnKvk7Y4TAlYcLSbGMhCwYoRJURCAAAQgkAqBF1980dxzzz1GSUS1aQqhog3UCa1mk/ijkdfHHnvMaIUvdQA1ZU+imKKaNBKrDqqELb3XKgBVY2M1x6jTqimJeph1UxPVsV1llVXsikFKPtupUyfbade5KSpNr3KJZhGwqvEGx6RBQJGXiggYM2ZMGtV5qePxxx+3D6SlVlTVymD6vZfKkeXF6EAqRcAKxBExmaEckrqn6SVRSi/d7yTi6negd10TNBVfA1RaFViDOQsa7HKmqcxTTz3VRjuX2jSQ1q9fP3s/TWOTSKXNiVJukRvZKqGubdu2VfeDKrVftmy88cZmxowZts+kAUENFKaxUE6ltta6PwJWrQRjPh4BK2agFAcBCEAAAokTuPrqq+30OS1hrW3EiBHzwthrrdwlMHWdYUU5aYUdiWYaiVUUlyKZVL8EIHWMFemUlU2RW+r0q+Pr3tUXcC+NOqsjqtWE1l57bTvlUknltYpjy5Yt7WkiYGXF2/Vnp/I/TZs2zUioyOsmoV2/4+22267oKep6pVw9pSK08solynkhYEWhFOY+uke99tpr5tVXXzUvvfSSef31162Qq3uVoqc04KSX7lOLLLKInS6nl1sAptKzUl9Aqxtryq7Er2LbqFGj7CCXoj6T2JSPSvdpCUSKtFZfQxFisk3XALeKcRJ1RylTUygVpbbkkkva3FmaUqi8WHnbELAC8ygCVmAOwRwIQAACEChLoHfv3kZJ3DXaqE6TpgsdeuihZY+LYwd1mBU6r5FdvfSgKDFIo5/qaKqz7DrUetdIb1YithwfdY4l3EnMKnzpez0caCqCpituuumm9pw1EquOtPKQuZHtSy65xE6tYINAmgSU804Pr4oMyOsmgU6/uVIClh7sP/30UwSsIg0AASu8X4UWJFBSdK3op/upPkus0f91H9KAiQaU9LvWPd8tZqLPSeeyPO+888zZZ59t9txzz6Lg3nrrLTN58mS7oEy1m/oUWrlQfRmJUvqsfoTusboX654bah/i8ssvtz6TjeoHSdDSoFfeNgSswDyKgBWYQzAHAhCAAAQWSECCiR5CNEVIoommCaiTt+aaawZBTh1ujdjqIVMvdcY1ZUHT9hS1pZURXRJYvauzmtVN3J14pc966FCHXuesaLX99tvPdmblG3VwC89bn+U/NgjESeDmm2+2CZf1e8vrpsUp9HsrJWApSkViABFY87cABKx0fhUuQkiijFtYRfdu5aJyUVSK1lG0oPZxKwe7fI0Sp0IQbZTfSfcwTRMstQ0aNMhI6NKm825st0uS7o6XMKX7vov21qBPlvsB6bQov7UgYPnlP1/tCFiBOQRzIAABCEBggQTUGT7ttNPsA5rEII3KaunmUDuA6rQrx5aLZPr888+NpjlppTCtKCi7V1hhBZs8XtMRNQUihI57rc1QI+YStNRZd9MxXZ4ORatpdF3nqfN2Ap9LNK9ILjYIVENAefGOPfbY1FbkrMbGWo+ZOnWqvW5su+22RYvSFCuJyKVyZNVaf5aPR8CK33uacq6oZL10b1OidEUA6t7s8kbqXYMYehX+T9G8muYX6qZ7tO7ZF154YVETdX8/5JBD7LQ5iXG6r40ePdpGUKmvou91ji7NgAZ89DkP9/hQfZaEXQhYSVCtoUwErBrgcSgEIAABCHgjoFB7dZZffvll84c//MGbHbVWrPuwosg0Kq2pP3rwVMdfnVx17DVFQiO0EnXcKy+RS5pyUJh/S0Kfzl++1TQRjcIrt4lbFUrnr4T64qHE846HHhDYICACmuqjKKwsrCRarce0fL2uAaUELEW2SFRAwJqfMAJW+VYn4UXJuBVN7Fa61bv+5wZj1L40KKME6br+umnzul67z1nKDbkgKjfeeKO54IILrJDlXrpvSaQTF53zQQcdZCOsx48fb6fRuXyR5WmzRxYIIGAF5iUErMAcgjkQgAAEIFD3BDRK66bnKWrJrZCo5M16ONVKSpoipdV+tIpghw4dcjeiq/N3LzUIMVFEl1aE0ksPD8q9odXWJHjp4UFJ55VwXlMWlXRenPIi9tX9jyICALWRzp07m2effTbC3tnd5eGHH7YCdykBS6K+xIVSUwyze+a1W46A9V+GurZqsECDJoocUtSeBlE0BVxRs0parghn3Vt0HdVLQo0i/1z0kN7zFkmk+62io5XfUtFX4iMxqmfPnjbn41ZbbWUXcXEcdP5KFeB+i/fff78V9Ji+W/tvNaQSELBC8oYxduRTP8qBAwcmZplCnQcMGGAvfGwQgAAEIAABCFRPQGKNHk718KHRYI2Ea1RcL33WfV1Cj6KTlllmGTsarlWSFM2UlxHxxvQ0TUNTNzRVUe9uWXW9K7+Ky0Gihw33WX0SPaC5BzVx0ksRb3l7KKu+tWXrSLX7Aw880Dz44IPZMrxCa6dMmWKjM7fZZpuiR2qFNl0PELDmx5NHAUvXNPnbRQdJ3NcUe5cMvVBocjmaJOwrSlHXO73cZ7eCX4VNMhO7K4LMcdG9UrwU7eyixnSP1Gp6encrGuoeWi7C94EHHjA9evSwDJ5//nlz1113mSFDhmSCCUZGI4CAFY1TanshYKWGmoogAAEIQAACqREoTJar0XXlJ9H0OzftTh11TcVz+UjUSS/M1ZGaoR4qkqglEdAJgOoLuakxEsPc9EU9vOhBRsKWm84oRnrocbwWXXRR+1nveRUIPbioqirVzkeOHGlGjBhR1fFZOeihhx6y7a2UgPXCCy/YqV0IWNkSsDQ4ofyAioAqfHefJdDqWuXEFwlVuoa5AQtdpwpX6HOCTN6jUF0y9EJuEqv0G9BLqxiKkcQ5Reauu+66NlpXkbr6HdW6aUqvfou6/ks01DRmLeTClh8CCFiB+RIBKzCHYA4EIAABCEAgAQLq5Euc0cOQck/pXSKOpkhoypFemkqi0XhNT1RCeU2VUIL5kJPsxo1K09D0IFnspdwwynmihyI9ELm8MPqslx4UlZRezMRODPVZ74qCy/uDZNy+qLQ8LWevfHInnHBCpYdman8JWBJNu3btWtRuBKzS7vQZgaUIUTcFWu8aZNAUaPfSNVkClAYXNNCgAQa93GCDrsNu9VZdS/Ryf9dL1KjuY3p2dUnj9S5+GmiQMLXeeuvZaeS6/rqBBQ04uLySSfzQZYMEM61WKPs08CGb6um+mQTXkMpEwArJG0whDMwbmAMBCEAAAhDwS0CRSOp8u4crTblwgpem5+khSxFMSqKulx6uXJJ1rbxUz5s4uRUX9e6mMioCQJ+VN0UPnHqJlR6q9K6XeyBVRJwi5Vyy+sLk/e4zD0bFW9kdd9xhp3/us88+uW6GEydOtEJzKQHrueees1EnpXJk5RpOmZOrRsDS9U48JVLopc8uwbk+u9+39pPI7Vaf0/XA/a3v9DtXFJCbslc4hU//jyMaKMu+FVs3GODeNegiLi5SWJ9139H0b+Xl0oCB8nT5vCbKt9dcc43p27evxb/XXnvZKFDZx5YPAghYgfmRCKzAHII5EIAABCAAgcAJKEpJSW4VtaV8Oy+++KJdEVIPYYo0cjlFNCquhw0n0DjxRu8Sc9gaEhBXN91FD3BuCoybDuOmEEmkEWOXp0XM9XLTHTWVSNzFuDBKo3HUhvs7L9EbY8aMsQx22WWXXDct5fiSwLn11lsXPc8ZM2ZYIbUeBSxFwBSLnpTIoP+ffPLJZsstt7RTgiWOSFgWKydEKYG39tM1Ss9IilKVaK/fm8T6wugofXYivt6JsJy/OeqaJvaFL/F0q/jpXdPutCCHfKIoqg022MBGUumzItCysGmVwnPOOceaeuWVV5ouXbqYzTbbLAumY2MEAghYESCluQsCVpq0qQsCEIAABCCQTwJ6cFQOEj0IuugjRWwpUkEPJ5oyo8guvStvi0QtjZxLbNGUC/fyOZKeFc/oAbsw2sN9LhYB4qLn9LDuIkL02U0n1cOkIsFcRJ2bsuQezBX1pc9uOpM+a2pOiKKXlruXkLfzzjtnxZVV2amVzuSPUgKWVmGUMJMHAUttvVBgKhR49QzjRCYXsaNrkJsypnddT3St0bv7v6ZIS9x1/y+MgtT/JRxLjNL/nehelaPq6CBd/yX2uQTyusbrui9/6DepaCRNpda7rvsSYBWJpncNfOiV5RyCo0aNsm1K4rFyYl133XV2xUK2fBBAwArMjwhYgTkEcyAAAQhAAAI5J6CHHQlbLh+Mm66ohx+N2LtIBu2nhwI9fLqHHD30uM+aThKikJIl94mxhC2JjXrYdC8JW4X50tz/tZ+mRRWKAvKPEwjkEyccuCmShSJCY9Gg8G9XjtvfCQsu949sVd3yuVvGvpD16NGjbTLlzp07Z8kFFdsqAUtCoqI8im3PPPOM9WOpJO/lKnQCaePImcK/G+8jv6gd6eXEUieU6r1wal3h942PceW4/WWr2pR7qU25hRM0rcxNw3OfuSaU826078W/cDXXwtVd1Q50ndbmVnZVe9BUcq3q6nInSqzS/+rhGq0IZP3uNtxwQ9OpUycijKM1s8zshYAVmKsQsAJzCOZAAAIQgAAEINCAgB5y33rrLfPKK6/Mm7b42muv2ZUDlQtFD00a5Vc+FPdZ4od7cGr8Dl4/BFw0TaEY5oQzl1/NvReuwub+p6lGq666asmHQwmhWsJeyZSdwOXeJYrqs5ti5pL1613/01b43vh/pYipbenlHuh1nDu2HGVXt7NFx7n/iVXh94Wi3dNPP2369+9vI1gab9pPq9RJ4FJ0S6EI6D5rHxfVJLaOr1vFTawai0aNo5oKxUb3nUQkJy4XCs76fz2IGOX87fP7Ym1c9ug5UJFSio7Vu3Iefvjhh3YapYQYrdqnpOhasU+vlVdeGV/6dCR1eyGAgOUFe+lKEbACcwjmQAACEIAABCAQiYAiAVxiZZdUufBvTSuSyKWXPus7PUy7pPOahuVW/dLnLE9hiQQs4zspx9Vtt91W8gH6kksusUvYr7766hk/0wWbLzFCU+lKbZpCKFFKEVoSwQqFMH2WWDFy5Eiz/fbbz1s8wOVLKxbZlmuYOTk5tQmJkm6FVHe9c9dACY5uwQ1d89w1UCJn4YqHbqpwvSeUz0mz4DRiIoCAFRPIuIpBwIqLJOVAAAIQgAAEIBA6AfV7XLSBInb00lRG/V8ClvI7uYgSF4WiSBf3v8Lpcm7aHMmb0/G68swowqrUVi8CVjna06dPt9M/S00hVJsfPny42XXXXcsVxfcpE5DA6KZeuumYhTnrXMSim96r71xEo6LeFJGqSFS3Qp/+1ovcgik7kupyRQABKzB3ImAF5hDMgQAEIAABCEDACwGX16cwv48+60HSJaHXw/8HH3xgp9nos/J2aXqUEhNrFa3CFRj1WZEOPDzG487rr7/e3HfffQhYZXAiYMXT3pIoRZFSLipKU2I13VPJz/Wuv/WdFrSQCLXCCivMS3wuQUrToxUhVbiyqER39zfTNJPwGGVCwBgErMBaAQJWYA7BHAhAAAIQgAAEMkVAERCawqjpO24Kj941ZVHTetzqf25FQO3vkle7pORuNS5NcVQUWGGCav1Ncmpjp71NmDABAQsBy8v1QeKTIp9ccnO32mrh3/reLUzQOI+Yi950q++5lT81tU/ClMtbhhDlxb1UCoGSBBCwAmscCFiBOQRzIAABCEAAAhCoKwJ66FUkl1uCXomU9VlL0eulyAyJXoUiV6HApQdi93Ir9ikqwyUud1Eahf/LIuBrr73W/P3vf0fAQsCqqPkqitK9XMJ8lyS/8Du38p7yixUmuXefJUhLTNaCEW7xCEVK6bMiMPWSCIUAVZF72BkCwRNAwArMRQhYgTkEcyAAAQhAAAIQgEAjAnrw1gO2ct64d5cbp/B/igRziev1rulJ6uu5/+l7PWDrQVuil/Lm6F0P5oV/uygRCWWhJHS+5pprzIMPPoiAVccClhZukKCkXFAuAsq9638uGkrvEpz0rjbsEpWr3btk5i4CyiUuL1y1sVTOOyW5Z4MABOqLAAJWYP5GwArMIZgDAQhAAAIQgAAEEiSgiC/3cK9oEz3kuygTF32iv51QIIFMopdemkall7bCFe4K/19ouqK/NKVKL31u/CrM51NqH3fM1VdfbSZNmoSA5UnAUrSSxFOJSAt6Fcslp/11rHup7bhIpcKIJbcKontvHM2k/0uQcmKrBFgJTy460f1ff7vPiE4JXkwoGgJ1QAABKzAnI2AF5hDMgQAEIAABCEAAAjkhoKmPEsUKp2W5vwvfFRmmv/XuxDQnoun/KkdihSJjCkUNJ6YJl4Q5RYtJsNCxgwcPNkcffbQlWWxaV+GxteCudspYXPXLdiVuv+OOO+x5agqqBKKVV155nnjoxEG9i83kyZNtonAJS05wcivaFeZqE1NFNuldQqJ84EQj91nRTRKMFMnkPrt99HehyOSEpmqZ1eInjoUABCBQDQEErGqoJXgMAlaCcCkaAhCAAAQgAAEIQCAWAi4ZvsSZwogvJwRpeuHee+9t63rhhResoHPRRRfNix5zoonbv1TUmI5vLC6VEsAKy3LHuXL1Xhil5oS0wsgjF2nkviuMPCol1DUW5LSfznObbbax+ZkkOH3yySdWwHL1S6Ry9ki00jGKZFJ9hbnSXMRcYaScE78QnWJpxhQCAQhkjAACVmAOQ8AKzCGYAwEIQAACEIAABCBQMYF7773X7Lnnnva45557ztx1113mwgsvrLicLB5w2WWXmQMOOMAmFFeE1UcffWTWWmutLJ4KNkMAAhAIigACVlDuMDaxZ8+ePc3AgQMTs2zq1KlmwIABZqmllkqsDgqGAAQgAAEIQAACEKhfAoUC1jPPPGMeeOABM2jQoLoAgoBVF27mJCEAAQ8EELA8QF9QlQhYgTkEcyAAAQhAAAIQgAAEKiZQKGA9/fTT5uGHH7YDqPWwIWDVg5c5RwhAwAcBBCwf1BdQJwJWYA7BHAhAAAIQgAAEIACBigkUClhPPvmkeeKJJ0y/fv0qLieLByBgZdFr2AwBCGSBAAJWYF5CwArMIZgDAQhAAAIQgAAEIFAxgUIB6/HHHzczZswwffv2rbicLB6AgJVFr2EzBCCQBQIIWIF5CQErMIdgDgQgAAEIQAACEIBAxQQKBaxHH33UvPrqq+b444+vuJwsHoCAlUWvYTMEIJAFAghYgXkJASswh2AOBCAAAQhAAAIQgEDFBG644QbzwgsvmIUWWsjMnDnTHHTQQaZ3794Vl5PFA4YNG2aWXXZZ065dO/Pzzz+bVVZZxay//vpZPBVshgAEIBAUAQSsoNzBKoSBuQNzIAABCEAAAhCAAASqIDBr1iwzZ84c06RJE3t0hw4dTLNmzaooKXuHfPHFF+b999+3hv/2229mzTXXNK1bt87eiWAxBCAAgcAIIGAF5hAisAJzCOZAAAIQgAAEIAABCEAAAhCAAAQg4J0AApZ3FzQ0AAErMIdgDgQgAAEIQAACEIAABCAAAQhAAALeCSBgeXcBAlZgLsAcCEAAAhCAAAQgAAEIQAACEIAABAIjgIAVmEOIwArMIZgDAQhAAAIQgAAEIAABCEAAAhCAgHcCCFjeXdDQAASswByCORCAAAQgAAEIQAACEIAABCAAAQh4J4CA5d0FCFiBuQBzIAABCEAAAhCAAAQgAAEIQAACEAiMAAJWYA4hAiswh2AOBCAAAQhAAAIQgAAEIAABCEAAAt4JIGB5d0FDAxCwAnMI5kAAAhCAAAQgAAEIQAACEIAABCDgnQAClncXIGAF5gLMgQAEIAABCEAAAhCAAAQgAAEIQCAwAghYgTmECKzAHII5EIAABCAAAQhAAAIQgAAEIAABCHgngIDl3QUNDUDACswhmAMBCEAAAhCAAAQgAAEIQAACEICAdwIIWN5dgIAVmAswBwIQgAAEIAABCEAAAhCAAAQgAIHACCBgBeYQIrACcwjmQAACEIAABCAAAQhAAAIQgAAEIOCdAAKWdxc0NAABKzCHYA4EIAABCEAAAt6GthwAACAASURBVBCAAAQgAAEIQAAC3gkgYHl3AQJWYC7AHAhAAAIQgAAEIAABCEAAAhCAAAQCI4CAFZhDiMAKzCGYAwEIQAACEIAABCAAAQhAAAIQgIB3AghY3l3Q0AAErMAcgjkQgAAEIAABCEAAAhCAAAQgAAEIeCeAgOXdBQhYgbkAcyAAAQhAAAIQgAAEIAABCEAAAhAIjAACVmAOIQIrMIdgDgQgAAEIQAACEIAABCAAAQhAAALeCSBgeXdBQwMQsAJzCOZAAAIQgAAEIAABCEAAAhCAAAQg4J0AApZ3FyBgBeYCzIEABCAAAQhAAAIQgAAEIAABCEAgMAIIWIE5hAiswByCORCAAAQgAAEIQAACEIAABCAAAQh4J4CA5d0FDQ1AwArMIZgDAQhAAAIQgAAEIAABCEAAAhCAgHcCCFjeXYCAFZgLMAcCEIAABCAAAQhAAAIQgAAEIACBwAggYAXmECKwAnMI5kAAAhCAAAQgAAEIQAACEIAABCDgnQAClncXNDQAASswh2AOBCAAAQhAAAIQgAAEIAABCEAAAt4JIGB5dwECVmAuwBwIQAACEIAABCAAAQhAAAIQgAAEAiOAgBWYQ4jACswhmAMBCEAAAhCAAAQgAAEIQAACEICAdwIIWN5d0NAABKzAHII5EIAABCAAAQhAAAIQgAAEIAABCHgngIDl3QUIWIG5AHMgAAEIQAACEIAABCAAAQhAAAIQCIwAAlZgDiECKzCHYA4EIAABCEAAAhCAAAQgAAEIQAAC3gkgYHl3QUMDELACcwjmQAACEIAABCAAAQhAAAIQgAAEIOCdAAKWdxcgYAXmAsyBAAQgAAEIQAACEIAABCAAAQhAIDACCFiBOYQIrMAcgjkQgAAEIAABCEAAAhCAAAQgAAEIeCeAgOXdBQ0NQMAKzCGYAwEIQAACEIAABCAAAQhAAAIQgIB3AghY3l2AgBWYCzAHAhCAAAQgAAEIQAACEIAABCAAgcAIIGAF5hAisAJzCOZAAAIQgAAEIAABCEAAAhCAAAQg4J0AApZ3FzQ0AAErMIdgDgQgAAEIQAACEIAABCAAAQhAAALeCSBgeXcBAlZgLsAcCEAAAhCAAAQgAAEIQAACEIAABAIjgIAVmEOIwArMIZgDAQhAAAIQgAAEIAABCEAAAhCAgHcCCFjeXdDQAASswByCORCAAAQgAAEIQAACEIAABCAAAQh4J4CA5d0FCFiBuQBzIAABCEAAAhCAAAQgAAEIQAACEAiMAAJWYA4hAiswh2AOBCAAAQhAAAIQgAAEIAABCEAAAt4JIGB5d0FDAxCwAnMI5kAAAhCAAAQgAAEIQAACEIAABCDgnQAClncXIGAF5gLMgQAEIAABCEAAAhCAAAQgAAEIQCAwAghYgTmECKzAHII5EIAABCAAAQhAAAIQgAAEIAABCHgngIDl3QUNDUDACswhmAMBCEAAAhCAAAQgAAEIQAACEICAdwIIWN5dgIAVmAswBwIQgAAEIAABCEAAAhCAAAQgAIHACCBgBeYQIrACcwjmQAACEIAABCAAAQhAAAIQgAAEIOCdAAKWdxc0NAABKzCHYA4EIAABCEAAAhCAAAQgAAEIQAAC3gkgYHl3AQJWYC7AHAhAAAIQgAAEIAABCEAAAhCAAAQCI4CAFZhDiMAKzCGYAwEIQAACEIAABCAAAQhAAAIQgIB3AghY3l3Q0AAErMAcgjkQgAAEIAABCEAAAhCAAAQgAAEIeCeAgOXdBQhYgbkAcyAAAQhAAAIQgAAEIAABCEAAAhAIjAACVmAOIQIrMIdgDgQgAAEIQAACEIAABCAAAQhAAALeCSBgeXdBQwMQsAJzCOZAAAIQgAAEIAABCEAAAhCAAAQg4J0AApZ3FyBgBeYCzIEABCAAAQhAAAIQgAAEIAABCEAgMAIIWIE5hAiswByCORCAAAQgAAEIQAACEIAABCAAAQh4J4CA5d0FDQ1AwArMIZgDAQhAAAIQgAAEIAABCEAAAhCAgHcCCFjeXYCAFZgLMAcCEIAABCAAAQhAAAIQgAAEIACBwAggYAXmECKwAnMI5kAAAhCAAAQgAAEIQAACEIAABCDgnQAClncXNDQAASswh2AOBCAAAQhAAAIQgAAEIAABCEAAAt4JIGB5dwECVmAuwBwIQAACEIAABCAAAQhAAAIQgAAEAiOAgBWYQ4jACswhmAMBCEAAAhCAAAQgAAEIQAACEICAdwIIWN5d0NAABKzAHII5EIAABCAAAQhAAAIQgAAEIAABCHgngIDl3QUIWIG5AHMgAAEIQAACEIAABCAAAQhAAAIQCIwAAlZgDiECKzCHYA4EIAABCEAAAhCAAAQgAAEIQAAC3gkgYHl3QUMDELACcwjmQAACEIAABCAAAQhAAAIQgAAEIOCdAAKWdxcgYAXmAsyBAAQgAAEIQAACEIAABCAAAQhAIDACCFiBOYQIrMAcgjkQgAAEIAABCEAAAhCAAAQgAAEIeCeAgOXdBQ0NQMAKzCGYAwEIQAACEIAABCAAAQhAAAIQgIB3AghY3l2AgBWYCzAHAhCAAAQgAAEIQAACEIAABCAAgcAIIGAF5hAisAJzCOZAAAIQgAAEIAABCEAAAhCAAAQg4J0AApZ3FzQ0AAErMIdgDgQgAAEIQAACEIAABCAAAQhAAALeCSBgeXcBAlZgLsAcCEAAAhCAAAQgAAEIQAACEIAABAIjgIAVmEOIwArMIZgDAQhAAAIQgAAEIAABCEAAAhCAgHcCCFjeXdDQAASswByCORCAAAQgAAEIQAACEIAABCAAAQh4J4CA5d0FCFiBuQBzIAABCEAAAhCAAAQgAAEIQAACEAiMAAJWYA4hAiswh2AOBCAAAQhAAAIQgAAEIAABCEAAAt4JIGB5d0FDAxCwAnMI5kAAAhCAAAQgAAEIQAACEIAABCDgnQAClncXIGAF5gLMgQAEIAABCEAAAhCAAAQgAAEIQCAwAghYgTmECKzAHII5EIAABCAAAQhAAAIQgAAEIAABCHgngIDl3QUNDUDACswhmAMBCEAAAhCAAAQgAAEIQAACEICAdwIIWN5dgIAVmAswBwIQgAAEIAABCEAAAhCAAAQgAIHACCBgBeYQIrACcwjmQAACEIAABCAAAQhAAAIQgAAEIOCdAAKWdxc0NAABKzCHYA4EIAABCEAAAhCAAAQgAAEIQAAC3gkgYHl3AQJWYC7AHAhAAAIQgAAEIAABCEAAAhCAAAQCI4CAFZhDiMAKzCGYAwEIQAACEIAABCAAAQhAAAIQgIB3AghY3l3Q0AAErMAcgjkQgAAEIAABCEAAAhCAAAQgAAEIeCeAgOXdBQhYgbkAcyAAAQhAAAIQgAAEIAABCEAAAhAIjAACVmAOIQIrMIdgDgQgAAEIQAACEIAABCAAAQhAAALeCSBgeXdBQwMQsAJzCOZAAAIQgAAEIAABCEAAAhCAAAQg4J0AApZ3FyBgBeYCzIEABCAAAQhAAAIQgAAEIAABCEAgMAIIWIE5hAiswByCORCAAAQgAAEIQAACEIAABCAAAQh4J4CA5d0FDQ1AwArMIZgDAQhAAAIQgAAEIAABCEAAAhCAgHcCCFjeXYCAFZgLMAcCEIAABCAAAQhAAAIQgAAEIACBwAggYAXmECKwAnMI5kAAAhCAAAQgAAEIQAACEIAABCDgnQAClncXNDQAASswh2AOBCAAAQhAAAIQgAAEIAABCEAAAt4JIGB5dwECVmAuwBwIQAACEIAABCAAAQhAAAIQgAAEAiOAgBWYQ4jACswhmAMBCEAAAhCAAAQgAAEIQAACEICAdwIIWN5d0NAABKzAHII5EIAABCAAAQhAAAIQgAAEIAABCHgngIDl3QUIWIG5AHMgAAEIQAACEIAABCAAAQhAAAIQCIwAAlZgDiECKzCHYA4EIAABCEAAAhCAAAQgAAEIQAAC3gkgYHl3QUMDELACcwjmQAACEIAABCAAAQhAAAIQgAAEIOCdAAKWdxcgYAXmAsyBAAQgAAEIQAACEIAABCAAAQhAIDACCFiBOYQIrMAcgjkQgAAEIAABCEAAAhCAAAQgAAEIeCeAgOXdBQ0NQMAKzCGYAwEIQAACEIAABCAAAQhAAAIQgIB3AghY3l2AgBWYCzAHAhCAAAQgAAEIQAACEIAABCAAgcAIIGAF5hAisAJzCOZAAAIQgAAEIAABCEAAAhCAAAQg4J0AApZ3FzQ0AAErMIdgDgQgAAEIQAACEIAABCAAAQhAAALeCSBgeXcBAlZgLsAcCEAAAhCAAAQgAAEIQAACEIAABAIjgIAVmEOIwArMIZgDAQhAAAIQgAAEIAABCEAAAhCAgHcCCFjeXdDQAASswByCORCAAAQgAAEIQAACEIAABCAAAQh4J4CA5d0FCFiBuQBzIAABCEAAAhCAAAQgAAEIQAACEAiMAAJWYA4hAiswh2AOBCAAAQhAAAIQgAAEIAABCEAAAt4JIGB5d0FDAxCwAnMI5kAAAhCAAAQgAAEIQAACEIAABCDgnQAClncXIGAF5gLMgQAEIAABCEAAAhCAAAQgAAEIQCAwAghYgTmECKzAHII5EIAABCAAAQhAAAIQgAAEIAABCHgngIDl3QUNDUDACswhmAMBCEAAAhCAAAQgAAEIQAACEICAdwIIWN5dgIAVmAswBwIQgAAEIAABCEAAAhCAAAQgAIHACCBgBeYQIrACcwjmQAACEIAABCAAAQhAAAIQgAAEIOCdAAKWdxc0NAABKzCHYA4EIAABCEAAAhCAAAQgAAEIQAAC3gkgYHl3AQJWYC7AHAhAAAIQgAAEIAABCEAAAhCAAAQCI4CAFZhDiMAKzCGYAwEIQAACEIAABCAAAQhAAAIQgIB3AghY3l3Q0AAErMAcgjkQgAAEIAABCEAAAhCAAAQgAAEIeCeAgOXdBQhYgbkAcyAAAQhAAAIQgAAEIAABCEAAAhAIjAACVmAOIQIrMIdgDgQgAAEIQAACEIAABCAAAQhAAALeCSBgeXdBQwMQsAJzCOZAAAIQgAAEIAABCEAAAhCAAAQg4J0AApZ3FyBgBeYCzIEABCAAAQhAAAIQgAAEIAABCEAgMAIIWIE5hAiswByCORCAAAQgAAEIQAACEIAABCAAAQh4J4CA5d0FDQ1AwArMIZgDAQhAAAIQgAAEIAABCEAAAhCAgHcCCFjeXYCAFZgLMAcCEIAABCAAAQhAAAIQgAAEIACBwAggYAXmECKwAnMI5kAAAhCAAAQgAAEIQAACEIAABCDgnQAClncXNDQAASswh2AOBCAAAQhAAAIQgAAEIAABCEAAAt4JIGB5dwECVmAuwBwIQAACEIAABCAAAQhAAAIQgAAEAiOAgBWYQ4jACswhmAMBCEAAAhCAAAQgAAEIQAACEICAdwIIWN5d0NAABKzAHII5EIAABCAAAQhAAAIQgAAEIAABCHgngIDl3QUIWIG5AHMgAAEIQAACEIAABCAAAQhAAAIQCIwAAlZgDiECKzCHYA4EIAABCEAAAhCAAAQgAAEIQAAC3gkgYHl3QUMDELACcwjmQAACEIAABCAAAQhAAAIQgAAEIOCdAAKWdxcgYAXmAsyBAAQgAAEIQAACEIAABCAAAQhAIDACCFiBOYQIrMAcgjkQgAAEIAABCEAAAhCAAAQgAAEIeCeAgOXdBQ0NQMAKzCGYAwEIQAACEIAABCAAAQhAAAIQgIB3AghY3l2AgBWYCzAHAhCAAAQgAAEIQAACEIAABCAAgcAIIGAF5hAisAJzCOZAAAIQgAAEIAABCEAAAhCAAAQg4J0AApZ3FzQ0AAErMIdgDgQgAAEIQAACEIAABCAAAQhAAALeCSBgeXcBAlZgLsAcCEAAAhCAAAQgAAEIQAACEIAABAIjgIAVmEOIwArMIZgDAQhAAAIQgAAEIAABCEAAAhCAgHcCCFjeXdDQAASswByCORCAAAQgAAEIQAACEIAABCAAAQh4J4CA5d0FCFiBuQBzIAABCEAAAhCAAAQgAAEIQAACEAiMAAJWYA4hAiswh2AOBCAAAQhAAAIQgAAEIAABCEAAAt4JIGB5d0FDAxCwAnMI5kAAAhCAAAQgAAEIQAACEIAABCDgnQAClncXIGAF5gLMgQAEIAABCEAAAhCAAAQgAAEIQCAwAghYgTmECKzAHII5EIAABCAAAQhAAAIQgAAEIAABCHgngIDl3QUNDQhVwBo7dqx5+OGHrbH/+te/zGWXXWbWW2+9wOglY06fPn2M/NK8eXPz22+/mcMOO8xst912yVRGqRURGDVqlJk6dapp2rSp+e6778wmm2xi+vfvX1EZWd353HPPNe+//74997lz55pjjjnGbLvttlk9HeyGQC4IvPHGG2bYsGFmoYUWMv/+979NixYtzMiRI3NxbpzEggl89tln5vDDDzft27e3Oy688MLmuuuuAxsEIAABCARC4OSTTzazZs0yTZo0sc+zRx55pNlvv/0CsS5ZM/r27WvmzJljK/n222/NX//6V9O6detkK02odASshMBWW2yoAtY///lPs+WWW9rTeuihh8ziiy8+7+9qzzUrx+nidsEFF5iOHTtak59++mmz+eabZ8X8XNt5yy23mD333NMstthi5oMPPjAStAYPHpzrc3Ynd/bZZxuJWIsssoj56quvzEsvvWS6detWF+fOSUIgVALvvvuuWWKJJUybNm1sB3HgwIHmqquuCtVc7IqRwCeffGLuv/9+c/TRR9tSdX864IADYqyBoiAAAQhAoBYCQ4YMsfdlbZMnTzYfffSROeKII2opMjPHnnXWWXaATdtrr71mll56adO2bdvM2F9oKAJWYG5DwArMIcZYdR4BKzy/uAcEBCwErDBbJ1bVIwEErHr0+n/PGQGrfn3PmUMAAtkggICFgBW1pd55551m9OjRUXdf4H5NftMcrhxvCFjhORcBKzyfOIuIwCICK9zWiWX1SAABqx69joBVv17nzCEAgSwRQMBCwIraXhGwopIyxuZa6tmz57zwxgoOjbyrcgYNGDDALLXUUpGPYQohUwgjN5YUd0TAQsBKsblRFQTKEkDAKosotzsQgZVb13JiEIBATgggYCFgRW3KCFhRSSFgVUAqvV2JwEqPdaU1IWAhYFXaZtgfAkkSQMBKkm7YZSNghe0frIMABCCAgIWAFfVXgIAVlRQCVgWk0tsVASs91pXWhICFgFVpm2F/CCRJAAErSbphl42AFbZ/sA4CEIAAAhYCVtRfAQJWVFIIWBWQSm9XBKz0WFdaEwIWAlalbYb9IZAkAQSsJOmGXTYCVtj+wToIQAACCFgIWFF/BQhYUUmlJGC9//775tFHH21g1XvvvWd22GGHkpa+9NJLZv3117ffz5492/Tr18+svPLKFZxZdnfVEuh6KGnevLn54IMPzK+//lry3MXm1VdfNcsss0x2Tzggy8Vy8803L8lT7Xj11Vc3HTt2tEvWb7311mb//fcP6AySM2XcuHHmxRdfNE2bNrXLAH/11Vdmww03LFqhvhdLsWJLl4DYf//99yUrbdasmWnZsmW6RpWp7ccffzQ///xzyb2UP7Fdu3ZB2ZyWMXPmzDHt27c3HTp0KFql8ljqt7jGGmuY//znP5bTmWeemZZ51OORwDfffGO0tLd+H1pvaMqUKWbHHXcsapG+V+d444039mgxVeeBwL///W/z4YcfluzD//LLL/Z6PmLEiDycrrdzGD9+vJk8ebJp0aJFURu+++478+mnnxrd09n8EXj66afNXnvtZRZddNGiRkyYMMF07drVLLnkknbl2MMPP9xsu+22/gxOsearr77anrO2mTNn2v5J69ati1rwxhtv2L6rOIW46dnngAMOsM9ASW0IWBWQTSOJezFzLrnkkvlErcL9Lr74Ytsxq/dtzJgxZsUVVyx5sXvllVfMjTfeWDcXw6Tbgx78dMHt1q1b0aoUgaWLb48ePZI2Jejy77vvPtOqVauSnHTDHjRokDn//PODPo96NS60xXWbNGlSr64oe95vvfWWWXfddc1OO+1UdF99r4ecPn36lC2LHfJLQOLl4MGDjUb7i20SHbp37464md8mkNqZzZgxw2ihpYkTJxatc+7cufZ69cgjj6RmUx4ruuGGG8z2229fcgD7ySefNBrsX2655fJ4+pk5p2OOOcY8++yzdmC72HbWWWeZXr161f3gwfXXX2+FvrZt2xblNHLkSDNt2jQrEtXrhoBVgecRsCqA5WFXBKx0oSNgReONgBWNU6h7IWCF6pn57ULAyo6vfFqKgOWTfn3VjYCVjr8RsNLhXGstCFjRCCJgleeEgFWe0bw9ELAqgOVhVwSsdKEjYEXjjYAVjVOoeyFgheoZBKzseCYsSxGwwvJHnq1BwErHuwhY6XCutRYErGgEEbDKc0LAKs8IAasCRj53RcBKlz4CVjTeCFjROIW6FwJWqJ5BwMqOZ8KyFAErLH/k2RoErHS8i4CVDudaa0HAikYQAas8JwSs8owQsCpg5HNXBKx06SNgReONgBWNU6h7IWCF6hkErOx4JixLEbDC8keerUHASse7CFjpcK61FgSsaAQRsMpzQsAqzwgBqwJGPndFwEqXPgJWNN4IWNE4hboXAlaonkHAyo5nwrIUASssf+TZGgSsdLyLgJUO51prQcCKRhABqzwnBKzyjBCwKmDkc1cErHTpI2BF442AFY1TqHshYIXqGQSs7HgmLEsRsMLyR56tQcBKx7sIWOlwrrUWBKxoBBGwynNCwCrPKFUB68UXXzQffPCBadq06bx633333QUuKarlYbfddtuSZ/Lxxx+bfv36mRVXXLGCs83ertdee61drni11VYravzs2bPNl19+WXJZ0uydcfUW66H8vffeM+3atVtgIYsvvnjJ79988027ZPHSSy9ddJ8nnnjCfrf22msX/f6nn34yW265pdl5552rP5EMHKmL7O23327WW2+9otZ++umnRq9VVlklA2eTXRN//fVXo1Xqfvjhh8gnsdhiiwW37LYWE/nmm2/mnUP79u1LLkkd+USNsVxUbqtWrYoepod+fR9yO5V9X3zxRcnr2qxZs8x3331ndthhh6Ln+O2339pjN9poo0rQZWpfnf9jjz1mdt1110zZXamxGjgodW/65ZdfzC233GI23XTTosXq/vj888+XbCeV2sL+2SXw9ddfG7WH3/3ud0VP4vvvvzctWrQwpfpK+v711183u+++e9Hj1RY/++wzo/4rW/UE7r77btv/L3X/kh/1DLDoootWX0nGj/z3v/9t7+Hq1xTb1Ba1T7nnglow6Llgl112MS1btixazF133WU22WQTs9JKKxX9Xs9wRx11lFl//fVrMSP4Y6+55hrz/vvvl2zPr776qpG/kvRVLZDUD9tnn31KXhdrKdsdi4BVAcU0ViGcOnWqGTBggFlqqaUiW3bxxRebM844o+T+Y8eOtUJDly5dIpeZxR0VgaWL3jbbbJNF81O1WTepHXfc0Zx++ukLrLdnz55V26UHhNatW5sePXoULUO/J92s/vjHP1ZdRxYOLBeBlYVzwMb8E1DnX9fQ3XbbrejJqkMyatQoK35kdZOAOXnyZNOnT5+ip/DOO++YG2+80Zx//vlZPcWydn/00Uf2AWDSpEll983qDhIcrrrqKnPyyScXPQWJseeee64ZOnRoVk8Ru1Mi8Oc//9k+1K+66qpFa5w2bZodQC513UzJTKqBQFkC//rXv8x1111nNttss6L7aoBHg6kKePC1nXXWWaZXr14lgzb+8Y9/mDlz5pg999zTl4mp1FsuAisVI2qoRJrEGmusYZZZZpkaSlnwoQhYFaBFwKoAloddR44cadZdd93cC3VxoEXAioNitDIk0i277LJmiy22iHYAe0HAAwEELGPqRcA68sgjzUMPPeShlaVTJQJWOpzroRYErHrwcn2cIwJWdvz8l7/8xRx22GElo+VCPxMErMA8hIAVmEMamTNo0CCryud5+kdcHkDAiotk+XIUAbnVVlsFPfWq/FmwR94JIGDVj4B18MEHm0ceeSS3TRoBK7euTf3EELBSR06FCRFAwEoIbALFXnnllSUjiBOoLvYiEbBiR1pbgQhYtfFL+mhNRTvttNNMp06dkq4q8+UjYKXnQuW2OOSQQ0zz5s3Tq5SaIFAhAQSs+hCwlGNTUzSmT59eYQvJzu4IWNnxVeiWImCF7iHsi0oAASsqKf/7XXrppWVTvPi3srQFCFiBeQcBKzCHNDLn97//vbn66qvN8ssvH7ahAViHgJWeE0aMGGFOOumk9CqkJghUQQABqz4ELC3eoYUzlA8srxsCVl49m/55IWClz5wakyGAgJUM1yRKveiii4xWes/qhoAVmOcQsAJzSCNzNt54YzNlyhTTpk2bsA0NwDoErPSccNlll9nIQDYIhEwAAas+BKyZM2eazp07N1jJMuR2WY1tCFjVUOOYYgQQsGgXeSGAgJUdTw4ZMsQMHDgwOwY3shQBKzDXIWAF5pACc9RhXXLJJY181KxZs3ANDcQyBKz0HDFs2DCjlVXYIBAyAQSs+hCwHn30UbPvvvuad99917Ro0SLkJlm1bQhYVaPjwEYEELBoEnkhgICVHU8qp/N5552XHYMRsML2FQJWuP6ZPXu22Xrrrc3LL78crpEBWYaAlZ4zsn4jSo8UNfkkgIBVHwKWVuudMGGCGT58uF21N48bAlYevernnBCw/HCn1vgJIGDFzzSpEjV9UNMIs7oRgRWY5xCwAnNIgTkaTT7//PPN6NGjwzUyIMsQsNJzhi7kF198cXoVUhMEqiCAgFUfAtapp55qWrdubTbZZBPTs2fPKlpK+IcgYIXvo6xYiICVFU9hZzkCCFjlCIXxve5fuk9fccUVYRhUhRUIWFVAS/IQBKwk6dZWtlZUmjFjhjnuuONqK6hOjkbASsfR4HW+XAAAIABJREFUv/76qznllFPMVVddlU6F1AKBKgkgYNWHgNWjRw+7qIRyYZ144olVtpawD0PACts/WbIOAStL3sLWBRFAwMpG+9BCK2PHjjXnnHNONgwuYiUCVmCuQ8AKzCEF5tx9991mww03NKusskq4RgZkGQJWOs545plnzJNPPmn69u2bToXUAoEqCSBg5V/AmjNnjtl1113N+PHjjXLzaanuPG4IWHn0qp9zQsDyw51a4yeAgBU/0yRKHDNmjFl88cXNXnvtlUTxqZSJgJUK5uiVIGBFZ5X2niNGjDDHH388CdwjgkfAigiqxt0uv/xyK6x27969xpI4HALJEkDAyr+AJR9PnDjRJodV9NWf/vSnZBuVp9IRsDyBz2G1CFg5dGqdnhICVjYcf+yxx9ophJ06dcqGwUWsRMAKzHUIWIE5pMAcrfJ24YUXmoUWWihcIwOyDAErHWccccQRdilcIgPT4U0t1RNAwMq/gKUE7ptuuqnNf5XnxSUQsKq/DnBkQwIIWLSIvBBAwArfk7p3devWzQ40LbroouEbXMJCBKzAXIeAFZhD/meO8gwdffTR5oYbbjBNmjQJ08jArELASt4hc+fONbvvvru9EdEuk+dNDbURQMDKv4AlMf2CCy6w1yPl5VMUVh4HfRCwarsWcPT/E0DAojXkhQACVvienD17ts2b+7e//S18YxdgIQJWYO5DwArMIf8z5+WXXza333677ZizRSOAgBWNUy17ff7550YRD+eee24txXAsBFIhgICVfwFL1yKt1qvtnnvuMW3btjVdu3ZNpX2lWQkCVpq0810XAla+/VtPZ4eAFb63lcD9iSeeML179w7fWASs7PgIAStMXw0ZMsRst912Zuuttw7TwACtQsBK3ilvvvmmeeedd4xW/WKDQOgEELDyL2AVTht8++23zdlnn21uu+220JtmxfYhYFWMjANKEEDAomnkhQACVviefOyxx0yLFi3MxhtvHL6xCFjZ8RECVni++uWXX0yvXr3MnXfemcupEEkRR8BKiuz/lztu3Diba2bNNddMvjJqgECNBBCw8i1gvfDCC+app54yShCrTSKPcvMpgrlly5Y1tp6wDkfACssfWbYGASvL3sP2QgIIWOG3B+VyPuSQQ8zyyy8fvrEIWNnxEQJWeL769ttv7VLgWlWJLToBBKzorKrd84ADDjDq/C655JLVFsFxEEiNAAJWvgUsrdIr8Wr99def16Yuuugis+OOO2Z+tLfxjwQBK7XLRu4rQsDKvYvr5gQRsMJ2tQIytGL5Qw89ZBZZZJGwjS1jHTmwAnMfAlZgDjHGzJw507z++utmjz32CM+4gC1CwErWOZo+qFwzY8eOJYF7sqgpPSYCCFj5FbB+/PFHO81euTWaNWs2r8V88skn5pFHHjEHHnhgTK0ojGIQsMLwQx6sQMDKgxc5BxFAwAq7HTz88MM2SlpT+7O+IWAF5kEErMAcYoz9oR966KGmU6dO4RkXsEUIWMk6Z8SIETYnW9bnsSdLidJDIoCAlV8BS4M8DzzwgDnttNMaNLn//Oc/9h6qSKw8bQhYefKm33NBwPLLn9rjI4CAFR/LJEo666yzjFYKVg6srG8IWIF5EAErLId88803NkH2tGnTzMILLxyWcYFbg4CVrIPOPPNMM3z4cKKvksVM6TESQMDKr4A1evRo061bN7PiiivO12K0ZHffvn3NSiutFGNr8lsUApZf/nmqHQErT96s73NBwArb/xKwhg0bFraREa1DwIoIKq3dELDSIh2tngkTJphZs2aZgw8+ONoB7DWPAAJWco1BbIcOHWq04hcbBLJCAAErnwKW8mocdthh5rrrrjOLLbbYfM3xySefNJMmTcpVHkkErKxcdcK3EwErfB9hYTQCCFjROPnY6+uvvzY33HCDkfCThw0BKzAvImCF5RAJBHottNBCYRmWAWsQsJJz0l//+lfTrl078rIlh5iSEyCAgJVPAevxxx83EydONEOGDCnaaiT2HH744WbkyJGZTxzrThABK4ELRJ0WiYBVp47P4WkjYIXr1JNPPtlo4afNN988XCMrsAwBqwJYaeyKgJUG5Wh1KHfHgAEDzMUXXxztAPZqQAABK5kG8d1339lprQ8++GAu5rEnQ4lSQySAgJVPAUtTBE8//XSz7LLLlmx2N954o51iuMIKK4TYNCu2CQGrYmQcUIIAAhZNIy8EELDC9OTnn39ujjrqKHPvvfeapk2bhmlkhVYhYFUILOndEbCSJhy9fIVatm7d2vTq1Sv6Qew5jwACVjKN4dlnnzUvvviiOfLII5OpgFIhkBABBKz8CVhz5861OTXKTWd+4403zE033WQuvPDChFpXusUiYKXLO8+1IWDl2bv1dW4IWGH6e8qUKTb6uWvXrmEaWIVVCFhVQEvyEASsJOlGL1tRLnvvvbdRDiz96NkqJ4CAVTmzKEdoNS+JV23bto2yO/tAIBgCCFj5E7AuueQSs8UWW5TtGCtP1g477GDGjRtnOnbsGEybrNYQBKxqyXFcYwIIWLSJvBBAwArTk1r06ZxzzjEtW7YM08AqrELAqgJakocgYCVJN3rZTzzxhPnqq6/IMRQd2Xx7ImDVAK/EoR988IFNhHz99dfnJgw4fkqUGCoBBKx8CVjqr+y8885GSdqjDPTMmDHDPPXUU6ZPnz6hNtHIdiFgRUbFjmUIIGDRRPJCAAErPE++/PLLdoGVESNG5GrVcgSswNoaApZ/h6hjetxxx9lV3tq0aePfoIxagIAVv+O0FL3a5pprrhl/4ZQIgYQJIGDlS8C67bbbzGqrrWY22WSTyC3npJNOMpdddplZeOGFIx8T4o4IWCF6JZs2IWBl029YPT8BBKywWoXuU1ohWPfcvM3aQMAKq60ZBCz/DtEI8e23325/8E2aNPFvUEYtQMCK13FaVOD888+3LzYIZJEAAlZ+BCxd348//ng7slvJfXLSpEnmmWeeMQMHDsxiE55nMwJWpt0XlPEIWEG5A2NqIICAVQO8BA7VTCJN29fAUd42BKzAPIqA5d8hWlHp7LPPzp1anTZZBKx4iStR8nbbbWe23HLLeAumNAikRAABKz8C1lVXXWVXHdxnn30qaj2//vqrOeigg+x0hnbt2lV0bEg7I2CF5I1s24KAlW3/Yf3/E0DACqc16F6r6Cs9z66xxhrhGBaTJQhYMYGMqxgErLhIVlfO119/bUeU+/fvX10BHDWPAAJWfI3hnXfesTeixx57LL5CKQkCKRNAwMqHgPX999+bP/7xj3ZVwUqir1xze/PNN80jjzxiy8jqhoCVVc+FZzcCVng+waLqCCBgVcctiaOef/55O1A0atSoJIr3XiYClncXNDQAAcufQ9Qp79mzpxk7dqwdWWarjQACVm38Co8ePny4FbDat28fX6GUBIGUCSBg5UPAuuKKK0znzp1Nly5dqmpBujcceuihdjq0cmhlcUPAyqLXwrQZAStMv2BV5QQQsCpnltQRWvBJM4patWqVVBVey0XA8op//soRsPw55J577rErKfXo0cOfETmqGQErHme+8cYbdtVB5WRjg0CWCSBgZV/Amjlzpjn55JPNhAkTzEILLVR1c/zoo4+MhLDLL7+86jJ8HoiA5ZN+vupGwMqXP+v5bBCwwvD+9OnTzfjx482QIUPCMCgBKxCwEoBaS5EIWLXQq/5YJchWhMvo0aNNs2bNqi+II+cRQMCqvTH8/PPPplevXrZdsiJm7TwpwS8BBKzsC1j9+vUzAwYMMEsuuWTNjenKK680O+20k1l77bVrLivtAhCw0iae3/oQsPLr23o7MwQs/x7/9ttvzeGHH27GjBljmjdv7t+ghCxAwEoIbLXFImBVS67649QRHTRokOnatavZcccdqy+IIxsQQMCqvUFoBEXt8/e//33thVECBDwTQMDKtoB19913Gz2gnHjiibG0pC+//NLsv//+5s4774xFEIvFqIiFIGBFBMVuZQkgYJVFxA4ZIYCA5d9Rf/rTn8wmm2xittpqK//GJGgBAlaCcKspGgGrGmq1HfPJJ5/YKVoSsdjiI4CAVRvLjz/+2Bx44IFm8uTJdmorGwSyTgABK7sClu6Txx57rNFU+6ZNm8bWFF9++WXz+OOPm+OOOy62MtMoCAErDcr1UQcCVn34uR7OEgHLr5dnzJhhLrroInPrrbfWNMXf71lEqx0BKxqn1PZCwEoNta1o9uzZNnH7HXfcQYLsmNEjYNUG9PTTTzennXaa6dChQ20FcTQEAiGAgJVdAUvXouOPP96suuqqsbYmLfWtKYndunUzO++8c6xlJ1kYAlaSdOurbASs+vJ3ns8WAcuvd0866SQzdOhQ07JlS7+GpFA7AlYKkCupAgGrElq17zts2DCzww47mM0226z2wiihAQEErOoahB6MNHqieezHHHNMdYVwFAQCJICAlU0BS7k0NN3v1FNPNU2aNIm9Zf30009GHW/lxMpKzg4ErNibQd0WiIBVt67P3YkjYPlx6S+//GKFqw022MDssccefoxIuVYErJSBl6sOAascofi+f+KJJ8zEiRPNBRdcEF+hlDSPAAJWdY1Bq3xpOuvNN99cXQEcBYFACSBgZU/A+u6778y5556b+GqBzz33nLnmmmvMDTfckIhIFvdPAgErbqL1Wx4CVv36Pm9njoDlx6NadfDBBx+sq1Q4CFh+2lrJWhGw0nHIF198Yfr3729HfFu1apVOpXVWCwJW5Q6fM2eOnaZz1VVXmaWWWqryAjgCAgETQMDKloClqKv99tvPjB071nTs2DHRliVBSKutKsJLKwKHviFghe6h7NiHgJUdX2HpggkgYKXfQpQv98wzz7S5nLMSwRwHJQSsOCjGWAYCVowwSxT1zTffGDX8gQMHmhVXXDH5Cuu0BgSsyh2vJer33HNP06VLl8oP5ggIBE4AASs7AtbcuXPNeeedZ4488kizyiqrpNaylPtvn332MVtssUVqdVZTEQJWNdQ4phgBBCzaRV4IIGCl60ndh7QAip5p07xPp3uWxWtDwArBCwU2IGAl7xAtAa58G6uvvnryldVxDQhYlTlfUVdLL720OeCAAyo7kL0hkBECCFjZELDUKT7rrLPsUty9evVKtXX9/PPP5ogjjjDKT7nCCiukWncllSFgVUKLfRdEAAGL9pEXAghY6XpS0/s33XTTusl7VUgXASvdtla2NgSssoiq3kGrHUkkaNeunendu3fV5XBgNAIIWNE4aa/x48ebZ5991uaaadasWfQD2RMCGSKAgJUNAeumm24yms7cp08fL61L/aATTjjBXHzxxcGKWAhYXppGLitFwMqlW+vypBCw0nO7ptzPmjXLKCijadOm6VUcSE0IWIE4wpmBgJWcQ/7+97+bp556ygwZMiS5Sih5HgEErPKNQQ9BSr6oxMXXXXddJpIXlz8r9oBAcQIIWOELWHfddZdNBjty5EivneJPP/3UTvNXnsrFF188uJ8UAlZwLsmsQQhYmXUdhjcigICVfJPQvWfChAnmscceM5dccknyFQZaAwJWYI5BwErGIfqxT5kyxVx22WVEuCSDeL5SEbDKg37//ffNFVdcYS688ELTsmXL8gewBwQyTAABK2wB6+677zYvvPCCXckohBHdV155xZx88slGolrr1q2DavkIWEG5I9PGIGBl2n0YX0AAASv55qDZGvfff79diGyRRRZJvsJAa0DACswxCFjxO2TatGlG0VeKvPrd734XfwWUWJQAAtaCG8aMGTOsoDpixAjTtm1bWhEEck8AAStcAevRRx819913n809FVKn+KWXXjI33nijGTBgQFArsyJg5f5yldoJImClhpqKEiaAgJUsYAVi3HLLLcFGJid79g1LR8BKk3aEuhCwIkCqYJfJkyfbEEsJWIhXFYCLYVcErOIQ9eDz7rvv2gey2267LQbSFAGBbBBAwApTwHrkkUfMpZdeahSBFeJ98o033rBJ5W+99dZgxDUErGxcc7JgJQJWFryEjVEIIGBFoVT5PrrfKCJZeZyVcoTN2JUX11hjDbPMMsskhuPOO+80yjUWx9bkN3kxxxsCVjzOVTP5y1/+YsRTQgGJsePhWkkpCFjFaWkEZdKkSfaBrE2bNpUgZV8IZJoAAlZ4AtaYMWOsoH7mmWeaxRZbLNj2pUgsdVhHjRplOnTo4N1OBCzvLsiNAQhYuXFl3Z8IAlYyTUDBGHqdffbZwU2nT+aMy5eKgFWeUap7IGDVjnvu3LlGqyh99dVXtsPL5ocAAtb83KXmT5061U4dXHTRRf04hloh4IkAAlY4Apauz2PHjjUzZ840559/fiYGefRwpFQAp556qll99dU9teL/VouA5RV/ripHwMqVO+v6ZBCw4nf/uHHj7AJkipKOa3q/8kIrXcBKK60Uv8Eplfjcc8+ZY4891qy22mqJ1UgEVgVoEbAqgFViV0W2rLXWWubggw9mVbfacVZdAgJWQ3TXXnut+eabb2ykw0ILLVQ1Vw6EQFYJIGCFIWD9+uuv5ogjjjDbb7+96d27d6buk3PmzDEHHXSQ7Xyvu+663n4KCFje0OeuYgSs3Lm0bk8IASs+1+sec+KJJ5oNN9zQ3q/jfG7QNMT27dub3XbbLT6DUy7ptNNOs+ew9tprJ1YzAlYFaBGwKoDVaNdZs2bZaVk77rij2XvvvasviCNjIYCA9V+M4jB8+HA7T/vwww83Cy+8cCx8KQQCWSOAgOVfwHr77bfN4MGDzVFHHWW22267rDUha++3335rF79QFKs6sT42BCwf1PNZJwJWPv1aj2eFgBWP13WPU2R0ly5dzB577BGreCULJWBpKn6WBSxFYiNgxdPeYikFAas6jO+884654IILTL9+/cw666xTXSEcFSsBBCxjPv30U3PuueeaXXfdFVE11tZFYVkkgIDlT8D65ZdfzJNPPmlGjhxpFA3asmXLLDahBjZrCuTTTz9tBbmllloq1fNBwEoVd64rQ8DKtXvr6uQQsGp393vvvWdzNyv6aquttqq9wCIlIGBFw0oEVjROdi8ErApg/W/Xe++91ygxtjqxbdu2rbwAjkiEQL0LWFrZa+jQofaBceWVV06EMYVCIEsEELD8CFi6Fiv56worrGCnIjRv3jxLzaakrRKRFFF28sknm3POOcdsscUWqZ0XAlZqqHNfEQJW7l1cNyeIgFWbq2+//XZzzz33mCuvvDLR1fUQsKL5CQErGicErAo4aVdFt2gkuUWLFlapDnkFpQpPLRe716uApdDfq6++2vznP/8x/fv3Z8pgLlozJxEHAQSsdAUsiSyPPvqoufvuu03Pnj3NDjvsEPtUhDjaRa1lzJ492/zpT38yijJTXyCN1V0RsGr1Gsc7AghYtIW8EEDAqs6TX375pbnqqqtMu3btzEknnZR4XkoErGh+QsCKxgkBKyInCSPTp0+3I64SsDp16hTxSHZLk0C9CVhKjDxjxgybk0U3oo022ihN3NQFgeAJIGClJ2B9//339v6o6fUazf3d734XfPuo1UBFY51wwgl2pUJdf5s2bVprkSWPR8BKDG3dFYyAVXcuz+0JI2BV5lo9N+h59vTTTzc333yzjZJOY0PAikYZASsaJwSsCJy++uorm6i9e/fuZvfdd7fRV2xhEqgnAUsLCGgay+abb272339/s+SSS4bpFKyCgEcCCFjJC1iK/LzxxhvtstuaLqhrUpyrF3lsPpGq1kqv9913n3nggQfsSoWrrrpqpOMq3QkBq1Ji7F+KAAIWbSMvBBCwonvys88+s88NWkzlwAMPNK1atYp+cI17RhWw5E9Na3zzzTfN3Llza6z1v4drMG3NNdc0++23n00kX+1GEvdqySV0HDmwioOVcDVhwgQ7HeKMM84wa621VkIeoNi4CNSDgPXzzz/bh6WHH37YHHvssURdxdV4KCeXBBCwkhOwdL2dPHmyefDBB+11qHfv3nURdVXqh/LRRx+Zyy+/3HTs2NHss88+sechRMDK5SXKy0khYHnBTqUJEEDAKg9VaUYU2aMFSPQ8u8oqq5Q/KOY9FiRg6d720ksvmTvuuMNoQGivvfYyq6++emz9CQlhb7zxhrn//vvt4iv77rtvVc/0CFgxN4pai0PAmp+gxAGtyKCb/CabbFIrYo5PiUDeBSxNF9TytqNGjTI77rhj4nPWU3Ib1UAgMQIIWMkIWDNnzrQijTrDGslt0qRJYj7MWsHqgO+5555mp512sons49oQsOIiSTkIWLSBvBBAwFqwJzXIdOihh5rx48fb51lf9+oFCVgTJ060Udx6tll00UUTbZrfffed2W233ey9WffoSjYErEpopbAvAtZ/ISsZ62233WYee+wxG17Zo0cPs/jii6fgAaqIi0AeBSw9tDz++ONm3LhxZrPNNjO9evVKNew3Lt9QDgR8EEDAik/A0j3y73//u50qt8EGG9hR0lrC8X20h7TqVJ6RadOmGXXMF1lkEXP44YeblVZaqabqEbBqwsfBBQQQsGgOeSGAgDW/J3Wv1n1a95+tt97a3quTFobKtadSApaebd59911z5plnxhZxVc4WzWS55JJLzHrrrWd+//vfl9t93vcIWJFRpbNjPQtY6hBqTrDCKm+99VbTrVs3c9RRRyWaiDUdr9ZnLXkSsDSF9fnnn7dzwZXfauDAgQiq9dmsOesaCCBg1SZg6R75wQcf2PxWmlKvEdw+ffpYUYYtGoHnnnvOjBgxwiy//PI2clad5mpyFiJgRePNXuUJIGCVZ8Qe2SCAgPX/fnLPs5ouqPuMVhf0LVw564oJWF9//bUZOnSoufTSS1NvbD/99JPZeeed7TPWMsssE6l+BKxImNLbqV4FLP3QzzvvPDNnzhy7iptyXC222GLpgaem2AnkQcDSOZx77rlGDz1qn+ussw7CVewthQLrhQACVvUClq5BWnlX+TL69etnl9vmHlndL0cRWbNnzzbPPPOM7ax37tzZJtNt27Zt5AIRsCKjYscyBBCwaCJ5IYCAZYymxWlVQQ18Dxo0yN6zmzdvHpSLiwlYigyTgOUrx/THH39sbrnlFtu/ibIhYEWhlOI+9SRgvfXWW2bSpEnmk08+Ma1bt7ajoUo+W08rJqXYtFKvKqsClm7ACvfV8vNaLUPzsrt06eJtrnrqjqNCCCREAAEruoD18ssvmyeffNJ8+OGH9tqz7LLLml133bXmqW8JuTazxWrVRkW0aWq4HjwWXnhhs/HGG5uuXbuaJZZYouR5IWBl1uXBGY6AFZxLMKhKAvUqYL399tv2uUHPsxKrevbsae8joW6NBaz333/fThtU6h5fm6ZaavGZm266yTRr1qysGQhYZRGlu0NeBSx19r7//nu7osH06dPtCgzqlEtplWjFlj8CWRGwfvjhB9suteqG2qVGAZRQcJtttsmfUzgjCHgkgIA1v4ClaCDdGyWefPHFFzZPhlY2XX/99W2uJuXaY1AnvUYrPyiFgTr4Wupbo9LyhXJwtmzZ0k7XVN8FASs9n+S9JgSsvHu4fs6vXgQs3Sc05U5RvFqtz83WUD7KLGyNBawpU6aYFi1amC233NKr+Zrxsvvuu9t+T7kNAascoZS/z5uApdWR9ON+4oknTPv27W1C9g033NAmm9Xymb5WYEjZrXVZXcgClqIa7rnnHvuwqGkjGm3fdNNNbZRD1PnXdelUThoCNRBAwPqvgKVpBboPvvrqqzbCarXVVrOJ2JUno2PHjvbF9MAaGlpMh0pQ/PTTT41GpxURp0EOLYEuYWvttdc2r7/+up1iXixSS5Fd+k5TMtggsCACCFi0j7wQyLOApfyTU6dONffee69p06bNvOdZPTfoeTZLW2MB66677jI77LCDnQ3lc5OQ9uabb9rcnuU2BKxyhFL+PgsClsL8FLUiBVrvGj1W4jWF3isvh/6v/82aNcsmR+3evbtNNit1l61+CIQiYPXv39+2P7VJ1y4V4ivRaquttmIVwfppkpypZwL1IGCp86VkrW4EUYM0iqBq2rSpnZKsUVuJIPvuu6/NjbHccsuxUInndllJ9bqHvPfee/Y1bNgwG70rH7dq1cqKjvKz/lZknQZDbr755kqKZ986JICAVYdOz+kp50XAevjhh80KK6xgcyW62UMSdzRjSM8OetbN8tZYwFKgyS677OI9x69WC1a+T+WkLLchYJUjlPL3oQpYWuJSo4kKm1fnzHXK1TF3nTVFtEisYrpDyo0m0OrSELBGjRplHxYlnha2TRfZN3fuXJv4WAsD0C4DbSiYVTcE6kHAqhtncqIQgEAsBBCwYsFIIQEQyIKAdeihh9pZQY1FKA0+6Dnh3XffNX379jUnnnhiMKsGxu1aBKxoRJVWZvTo0dF2LrNXk9/0lJrjLVQBS1FXP/74oxWrJBY03kr9P8eu4tTKEEhDwJIJGh3RpqR/xaakqr0yVZXmCgH/BBCw/PsACyAAgbAIIGCF5Q+sqZ5AFgQsPZt8/vnn807SRUgXnrWmBEZJJF49Kb9HImBF44+AFY2T3StUAauCU2BXCFgCaQlY4IYABLJBAAErG37CSghAID0CCFjpsaamZAlkQcBKlkA2SkfAiuYnBKxonBCwKuDEruETQMAK30dYCIE0CSBgpUmbuiAAgSwQQMDKgpewMQoBBKwolPzvg4AVzQcIWNE4IWBVwIldwyeAgBW+j7AQAmkSQMBKkzZ1QQACWSCAgJUFL2FjFAIIWFEo+d8nTQFr+vTp5pZbbrGLmmhaphY+0fsZZ5wx3+JuJHH33zaqtoAphFWj48DACCBgBeYQzIGAZwIIWJ4dQPUQgEBwBBCwgnMJBlVJAAGrSnApH5aWgPXVV1+Zo48+2owdO9Zo9Xe3TZo0ybz22mvmlFNOaXDmCFgpN4Q4q0PAipMmZfkkgIDlkz51QyA8AghY4fkEiyAAAb8EELAFCreoAAAgAElEQVT88qf2+AggYMXHMsmS0hKwNAVv1VVXNRtttNF8p9OnTx9z+eWXm0UWWWTedwhYSXo94bIRsBIGTPGpEUDASg01FUEgEwQQsDLhJoyEAARSJICAlSJsqkqUAAJWonhjKzwtAatv375mwIABdvpg4+2iiy4ye+yxh1lrrbUQsGLzrMeCELA8wqfqWAkgYMWKk8IgkHkCCFiZdyEnAAEIxEwAAStmoBTnjQACljf0FVWcloA1ePBgc+SRR5rll19+PvvOOeccc/zxx5sOHTogYFXkvUB3RsAK1DGYVTEBBKyKkXEABHJNAAEr1+7l5CAAgSoIIGBVAY1DgiSAgBWkW+YzKi0Ba8aMGeb11183vXv3bmDDr7/+ahSdNWLECNOkSRMErGw0mwVbiYCVBy9yDiKAgEU7gAAECgkgYNEeIAABCDQkgIBFi8gLAQSsbHgyLQFLz4ESqrbaaivTvXt3s9hii5n33nvPqP4DDzzQbL311g2AkQMrG+2nqJUIWBl2HqY3IICARYOAAAQQsGgDEIAABEoTQMCideSFAAJWNjyZloAlGoq2UiTWoEGDjDSOHj16mH79+pkWLVrMBwsBKxvtBwErw37C9PIEELDKM2IPCNQTASKw6snbnCsEIBCFAAJWFErskwUCCFhZ8JKxEVDKPbXbbrtZg++44w6zyy67mMUXX9zrCSBgecVfW+VEYNXGj6PDIYCAFY4vsAQCIRBAwArBC9gAAQiERAABKyRvYEstBBCwaqGX3rEIWNFY33nnnWb06NHRdi6zV5Pffvvtt1hKCrQQBKxAHYNZFRNAwKoYGQdAINcEELBy7V5ODgIQqIIAAlYV0DgkSAIIWEG6ZT6jELCi+QkBKxonuxcCVgWw2DVoAghYQbsH4yCQOgEErNSRUyEEIBA4AQSswB2EeZEJIGBFRuV1RwSsaPgRsKJxQsCqgBO7hk8AASt8H2EhBNIkgICVJm3qggAEskAAASsLXsLGKAQQsKJQ8r8PAlY0HyBgReOEgFUBJ3YNnwACVvg+wkIIpEkAAStN2tQFAQhkgQACVha8hI1RCCBgRaHkf5/GAtb48ePNpptuajp27OjVuHHjxpmmTZua/fffv6wdp556qmnfvr1Ze+21y+5b7Q4IWBWQYwphBbDYNWgCCFhBuwfjIJA6AQSs1JFTIQQgEDgBBKzAHYR5kQkgYEVG5XXHxgLW9OnTzUsvvWSOOuoob3YpxbnqHzJkiF0hsdyGgFWOUMrfI2ClDJzqEiOAgJUYWgqGQCYJIGBl0m0YDQEIJEgAAStBuBSdKgEErFRxV11ZYwHrhx9+MGuttZZ55513TLNmzaout5YDf/rpJ3PSSSeZ6667LlIxCFiRMKW3EwJWeqypKVkCCFjJ8qV0CGSNAAJW1jyGvRCAQNIEELCSJkz5aRFAwEqLdG31NBawVNpNN91kWrRoYfbee+/aCq/y6Jtvvtm0adPG7LLLLpFKQMCKhCm9nRCw0mNNTckSQMBKli+lQyBrBBCwsuYx7IUABJImgICVNGHKT4sAAlZapGurp5iApRKPP/54c8YZZ5iVVlqptgoqPPrVV181EqSUi2uRRRaJdDQCViRM6e2EgJUea2pKlgACVrJ8KR0CWSOAgJU1j2EvBCCQNAEErKQJU35aBBCw0iJdWz2lBKyvvvrKHHLIIXYa37LLLltbJRGPfvPNN82gQYPM3/72N9O8efOIRxkreJHEPTKu5HdEwEqeMTWkQwABKx3O1AKBrBBAwMqKp7ATAhBIiwACVlqkqSdpAghYSROOp/xSApZK/+KLL8zFF19sE6n37t3bLLPMMvFU2qiUDz/80IwdO9bMmTPHnH766aZt27YV1YOAVRGu5HdGwEqeMTWkQwABKx3O1AKBrBBAwMqKp7ATAhBIiwACVlqkqSdpAghYSROOp/wFCViuhqefftr079/frL766mbDDTc0K664omnSpElNBvzyyy9GwtWMGTPM119/bS644AKz3nrrVVUmAlZV2JI7CAErObaUnC4BBKx0eVMbBEIngIAVuoewDwIQSJsAAlbaxKkvKQIIWEmRjbfcKAKWavz111+NdIlvv/3WaKXCWjcJYIsttphp1aqVWWqppcz/sXcmcFeM/f//VogsERJlyRLFQ/bCY993ZYssWSM8kciSJVEhIp6ICNllffTYiyzZ1+xEeSI9WdrzK/1fn+v3m/7H3Tn3mTNzZs515n5fr9f9ivuea5n3d86Zmfd8r2vq168fuUkEVmR0yVREYCXDlVbTJ4DASp85PULAZwIILJ+jw9ggAIFKEEBgVYI6fSZBAIGVBNXytxlWYJW/5/K1iMAqH8uytITAKgtGGvGAAALLgyAwBAh4RACB5VEwGAoEIOAFAQSWF2FgEGUggMAqA8QUmkBghYP8yCOP2PDhw8NtXGSregsXLlxYlpY8bQSB5WlgGFbJBBBYJSOjAgQyTQCBlenwsnMQgEAEAgisCNCo4iUBBJaXYVlsUAiscHFCYIXj5LZCYJUAi029JoDA8jo8DA4CqRNAYKWOnA4hAAHPCSCwPA8QwwtNAIEVGlVFN0RghcOPwArHCYFVAic29Z8AAsv/GDFCCKRJAIGVJm36ggAEqoEAAqsaosQYwxBAYIWhVPltEFjhYoDACscJgVUCJzb1nwACy/8YMUIIpEkAgZUmbfqCAASqgQACqxqixBjDEEBghaFU+W0ksGbOnGl77bVX5QcTcQR9+vSxzTff3Nq0aROxheLVEFjFGS3agimEJcBiU68JILC8Dg+Dg0DqBBBYqSOnQwhAwHMCCCzPA8TwQhNAYIVGVdENv/rqKxs4cKA1aNCgouOI0/m7775rxx9/vLVo0SJOM7XWRWCVgBaBVQIsNvWaAALL6/AwOAikTgCBlTpyOoQABDwngMDyPEAMLzQBBFZoVGwYk8B5551nG264oa222moxWypcHYFVAloEVgmw2NRrAggsr8PD4CCQOgEEVurI6RACEPCcAALL8wAxvNAEEFihUbFhTAIIrJgAy10dgVVuorRXKQIIrEqRp18I+EkAgeVnXBgVBCBQOQIIrMqxp+fyEkBglZcnrRUmgMDy7OhAYHkWEIYTmQACKzI6KkIgkwQQWJkMKzsFAQjEIIDAigGPql4RQGB5FY5MDwaB5Vl4EVieBYThRCaAwIqMjooQyCQBBFYmw8pOQQACMQggsGLAo6pXBBBYXoUj04NBYHkWXgSWZwFhOJEJILAio6MiBDJJAIGVybCyUxCAQAwCCKwY8KjqFQEEllfhyPRgEFiehReB5VlAGE5kAgisyOioCIFMEkBgZTKs7BQEIBCDAAIrBjyqekUAgeVVODI9GASWZ+FFYHkWEIYTmQACKzI6KkIgkwQQWJkMKzsFAQjEIIDAigGPql4RQGB5FY5MDwaB5Vl4EVieBYThRCaAwIqMjooQyCQBBFYmw8pOQQACMQggsGLAo6pXBBBYXoUj04NBYHkWXgSWZwFhOJEJILAio6MiBDJJAIGVybCyUxCAQAwCCKwY8KjqFQEEllfhyPRgEFiehReB5VlAGE5kAgisyOioCIFMEkBgZTKs7BQEIBCDAAIrBjyqekUAgeVVODI9GASWZ+FFYHkWEIYTmQACKzI6KkIgkwQQWJkMKzsFAQjEIIDAigGPql4RQGB5FY5MDwaB5Vl4EVieBYThRCaAwIqMjooQyCQBBFZ2wvrzzz/blClT3A5tsMEGtvTSSy+2c3/++aeNHz/e/b558+bWpEkTmz59un3//fcF68Ql9Msvv9jkyZNto402siWWWCJWczNnzrQJEybY+uuvb8sss0ystqJW1nn0888/t7XWWssaN24ctRnqeUwAgeVxcBhaSQQQWCXhYuMYBBBYMeAlURWBlQRV2qwEAQRWJajTJwT8JYDA8jc2pY6sb9++1rt3b1fthRdesN12222xJr744gsnklSGDRtmJ5xwgj3xxBN26KGH2rvvvmubbrrpovqSRQcffHCpw1hs+9tvv93OPPNMJ8maNm0aq73Ro0fbrrvu6sa6xRZbuLbGjRvnpFanTp1itR22sngdcsgh9sADD9jhhx8ethrbVREBBFYVBYuh1koAgcUBkhYBBFZapEP2g8AKCSqBzebMmWO6wdJT49rKSiutZFtuuWXZRqAn1Ir7TjvtFLtNXVh/8803tvPOO7unz++//7798ccftvXWW1v9+vVjt19KAwisUmhV37ZTp041XXjvvffetu222y62A8q0uP76622HHXZwN7cLFiywm2++2X799dfFtm3YsKHLMDjwwANtueWWqz4YjDgUAQRWKExVsZEE1qWXXurOl7169bJ+/fotNm7JpJNPPtn9PhBYH3zwgd1yyy128cUXW4sWLWzGjBkuO+vGG2+0448/Pva+l1NgKfPpuuuuc2PV95PO061bt7aLLrrIunfvHnusxRqYNGmSbbfddvbDDz/Ygw8+iMAqBqxK/47AKhw4fV9I4uq7Ye211/7LhvPmzXPfG7Nnz3ZSfOONN3Z/v+GGG0wZoldeeaWNGDHC3nnnHRs4cKA1aNAg1BGie4Grr77a/v73vzuBTQlPIKsCS8eErmd1X1Nb2WSTTaxjx46hgH3yySc2cuRIO/XUU61Zs2buvDJx4kS75557QtXP3Ujjq5klrM+Hrq2zWhBYnkUWgVW5gHz33XfuBDh37txFgwhkVq782WWXXdwT53KVY4891v7973+bhEDcEjwV//3332355Ze3/fbbz03zeP3111P/IkNgxY2m3/UlXnWy1sXiWWedtdhgdfOlm77g5lYitU2bNu5mTL/PLfrM/fjjj26KzHPPPbco28FvAoyuVAIIrFKJ+bu9zjVXXXWV7bXXXm6a4GeffbbYDeL+++9vSy65pD3++OOLBFbNPZLoXm211WzIkCGLCSydf5WZtXDhQmvUqJFrK1/Rhfr8+fNt2WWXtVyBtfLKK7v6urBfaqml8tYN+tADH/VRW9FN8YYbbujEXU2BFbSja4XaJLy+B/VTTNRrmwMOOMA+/fRT000hGVj+fhbijgyBVZjg8OHDrUuXLvbKK684oRQUXV+efvrpdtddd9lpp53m5EJwna4HuF9++aWbSizxde+995pu8MNOKZ42bZqtssoqTlxfccUVccNbp+pnVWDpwes222zjjiMVnW90b6X7rBVWWGFRjA866CD3oDZMuf/+++2oo44ySdrNNtvM2rZtax9++KE735VSrr32WpMM02dFRUL3H//4h2211VZOjmW1ILA8iywCq3IBUYaI+Od+ebRr185dNI8dO3bRwHQhrLU8ylXKKbA0zjFjxpg+2BonAqtcUaKdmgSiCixJKl2M5hZ99jQ1Ryf/7bffvqyCmMj5QwCB5U8s4o4kEFi64JbU0XS73CxinUvXWGMNd2GtvwcZWNrunHPOcRlFkta6CZX80rY6ryprWDeiEtm6gdSDJZUVV1zR/f9xxx3n/l83D3vssYc99NBDdsQRR9hPP/3k/i5ZpSmEmvbXo0cPl32h9bn69OnjboRzi7bRWCSJlJ1x9NFHOzkV3JC89dZbdtJJJ7mx6qGQpkDqxlhTE3WD++qrr7ptv/76a9en+qpXr5516NDBif3g6beuKXSDIkl3xhlnOCGlfy+55JKCYbjzzjvd2O644w73RB+BFfeI9bc+AqtwbPIJLMkrZVz961//snPPPddlWuXKKa2Dp2uKVVdd1X1u9YBMkjxsQWCFJbX4dlkVWPoO18OWoHz77bfuQauOP513gqL7xWIPQoJtdWzqge56663nzlFRBZaygjUWiVoVtamHxddccw0CK/qh7Go+8sgji8RgzKas3sJS1WTcHlOuj8BKGXiR7rR4q76QdIFdqOiQ1AlTF92aXlioyNzrC1BPhXNPtrkCSyddnTxl9WtbNFbTLnRSVluFpgZqXAgsv46nLI0mqsDSZ+Ttt99eDIWO/R133NE9gVLWBCV7BBBY2YlpILD0WVUmpp72KhtCAkdFmQuPPfaYe6AiaZ1vDSxlTOmiW9tqnSdNze/Zs6ebVnHMMce4NbE0hUfnuqeeesqJ7SeffNJlJulGSVMQNT1eEknnSz240bpbeuqs36lNZW1INGkqkdbs0jQNjVF9nHjiiW66vc6TOoffeuutbiqH+pCgyl0DS3JN+6CpSJoSranResqtY1pTn/Ww67DDDnNPvyWfZs2a5ca7zjrruIdiOk/rJkMiTtlXygzR+PKVN99803bffXd34azplZpGiMDKzmen5p4gsArHtqbAUralMr6VaXn55Zcv+jyrBWVBSorr85X7wgN9JnVdrc9S7vWyPvMfffSRmxa2+eabu8+8Sq7AktDW9Yq+53Q/0LJly7zXLnoAp360rl8psixrR3VWBVbNOOmhhV5eovOJzoX5ir73tayLtpXUUgZXbiawzhE6BnXO0X1mIYGl7K/33nvPnUd0DgkSKJQFpuNds4L+9re/uem0Ou419V3nTY2tc+fOfznude+o41mfFR2rcdeJrOTxSwZWJenn6RuB5VdAigksZTxdeOGFpgtOFa0H1L9/f2e/g6JpB9rmvvvuc0+F9IVx2WWXuafBOplKYI0aNcpdHHfr1s2lPeviW9Mz9PQ3+MJTm/qdLpi1Loe+vPRlphO5Tr4q+gJTOqmeKOvmoKbA0lPrYH62nl7pYjqpwhTCpMj60W65BZaOZ2Vf6eSrJ1OU7BFAYGUnprkCS+ep1157zWUg6eGLbjK1Lp7kkDKfCgksXUDnm0IoQaQHPhJPwQ2nMp90DtS5VG0GAksX/cqUCqYXButuaVqRxEBQ9P8SS3oYpRsATWPWhb+mNwZF50c9zVbmli7+ay7iXnMKoW4CJN10c6tMsyDjSjcsyjrTumC6yA4ElvZXY61tXRKx23PPPR0zCUDdbCCwsvO5ybcnCKzC8c0VWJLE+q6RzJX01mcrt+i6Qdfsym6UeAqKPkfKipSY0mdf1xqavqXrbX2/KPtSknzw4MEuw/O3335zMksZlxLiH3/8sbt21zWtYqXfB6L+xRdfdJmbkle6VtcYLrjgApddGXbKYpaObgTW/0ZTx5BEq44z3c/pe133frfddtuiF54Um0Ko400PXvRQR+ea4JhTZpXuG7VMh85/Ov/oONZDHEldPagJjkfdByqLWQJNnwN9NjQWHfP6HOhzot8Vmp7v87GJwPIsOggsvwJSm8DSha+eEusiXRe7WrNCF9c64b300kvOiOuEqYtPxVVySb/TBbae9OrLSydVfRFJbimNVPJLT28kqPSEWD/aRkVfgro5UJaKpl3oRHnKKae4C11dFOtvta2BpS9UPdXVWHTSzZVsSVBHYCVB1Z82A4GlN2PlW+hUT410IVdzDax8GVg6AWvdAF30aWpAkArtz94yknIQQGCVg6IfbeQKLK3hqGwiSZxWrVq5KQxaT1K/V3ZWqQJL5yqV4AGLbi6ffvppt4i5pmwMGDBgkcC66aab3I1oUII1sCS81lxzzUW/1wMbZUqpHbWr6Y5aTF7n8KDonCWppYt9nSNffvnlv7yFsKbAUraoHh7ppkTn8aBIWLVv397ddGhKZCCwdHNR27RBba9zu9as1GdFNx/K7EBg+XHMJzUKBFZhsoHAUjajPq+6CVf24tChQxebfRBWYOnaXdfVZ599tvvu0M28Miv13SFprsXiJbD0e8lsvYhCN/ua0qtx6DOt7zd9PygbVN99mkamaWCS+JJg+j7Qd1NdKwgsc9/3uo7VfaCOX0kmZT7pIYrOkcqmUiZfMYEleaVjSQkPOk9JYN19993uAY6mtu27775OTilxQsejjmEdt+pjn332cYJXa2ytu+669uyzz7qMZk111zEvuar7Sx3fOu5rTq+vhuMWgeVZlBBYfgWkkMCS3daFuS6Q9ZQ2eEqsC2D9Xl9Y+nLSCUwfMn15BOuD6MtNJ09dlCvzSl9QeutE7iKVepOgngTL4CujKhBYSjXVgn/BHGs94dWTKM3H1t8KCSxNvzjyyCPdm1n030p9TbogsJImXNn2A4GlbIJ8GQXBosY1BZZOuLmLXmo7pVLrmFbmgeRt7o1nZfeS3stJAIFVTpqVbStXYOm7XlPltBbVoEGDXJaCHtgoE1hyulSBpWkVukHVzaJElDKjNP1H3x16Gp0rsIIphbkCSw+UlMmZO6VfD3mUFabsDX3/KDu5UJGU0vY6J0vOa60sZTvXFFh6O5puCoIn4zXb082E6gQCSxlgtb1pUVls+g7UgzDdnKgo+0N1dK7XmDfaaKM6mdlR2aM92d4RWMUFloSwPpNaNkOZTjqXaApxbgkrsPRyCU1tDmY7qA3de2m6laYf6yGxPruafpy7XqfEg75DJBY0XVjX1PqdroVyr4EkujSdWtme1TxFK8pRj8Ayl1Ws85UeRigpITg/6Lyme0o9JJGA0rmotkXclXGoOhJSwUwciVSdn5ToELxMLMwaWDp3SLwG0xkVW117ayw6RwfrN0aJeaXqILAqRb5AvwgsvwJSSGDpxKS1N3QxrZNVbpGQCiy7UjOff/55t65PML++5h7qSY2+zHQTH3zR6QtQJz61pWwtFV10K+MqEFr6nQy6TqLff/+9WwQ3n8BSRliwBoBO2IXGUW7yCKxyE/WrvahTCHUC1g2aim7u9LpqrVmhRZslfynZJYDAyk5scwWWHuDoM61zkzIvJVnOP/98NzVB57JSBJZkjy6qJXN0k6ibSt1Q6iJbYlvn21yBpYdAetocFD1NljSX+Mp92Yra07pVOmcqs0l1lI2VW7dmdIpNIVR93Qxrmp/WACtUAoGlm9rcTK2a24ufuNUsutEQY53jdS1RzpfIZOeIrN49QWAVjl2QgaUpTnqZghZm16wHzVjQZ0FZT0EJK7B0DSxBrGyWfCVYA0s3yPquCYpu/vUyBmWLS9ZLaiuTRfcBuRJbS4vos65sLt0n1KWCwLJFLxbR+mqadZNblJml84ZeOqJzVyGBpSxmne+UNaw6ueXhhx92iQg61yqbuJjAUvaX7h+VRKF1H3OL7k+VQKF7yJpvB/f9uEVgeRYhBJZfASkksPTURU+EJGlqPn3VxarsuySW5sbrKbT+u9CbKYI1sBT7oOgLRydqpY1qeoKKvoA0fSJ3CoLSqXWRP3HixIICS9M4lEKqLzs9TVZmWBrznRFYfh3L5R5NVIFVcwqhnjApBVpZh88880ydu+Ard1x8bg+B5XN0ShtbTYGldSAlmiSPlEWpbAldWIcVWLqJ1zQGnSt10a91PDRVIii6GdCTZwksrQESrIGVT2B17drVZU3pZjMoar979+5ONummU8IpWKsm2CZYBkAX8ppqoSyN2jKwpk6d6rJANG5NbwqK1svRWj2ByAsrsHQToe/B3KLrB2Via4qSsrOUAZLG+bu0o4Gt4xBAYBWmFwgsSSNltKjo8y/Rq89E7ndEIYH16KOPurVfgzWw9PnRZ0pTrvKVQGDVXKA7V2BpOrO+pzTdWfcJNYu+Y/SdUFNgxDlOqqEuAsvclDxNOxULPXTILRJIWjJGf9PMnEICS9/7mhYoUausw3xF0+J1n1hMYGmhd41D5zXN1MlXlA2W7wUFPh9zCCzPooPA8isghQSWnvwovVOv79UXVc0iqaWnvJJLumDWxXfuW1F0gtTJVl8oWhBSkkkXw0EpJLD0pEcX9kEJI7A0BUHCTRdJmoag+f8SBkkXBFbShCvbfrkElvZCN7tauFmZWEpzLnSSrewe03tcAgisuAT9qV9TYOkBidZV1OLr+vzqc6xFZYsJLJ3rVl99dXdzqnOh1p1ROzp36pyl86Ye0AQvQpFY0vTE2gSWzsm6+NeTaq1no5sB3XCqLR2DymbSCyPUrrI6JLO0sK3Op1qnRNPyJeJqZmDpHK2bBbWlNxDq5kJZ0cq2UDsSTMqW0n8H7egmOKzAyhdd1sDy55hPaiQIrMJka76FUFvqO0XZJPpcKxNFnzuVQGBJYOszHJQ77rjDZZ4EAkvTr3T9rinAuUVrWik7S99f+leCLLedXIGlmQ96gYOyZCTRc99uqBkPuv7VurSF3hKe1LFU6XYRWOYexCqzV1m/Wr8wtwS/17R43YsVEliSTjq2dL+X+0KC4PjXcaXrZZViAiu4n9RU9NwHLaqrzGadn9RWoanwlT6mCvWPwPIsMggsvwJSSGDpy0dPVvbYY4+/LDitLwJN+9OXi6b+aXqUnvLoabAudoOiTCpdtOgtElpIMkmBpbFqUVgVjVmpq3rKK3OfZEFgJUm38m2XU2Bpb4YMGeJuYpUlcf3111d+BxlB2QkgsMqOtGIN1hRYGogElNZ50oMSCaDgYru2KYQSR1oz8quvvnKZUcpC0udf5049BNLvtI0eumhqjmSTzpe1CSz1rXOdjjetHaL1JrW4vB4mSaqp6HfKolbGl34n8ST5FiwQLZFWU2DpxlSvQtcSAmpXN9CawqG1cjRVP5jOpHZ046Jxah8QWBU7TKuiYwRW4TDlE1jB94quqfU51ANaSSmJLb39U+v9KAtGRZ89SQNluwQCS9foelGM/j94sByss6frD2VmFhNYakPTCPWdpDVog+8V9akHzZqeqPWzNJ66VBBY5t5YqeNRWX8SRoEY0kMeZULpYa2yp4ot4q7zih4E6cFJcHypbZ0D5Qp0rtS9ph746ByqzC4VTT/U7zT9VQ9SVLRWo6Yuqq3g5Sj6bCjDWAkWWl6mtrfj+ngMI7A8iwoCy6+AFBJY+uDrTQ46ucqO6ymsLnh18a6LZ01z0AW+bvJ1wauLb13Uqz2twaHpBUph1jaaQpiGwNKXk0Sa1hfRF6vGmmRBYCVJt/Jtl1tgKRVfN5SSuloPq+aTq8rvMSOISwCBFZegP/V106YfXYwHF+h6aqyMX2U3BC9q0Jp3ehuTMqI0tV7r3gUZzMpQUNGFuKHO1+oAACAASURBVLIw1Y5uNoNFmrUQu86rklHKdpBs0k2nLroltZQxoXVoctd11MW7ZJgyrLQGjdbC0k2DzntBfwFFiSZNfdQ2EmUao9oLpuhperMWt83dH92gKStKwkvndbWpmwod2xJa2gc9EVf/uU+0gzX+ak4pKRZRZZVojJtuuimZqcVgVenfEVilCyzVkBzQDbq+MzRNUDfzWh9L30vKnNJnTZ87/ei7JBBYgZjWGwS1aLu+Y5TVqc+wvoe0xlwxgSXRLXGm7C9NvVJGpjJmtLC2plArg1TLf9S16b4IrP89lnVcSSgpG1BCVefGq666yklWJRToXFhMYAUzbHR8K6tYD0O0XpVeIqCXnOiBkYrOjZJj6lPLzuhzoPVk9aNjXJ8RnUPUjtaB1INiLeWhDGV9hvSwSEkV1VYQWJ5FDIHlV0BktXUC0pPbmkUSS2nJSmHWiVFFZluL7g0bNsydFFW0SJ6+QHSRrot5XdjrAlzTDHShLvmlbSZMmLCoC6V8at2qTp06uROrir7wdJLUhzYo6ltPgiQTNA1DawNIiukiXimhWvxPxl0nVfWlMWss6ltprlpPI6mCwEqKrB/t6iZRN3Bak03HYM2iE7ZOljqB64mkjgdd7OmJp1Kn8xU9bdKFn6b96GlR7gKtfuw1o4hDAIEVhx51IQCBLBJAYBWOql5wpPWutEZPzQXRdT2rdWZ1c66pVpJKkuP6V9fAEshaB09CSRkoEk5BxpWunVVHwiVYt1ZvDVfWix6mSQroIXXuS5p0DS8Zcfnll7uHwCq6N9B2mo4cTBvUix0GDx5cdVOyyvHZqisCS8eC7uMkg3r06LEYOt3r6V5NEkrSSveRelOvPut6SKKiY1AZf8rG0kMP3W/q+NXxGBRJruClJXpoIvGkNReVKBHcY0pAaY049anMQj08UZLEiy++6B7MKBNQy9XomloJFxq72tL96iGHHOKSK6pRtCKwyvGJLWMbCKwywixDU/oyVpE8ylf0haEnyoqbvhD01Eapo7lfBvoy0lNU3dDrTYPaRrIpSNdUXT0J1tOboKgtZaJIQgUL+OkEqZNv7lpamtIQLCSrLzP1o5Ov2pKFV1q02tKc/uBpsKZO6PdaVD7JaYQIrDIcgB43oeNKolWpzcErfnOHG/xdx3kgorS9jsNg7n6+3dM2wZz8urZ+hMfhLsvQEFhlwUgjEIBAhgggsAoHUy9W0PVxMJ245pbB33XNHbwoSde4yp7UtYaucXVtLImgh8e5WZFqV5krut5Q1lUwTUv/r+1zr13Ur65ptGaQtsu9xtd9gK7j9a/GqWv0unrtUlcEVr7r25rHZnDvp/s+iSQdY7nHje6RdA+n62Edo1raRceuMoFzS+5xqmO4Ziax+tFxrExgSSn1of/W71QkvQLZpcxlJVxo/Gon936y2r5SEVieRQyB5VlAGE5kAgisyOioCIFMEkBgZTKs7BQEIBCDAAIrBjyqekWgrggsr6DX0cEgsDwLPALLs4AwnMgEEFiR0VERApkkgMDKZFjZKQhAIAYBBFYMeFT1igACy6twZHowCCzPwovA8iwgDCcyAQRWZHRUhEAmCSCwMhlWdgoCEIhBAIEVAx5VvSKAwPIqHJkeDALLs/AisDwLCMOJTACBFRkdFSGQSQIIrEyGlZ2CAARiEEBgxYBHVa8IILC8CkemB4PA8iy8CCzPAsJwIhNAYEVGR0UIZJIAAiuTYWWnIACBGAQQWDHgUdUrAggsr8KR6cEgsDwLLwLLs4AwnMgEEFiR0VERApkkgMDKZFjZKQhAIAYBBFYMeFT1igACy6twZHowCCzPwovA8iwgDCcyAQRWZHRUhEAmCSCwMhlWdgoCEIhBAIEVAx5VvSKAwPIqHJkeDALLs/AisDwLCMOJTACBFRkdFSGQSQIIrEyGlZ2CAARiEEBgxYBHVa8IILC8CkemB4PA8iy8CCzPAsJwIhNAYEVGR0UIZJIAAiuTYWWnIACBGAQQWDHgUdUrAggsr8KR6cEgsDwLLwLLs4AwnMgEEFiR0VERApkkgMDKZFjZKQhAIAYBBFYMeFT1igACy6twZHowCCzPwovA8iwgDCcyAQRWZHRUhEAmCSCwMhlWdgoCEIhBAIEVAx5VvSKAwPIqHJkeDALLs/AisDwLCMOJTACBFRkdFSGQSQIIrEyGlZ2CAARiEEBgxYBHVa8IILC8CkemB4PA8iy8CCzPAsJwIhNAYEVGR0UIZJIAAiuTYWWnIACBGAQQWDHgUdUrAggsr8KR6cEgsDwLLwLLs4AwnMgEEFiR0VERApkkgMDKZFjZKQhAIAYBBFYMeFT1igACy6twZHowCCzPwovA8iwgDCcyAQRWZHRUhEAmCSCwMhlWdgoCEIhBAIEVAx5VvSKAwPIqHJkeDALLs/AisDwLCMOJTACBFRkdFSGQSQIIrEyGlZ2CAARiEEBgxYBHVa8IILC8CkemB4PA8iy8CCzPAsJwIhNAYEVGR0UIZJIAAiuTYWWnIACBGAQQWDHgUdUrAggsr8KR6cEgsDwLLwLLs4AwnMgEEFiR0VERApkkgMDKZFjZKQhAIAYBBFYMeFT1igACy6twZHowCCzPwovA8iwgDCcyAQRWZHRUhEAmCSCwMhlWdgoCEIhBAIEVAx5VvSKAwPIqHJkeDALLs/AisDwLCMOJTACBFRkdFSGQSQIIrEyGlZ2CAARiEEBgxYBHVa8IILC8CkemB4PA8iy8CCzPAsJwIhNAYEVGR0UIZJIAAiuTYWWnIACBGAQQWDHgUdUrAggsr8KR6cEgsDwLLwLLs4AwnMgEEFiR0VERApkkgMDKZFjZKQhAIAYBBFYMeFT1igACy6twZHowCCzPwovA8iwgDCcyAQRWZHRUhEAmCSCwMhlWdgoCEIhBAIEVAx5VvSKAwPIqHJkeDALLs/AisDwLCMOJTACBFRkdFSGQSQIIrEyGlZ2CAARiEEBgxYBHVa8IILC8CkemB4PA8iy8CCzPAsJwIhNAYEVGR0UIZJIAAiuTYWWnIACBGAQQWDHgUdUrAggsr8KR6cEgsDwLLwLLs4AwnMgEEFiR0VERApkkgMDKZFjZKQhAIAYBBFYMeFT1igACy6twZHowCCzPwovA8iwgDCcyAQRWZHRUhEAmCSCwMhlWdgoCEIhBAIEVAx5VvSKAwPIqHJkeDALLs/AisDwLCMOJTACBFRkdFSGQSQIIrEyGlZ2CAARiEEBgxYBHVa8IILC8CkemB4PA8iy8CCzPAsJwIhNAYEVGR0UIZJIAAiuTYWWnIACBGAQQWDHgUdUrAggsr8KR6cEgsDwLLwLLs4AwnMgEEFiR0VERApkkgMDKZFjZKQhAIAYBBFYMeFT1igACy6twZHowCCzPwovA8iwgDCcyAQRWZHRUhEAmCSCwMhlWdgoCEIhBAIEVAx5VvSKAwPIqHJkeDALLs/AisDwLCMOJTACBFRkdFSGQSQIIrEyGlZ2CAARiEEBgxYBHVa8IILC8CkemB4PA8iy8CCzPAsJwIhNAYEVGR0UIZJIAAiuTYWWnIACBGAQQWDHgUdUrAggsr8KR6cEgsDwLLwLLs4AwnMgEEFiR0VERApkkgMDKZFjZKQhAIAYBBFYMeFT1igACy6twZHowCCzPwovA8iwgDCcyAQRWZHRUhEAmCSCwMhlWdgoCEIhBAIEVAx5VvSKAwPIqHJkeDALLs/AisDwLCMOJTACBFRkdFSGQSQIIrEyGlZ2CAARiEEBgxYBHVa8IILC8CkemB4PA8iy8CCzPAsJwIhNAYEVGR0UIZJIAAiuTYWWnIACBGAQQWDHgUdUrAggsr8KR6cEgsDwLLwLLs4AwnMgEEFiR0VERApkkgMDKZFjZKQhAIAYBBFYMeFT1igACy6twZHowCCzPwovA8iwgDCcyAQRWZHRUhEAmCSCwMhlWdgoCEIhBAIEVAx5VvSKAwPIqHJkeDALLs/AisDwLCMOJTACBFRkdFSGQSQIIrEyGlZ2CAARiEEBgxYBHVa8IILC8CkemB4PA8iy8CCzPAsJwIhNAYEVGR0UIZJIAAiuTYWWnIACBGAQQWDHgUdUrAggsr8KR6cEgsDwLLwLLs4AwnMgEEFiR0VERApkkgMDKZFjZKQhAIAYBBFYMeFT1igACy6twZHowCCzPwovA8iwgDCcyAQRWZHRUhEAmCSCwMhlWdgoCEIhBAIEVAx5VvSKAwPIqHJkeDALLs/AisDwLCMOJTACBFRkdFSGQSQIIrEyGlZ2CAARiEEBgxYBHVa8IILC8CkemB4PA8iy8CCzPAsJwIhNAYEVGR0UIZJIAAiuTYWWnIACBGAQQWDHgUdUrAggsr8KR6cEgsDwLLwLLs4AwnMgEEFiR0VERApkkgMDKZFjZKQhAIAYBBFYMeFT1igACy6twZHowCCzPwovA8iwgDCcyAQRWZHRUhEAmCSCwMhlWdgoCEIhBAIEVAx5VvSKAwPIqHJkeDALLs/AisDwLCMOJTACBFRkdFSGQSQIIrEyGlZ2CAARiEEBgxYBHVa8IILC8CkemB4PA8iy8CCzPAsJwIhNAYEVGR0UIZJIAAiuTYWWnIACBGAQQWDHgUdUrAggsr8KR6cEgsDwLLwLLs4AwnMgEEFiR0VERApkkgMDKZFjZKQhAIAYBBFYMeFT1igACy6twZHowCCzPwovA8iwgDCcyAQRWZHRUhEAmCSCwMhlWdgoCEIhBAIEVAx5VvSKAwPIqHJkeDALLs/AisDwLCMOJTACBFRkdFSGQSQIIrEyGlZ2CAARiEEBgxYBHVa8IILC8CkemB4PA8iy8CCzPAsJwIhNAYEVGR0UIZJIAAiuTYWWnIACBGAQQWDHgUdUrAsUE1rRp02zYsGG2+eabezVuXwaz+uqrW69evXwZjtfjQGB5Fh4ElmcBYTiRCSCwIqOjIgQySQCBlcmwslMQgEAMAgisGPCo6hWBYgJr6tSp9uWXXyJpCkStX79+1r9/f69i6utgEFieRQaB5VlAGE5kAgisyOioCIFMEkBgZTKs7BQEIBCDAAIrBjyqekUgjMD64YcfrHfv3l6N25fBXHLJJdanTx9fhuP1OBBYnoUHgeVZQBhOZAIIrMjoqAiBTBJAYGUyrOwUBCAQgwACKwY8qnpFAIEVLxwIrPD8EFjhWaWyJQIrFcx0kgIBBFYKkOkCAlVEAIFVRcFiqBCAQCoEEFipYKaTFAggsOJBRmCF54fACs8qlS0RWKlgppMUCCCwUoBMFxCoIgIIrCoKFkOFAARSIYDASgUznaRAAIEVDzICKzw/BFZ4VqlsicBKBTOdpEAAgZUCZLqAQBURQGBVUbAYKgQgkAoBBFYqmOkkBQIIrHiQEVjh+SGwwrNKZUsEViqY6SQFAgisFCDTBQSqiAACq4qCxVAhAIFUCCCwUsFMJykQqJTAWrBggY0bN87efPNNmzBhgs2ePbvse7tw4UJbeeWVbf3117cddtjB2rRpY/Xq1StrPwis8DgRWOFZpbIlAisVzHSSAgEEVgqQ6QICVUQAgVVFwWKoEIBAKgQQWKlgppMUCKQlsCSTfvrpJ/vwww/txRdftE8++cS2224723XXXZ1YWmmllcq+t+rzxx9/dH0+++yz9t1339lWW21lu+22m+uzcePGsftEYIVHiMAKzyqVLRFYqWCmkxQIILBSgEwXEKgiAgisKgoWQ4UABFIhgMBKBTOdpEAgLYF1/vnnO4F07rnn2oYbbmjLLbec1a9fP4U9/P9dzJ8/36ZPn25jx461QYMG2emnn26HHXZYrDEgsMLjQ2CFZ5XKlgisVDDTSQoEEFgpQKYLCFQRAQRWFQWLoUIAAqkQQGClgplOUiCQpMBSBtTIkSPtlVdesYMOOshlPvlSdL8zYsQI+/jjj61z5862xRZbRBoaAis8NgRWeFapbInASgUznaRAAIGVAmS6gEAVEUBgVVGwGCoEIJAKAQRWKpjpJAUCSQmsuXPnWp8+faxhw4Z28cUXW4MGDVLYm9K7UEZWp06d7KSTTnKSrdSsMARWeOYIrPCsUtkSgZUKZjpJgQACKwXIdAGBKiKAwKqiYDFUCEAgFQIIrFQw00kKBJIQWDNmzLCOHTvapZdeattvv30KexGvCy0oP2TIEJsyZYpdfvnlJUksBFZ49gis8KxS2RKBlQpmOkmBAAIrBch0AYEqIoDAqqJgMVQIQCAVAgisVDDTSQoEyi2wfv/9d+vbt6/Laoo6LS+F3c7bxbBhw9zbELU2VtiMMQRW+GghsMKzSmVLBFYqmOkkBQIIrBQg0wUEqogAAquKgsVQIQCBVAggsFLBTCcpECinwFImk8SVFmzfcsstUxh9+bu44oorbP3113f7EaYgsMJQ+t9tEFjhWaWyJQIrFcx0kgIBBFYKkOkCAlVEAIFVRcFiqBCAQCoEEFipYKaTFAiUU2Ddeeed1rhxY+vQoUMKI0+mCy08f84551jPnj1tjTXWKNoJAqsookUbILDCs0plSwRWKpjpJAUCCKwUINMFBKqIAAKrioLFUCEAgVQIILBSwUwnKRAol8D6+uuvrVu3bvavf/3LllxyyRRGnlwX33zzjZ177rl233332TLLLFNrR74KLN3PTZo0yeQotCbZrFmz3H5oauQKK6zgRGPz5s1t5ZVXTg5kjZYRWKmhDtcRAiscJ7bynwACy/8YMUIIpEkAgZUmbfqCAASqgQACqxqixBjDECiXwOrVq5dJ5jRq1ChMt95vM2rUKFtuueVsxx13rCqBNX/+fNNaXkOHDnUL6O+0007WqlUrl01Wr149033el19+aR9//LE9+OCD1qxZM7vwwgtts802SzwmCKzEEZfWAQKrNF5s7S8BBJa/sWFkEKgEAQRWJajTJwQg4DMBBJbP0WFspRAoh8AaP368jRw50gmsrJSZM2faiSeeaMOHD681C8uXDKwPPvjARowYYSuttJJtvfXW1q5dO5dpVaxIZr366qv2xRdfWIsWLey0006zJZZYoli1SH9HYEXCllwlBFZybGk5XQIIrHR50xsEfCeAwPI9QowPAhBImwACK23i9JcUgbgCS2tGSfRoyl2bNm2SGmZF2r3rrruczDn66KML9l9pgaW3Pj788MP28ssv26BBg2JNCXziiSdc9pYWst9kk01Cv4kxbHAQWGFJpbQdAisl0HSTOAEEVuKI6QACVUUAgVVV4WKwEIBACgQQWClApotUCMQVWNOmTXNT0G655RY3RS1L5Y8//nBi7sYbb/RSYE2ePNl69Ojhxti2bduyCKdff/3VbrvtNvvtt9/sqquuKms4EVhlxRm/MQRWfIa04AcBBJYfcWAUEPCFAALLl0gwDghAwBcCCCxfIsE44hKIK7A+++wzmzBhgu27775xh+Jl/b59+9rFF1/sncB68cUX7Z577nGSKczbEkuF+9BDD9k777xjvXv3tuWXX77U6nm3R2CVBWP5GkFglY8lLVWWAAKrsvzpHQK+EUBg+RYRxgMBCFSaAAKr0hGg/3IRiCuw7r33XrfmkhYKz2LRYuiHH364rbjiinl3rxJTCJ9++mk3bfCOO+6w+vXrJ4Zd62qpj4EDB5blzZIIrMRCFa1hBFY0btTyjwACy7+YMCIIVJIAAquS9OkbAhDwkQACy8eoMKYoBOIKrK5du9qVV14Za+2lKONOq47eRvjnn3/a/vvv74XA+vbbb01rc11wwQW29NJLJ45h9OjRboH+G264IfYURQRW4uEqrQMEVmm82NpfAggsf2PDyCBQCQIIrEpQp08IQMBnAggsn6PD2EohEFdg7bbbbibJ07Bhw1K6rZpt9YbFIUOG2E033VRxgTVlyhQ75phj3NsGmzZtmhrDBx980HR/qMXs46xzhsBKLWThOkJghePEVv4TQGD5HyNGCIE0CSCw0qRNXxCAQDUQQGBVQ5QYYxgCcQTWvHnzbKeddrJx48aF6aoqt5k4caKdddZZ9vjjj1dcYPXs2dN69eoVOttNmWNaXF+CUQu+q+itipryedppp7k3DYYpetNkp06dHIftttsuTJW82yCwIqNLpiICKxmutJo+AQRW+szpEQI+E0Bg+RwdxgYBCFSCAAKrEtTpMwkCcQTWjBkz7MADDzRNM8tq0Vv5dt99d3v33XcrKrAee+wxmzRpkpNItRXJpjFjxrhpf2uvvbZtu+221rJlS1t22WVd9pSk1k8//WTvv/++ff75526BdsmsFVZYodZ2JSsl0DSVMGoWFgLLs08JAsuzgDCcyAQQWJHRURECmSSAwMpkWNkpCEAgBgEEVgx4VPWKAAKr9nBI0iljSbInX0ljEffp06db586d7ZFHHrGlllqq4IB///13tz6WRNfll19ujRo1KnqsST5qeuRFF11kbdu2rXVR+Pvuu8/Uh9Y9iyKxEFhFw5HuBgisdHnTW3IEEFjJsaVlCFQjAQRWNUaNMUMAAkkSQGAlSZe20ySAwPJfYGkNqrXWWsvat29fcLB//PGHnXzyyXb++efbhhtuWNKC6zNnzrQrrrjCNt10U7fOVaEyf/58O+mkk+zaa6+1VVZZpeTDFIFVMrJkKyCwkuVL6+kRQGClx5qeIFANBBBY1RAlxggBCKRJAIGVJm36SpIAAstvgfXzzz/bKaecYg888EDBtw5OmzbNunfvbj169HBZVFFL//79rUmTJk6EFcqw0tTD9957z0488cSSu0FglYws2QoIrGT50np6BBBY6bGmJwhUAwEEVjVEiTFCAAJpEkBgpUmbvpIkgMDyW2BpEfb111/frcOVryxYsMBN/5PkWnfddWMfKmeffbaTU4UWeNdaWHvttZc988wzBYVaoUEgsGKHp7wNILDKy5PWKkcAgVU59vQMAR8JILB8jApjggAEKkkAgVVJ+vRdTgIILL8FlqTPgAEDCmZEac2rWbNmuYXYo6xLVXPvf/vtN+vSpYtpvatlllkmLxz1ufTSS9sRRxxR0qGIwCoJV/IbI7CSZ0wP6RBAYKXDmV4gUC0EEFjVEinGCQEIpEUAgZUWafpJmgACy1+BNWfOHPfWv169euUdpLKvzj33XLv++uvLepg899xz9tFHH7m28xWtt9W7d28n1kopCKxSaKWwLQIrBch0kQoBBFYqmOkEAlVDAIFVNaFioBCAQEoEEFgpgaabxAkgsPwVWFq8XVlQBx54YN5B6u2Bml649957l/046dmzp11zzTUF25XA0sLvpRQEVim0UtgWgZUCZLpIhQACKxXMdAKBqiGAwKqaUDFQCEAgJQIIrJRA003iBBBY/gqs3Xbbze655x5bY401Fhukpvrtt99+9tJLL1nDhg3LfpxojavJkyfbCSeckLdtZYbpjYWlvI0QgVX2MMVrEIEVjx+1/SGAwPInFowEAj4QQGD5EAXGAAEI+EQAgeVTNBhLHAIILD8F1u+//27777+/jR07Nu8AJa7kHw4//PA44S9Yd/r06bbzzjvba6+9lnctrOeff94mTpxY0tsIEViJhCp6owis6Oyo6RcBBJZf8WA0EKg0AQRWpSNA/xCAgG8EEFi+RYTxRCWAwPJTYH377bc2dOhQ69+/f94BXnvttXb66adbo0aNooa+aL1+/fq5LK9NN910sW2/+uor69u3r2lB97AFgRWWVErbIbBSAk03iRNAYCWOmA4gUFUEEFhVFS4GCwEIpEAAgZUCZLpIhQACy0+BpUXU33zzTTv55JPzDrB79+5ujaoll1wyseNEY5g0aZKTWDWLpjBqiuO7774bun8EVmhU6WyIwEqHM70kTwCBlTxjeoBANRFAYFVTtBgrBCCQBgEEVhqU6SMNAggsPwXW6NGjrUmTJrbZZpstNkC9ffCoo44yLfKeZNFbEO+++2479dRT83ajzKxx48aFzgJDYCUZrQhtI7AiQKOKlwQQWF6GhUFBoGIEEFgVQ0/HEICApwQQWJ4GhmGVTACB5afAevbZZ61Nmza25pprLjZArY+lDKw777yz5HiXUmHu3LluGuNZZ52Vt9ouu+xijz/+uDVu3DhUswisUJjS2wiBlR5rekqWAAIrWb60DoFqI4DAqraIMV4IQCBpAgispAnTfloEEFjVJ7C+/PJLGzZsmA0YMCDRw2TevHk2cOBAu/DCC/P2s9dee9mIESNs1VVXDTUOBFYoTOlthMBKjzU9JUsAgZUsX1qHQLURQGBVW8QYLwQgkDQBBFbShGk/LQIILD8F1jPPPGMbb7xx3gys8ePH2/333+8WUU+ySGBpna2LL744bzcHH3yw3Xzzzda8efNQw0BghcKU3kYIrPRY01OyBBBYyfKldQhUGwEEVrVFjPFCAAJJE0BgJU2Y9tMigMCqPoGlmOnthIMHD070MNEUQvXRs2fPvP1ss802JtGmtbrCFARWGEopboPAShE2XSVKAIGVKF4ah0DVEUBgVV3IGDAEIJAwAQRWwoBpPjUCCCw/BZbWwGrVqpW1bNlysQHOmjXLunbtavfcc0+ix4kWcb/99tvtzDPPzNtP27ZtbcyYMbbiiiuGGgcCKxSm9DZCYKXHmp6SJYDASpYvrUOg2gggsKotYowXAhBImgACK2nCtJ8WAQSWnwLrpZdeshkzZthBBx2Ud4DHHnusDR8+3OrXr5/YoTJ9+nR78sknrXPnzov1MX/+fFtrrbVs0qRJ1qBBg1BjQGCFwpTeRgis9FjTU7IEEFjJ8qV1CFQbAQRWtUWM8UIAAkkTQGAlTZj20yKAwPJXYL3yyit22WWX5R2gfn/BBRdYw4YNEztURo4cac2aNbPtt99+sT503Oy444721VdfhZZoCKzEQhWtYQRWNG7U8o8AAsu/mDAiCFSSAAKrkvTpGwIQ8JEAAsvHqDCmKAQQWH4KLE3Nu+6661wGVL5y11132d57722rrbZalLAXrbNw4ULr2LGj3XjjjdaiRYvFjSnWrgAAIABJREFUtn/nnXesQ4cO9t133yGwitL0dAMElqeBYVglE0BglYyMChDINAEEVqbDy85BAAIRCCCwIkCjipcEEFh+CqxXX33VDjnkEFN8llpqqcUG+fnnn9uQIUPshhtuSOS4UmaVMrwefvhhq1ev3mJ93HvvvdajRw+bPHkyAiuRCKTQKAIrBch0kQoBBFYqmOkEAlVDAIFVNaFioBCAQEoEEFgpgaabxAkgsPwUWK+99poNGjTINO1u6623XmyQWoNq3333taFDh9o666xT9uPkpptusj333NMtJJ+vXHHFFU6g/fDDDwisstNPqUEEVkqg6SZxAgisxBHTAQSqigACq6rCxWAhAIEUCCCwUoBMF6kQQGD5K7AmTJhgeuPgqaeemneQU6ZMsREjRrhMqHKWefPm2dlnn236nitUzj//fPcWRARWOcmn3BYCK2XgdJcYAQRWYmhpGAJVSQCBVZVhY9AQgECCBBBYCcKl6VQJILD8FVjKsnrxxRetT58+BQcp0SSZpMXWy1G09lW3bt3smGOOsfbt2+dt8osvvrDHHnvMrY+FwCoH9Qq1gcCqEHi6LTsBBFbZkdIgBKqaAAKrqsPH4CEAgQQIILASgEqTFSGAwPJbYD333HMuw6pJkyZ5B/rZZ59Z//797ZZbbrFlllkm9jE0btw4e+GFF+ziiy/O25YE14knnujGtMceeyCwYhOvYAMIrArCp+uyEkBglRUnjUGg6gkgsKo+hOwABCBQZgIIrDIDpbmKEUBg+S2wllhiCfcmwgEDBhQcqK7TtOh7z549Yx1HkyZNssMOO8xGjx5dUIZNnTrVLrroIrf21hprrIHAikW8wpURWBUOAN2XjQACq2woaQgCmSCAwMpEGNkJCECgjAQQWGWESVMVJYDA8ltg7bDDDnbSSSc5gdW0adO8g12wYIENHjzYtHaVphNGKd98840NHDjQLrnkklqnI9533322wQYbuIXlEVhRSHtUB4HlUTAYSiwCCKxY+KgMgcwRQGBlLqTsEAQgEJMAAismQKp7QwCB5bfA2mmnnWz8+PEuw6rQYu7BHkguvf7663bBBRdY8+bNQx1jWmdLUwb1naasqtrW0vr555/d9MFHHnnEGjZsiMAKRdjjjRBYHgeHoZVEAIFVEi42hkDmCSCwMh9idhACECiRAAKrRGBs7i0BBJb/AksZVkcccYT169fPZT8VKlqfSvE8/fTTbc8997SuXbuapiAWKlo/67zzzrP999/funTpYksttVStMHr16mUnnHCCtWrVym1HBpa3H+twA0NghePEVv4TQGD5HyNGCIE0CSCw0qRNXxCAQDUQQGBVQ5QYYxgCCCz/BZZGOHnyZLdYu978V6xoKqGyqsaOHesEVpAtJUElZ/Hbb7+Z7vdWW201O+igg2ydddYp1qTL7FIWmIRXUBBYRbH5vQECy+/4MLrwBBBY4VmxJQTqAgEEVl2IMvsIAQiUQgCBVQottvWZAAKrOgSWRjly5EibMmWKy6yqX79+6MNK93YfffSRzZkzx1q2bBl6emHQgaYO7rPPPk6INWrUCIEVmrznGyKwPA8QwwtNAIEVGhUbQqBOEEBg1Ykws5MQgEAJBBBYJcBiU68JVIvAmjVrllt76YMPPnAZRVobao899qh1ilw5wM+YMcMtWP7555/nbU6Lnvfp06ccXf2ljddee820PpX2Myi6R+vdu7eb8qfF3dMoGsNZZ53lMq9qZmqRgZVGBBLsA4GVIFyaTpUAAitV3HQGAe8JILC8DxEDhAAEUiaAwEoZON0lRsB3gfXHH3+4zKOXX37Zdt11V9tkk01Mv5Pg+fTTT61Tp062/fbbW7169RJh5JPA0g7qPk1C6fjjj7dtt902kX0OGhVniau99trLZWDVLAisRPEn3zgCK3nG9JAOAQRWOpzpBQLVQgCBVS2RYpwQgEBaBBBYaZGmn6QJ+C6wbrvtNlthhRXcIub5yhlnnGE9evRwU+OSKL4JLO2jFms/6qij7Nprry15OmBYRpJXBx98sCnDrF27dnmrIbDC0vR0OwSWp4FhWCUTQGCVjIwKEMg0AQRWpsPLzkEAAhEIILAiQKOKlwR8Flhat+mWW26xwYMHW4MGDfLy+/XXX23vvfe20aNH/2V9pnLB9lFgad+03zfccIOtuOKK1r1793LtrmtnwoQJ7o2HJ510km2zzTYF20ZglRV7+o0hsNJnTo/JEEBgJcOVViFQrQQQWNUaOcYNAQgkRQCBlRRZ2k2bgM8CS1PlevbsaWuuuWatWCS51l13Xdtzzz3Ljs9XgRXs6J133unWBZPEipuFpkXex4wZY/fcc48NGDCgKHcEVtkPt3QbRGCly5vekiOAwEqOLS1DoBoJILCqMWqMGQIQSJIAAitJurSdJgFfBZamyZ1++uk2ZMiQojg03e3WW2+1M888s+i2pW7gu8DS/kyePNkJrObNm9vVV19tSy65ZKm7aa+//rpbIP6UU06xDh06hGoDgVUyZr8qILD8igejiU4AgRWdHTUhkEUCCKwsRpV9ggAE4hBAYMWhR12fCPgssCSkbrrppqK4JLs0na7cU+nUcTUIrADQuHHjbNSoUTZ79mz729/+ZltssYVttNFGeWXUtGnT7P3337e33nrLTUfUdgcccIA1bdq0KO9gAwRWaFR+bojA8jMujKp0Agis0plRAwJZJoDAynJ02TcIQCAKAQRWFGrU8ZGArwJLrLp06eIysJZeeula0b355ptu3aYjjzyy7IjLJbBGjBjhpvrVr18/1BinTp3qxNIqq6wSavvcjf7880+bMmWKqY1ffvnFNtxwQ5edpTc1zp0718aPH2/Tp0+31Vdf3f0st9xyJfehCnozpBZ6D/sGyFdeecW9PbFFixaR+gtT6ZFHHrHhw4eH2bToNvUWSo1muCCwMhzcOrZrCKw6FnB2FwJFCCCwOEQgAAEI/JUAAosjIisEfBZYI0eOtO+//97OOeecgrgla9q3b29PPPGENWvWrOxhKZfAkujRWwOXX375so+xtgbFZ968eTZ//ny3mWTTUkst5X7SLhdffLG1atXKWrdunVjXCKwS0CKwSoDFpl4TQGB5HR4GB4HUCSCwUkdOhxCAgOcEEFieB4jhhSbgs8CSfNG0wGOPPda22mqrxfZJ+TFacFySqVu3bqH3uZQNyyWwOnbs6DKD0hZYpexr0tueffbZpmmHCKykSYdsH4EVEhSbeU8AgeV9iBggBFIlgMBKFTedQQACVUAAgVUFQWKIoQj4LLC0A1rPSYuKH3PMMXbIIYe49ZwkrjQV7pJLLnFT7C666KLQ09hCQcnZCIFVKrHC2yOwyseyLC0hsMqCkUY8IIDA8iAIDAECHhFAYHkUDIYCAQh4QQCB5UUYGEQZCPgusLSLCxYssDFjxpiuR7T4uKbBtWzZ0rbffnu3UHmSBYFVProIrPKxLEtLCKyyYKQRDwggsDwIAkOAgEcEEFgeBYOhQAACXhBAYHkRBgZRBgLVILDKsJuRm0BgRUa3WEUEVvlYlqUlBFZZMNKIBwQQWB4EgSFAwCMCCCyPgsFQIAABLwggsLwIA4MoAwEEVu0QEVhlOMj+rwkEVvlYlqUlBFZZMNKIBwQQWB4EgSFAwCMCCCyPgsFQIAABLwggsLwIA4MoAwEEFgKrDIdRqCYQWKEwpbcRAis91vSULAEEVrJ8aR0C1UYAgVVtEWO8EIBA0gQQWEkTpv20CCCwEFhpHWsIrLRIh+wHgRUSFJt5TwCB5X2IGCAEUiWAwEoVN51BAAJVQACBVQVBYoihCMQVWBtvvLGdf/75ofqqxo1mzpxpgwYNsh9//DHv8PUmxD59+hTdtY4dO9rw4cNt+eWXL7ptVjdAYHkWWQSWZwFhOJEJILAio6MiBDJJAIGVybCyUxCAQAwCCKwY8KjqFYE4Aks78vrrr9vs2bO92qdyD6Z58+bWunVrBFZMsAismADLXR2BVW6itFcpAgisSpGnXwj4SQCB5WdcGBUEIFA5AgisyrGn5/ISiCuwyjua6muNDKzwMUNghWeVypYIrFQw00kKBBBYKUCmCwhUEQEEVhUFi6FCAAKpEEBgpYKZTlIggMCKBxmBFZ4fAis8q1S2RGClgplOUiCAwEoBMl1AoIoIILCqKFgMFQIQSIUAAisVzHSSAgEEVjzICKzw/BBY4VmlsiUCKxXMdJICAQRWCpDpAgJVRACBVUXBYqgQgEAqBBBYqWCmkxQIILDiQUZgheeHwArPKpUtEVipYKaTFAggsFKATBcQqCICCKwqChZDhQAEUiGAwEoFM52kQACBFQ8yAis8PwRWeFapbInASgUznaRAAIGVAmS6gEAVEUBgVVGwGCoEIJAKAQRWKpjpJAUCYQSW3jR43HHHpTCa6uvi0Ucfteuuu67owDt27GinnHKKLbvsskW3zeoGgwcPtm222cY23HDDxHbxkUceseHDh5el/XoLFy5cWJaWPG0EgeVpYBhWyQQQWCUjowIEMk0AgZXp8LJzEIBABAIIrAjQqOIlgWIC69dff7WPPvrITjjhBC/HX+lBLb/88taiRYuiw/jpp5/sl19+sXr16hXdNqsbDBw40Nq1a2fNmjVLbBcRWCWgRWCVAItNvSaAwPI6PAwOAqkTQGCljpwOIQABzwkgsDwPEMMLTaCYwPrtt9/sxx9/tJ49e4Zukw0hkI/Aeeed57KvVltttcQAIbBKQJuGwBozZoz9/vvvttRSS5UwMjaFQGkE/vzzTxs7dqz17t271oqvvPJKaQ2zdeYJSH7Wr1/flllmmbz7qmPryCOPtK222irzLCq5gy+//LI99thjBc8VEydOtFVXXdUaNGgQaphTp051Txd33XXXvNtPmzbN7r77bttoo41CtRdlowkTJthaa61V8NjSE83zzz/fmjRpEqV56oQgsGDBAuvfv7+7DslXlGj/1ltv2eabbx6iNT820XGjz8N6661XcEB6un7hhReG/rz4sWfVNQplJVx99dWmc0S+Mm/ePJs9e7ZXU28mT55su+++u6299tp5xzxu3Dj7+OOPF2Vm6POhfVhppZUKfn72339/22mnnaoreFU2Wj2QeeCBB6xhw4YFz2f6W12615ozZ477Dtxss83yMtF3/ogRI2zdddetsmgzXN8IfPjhh3biiSe6a9CkCgKrBLJJC6yll17aZsyYYdOnT6/TqYclhIRNYxCQiFhyySVjtEDVukhgypQp1qpVK9t6663z7v4PP/xg7733nnXt2rUu4kltn/WEa5dddil4Mao1GCSDlMYdpuimcsUVV7Qlllii4I3X3LlzTRfBSRWlnd944422wQYb5O1Cwm6PPfZwxx8lGQK6+T788MNt6NCheTvQ33VD36dPn2QGkECruq66/vrrrbYHMl26dDGtcVKX1y1JAP1fmvz666/thRdesAMPPDBvV/p79+7d3Y8vRd+HkpuFpgPNnz/flLmihzoqf/zxh7399tt26aWX5t2FmTNn2qhRo7zaR19Yl3McV155pW288cZuHZ58RWv0fP7553bIIYeUs1uv29IxvMIKKxSU9JKvOpYzvhqQ1zHKyuB0rDVt2tT0/ZjU8YTAKuFoSVJg6SmAnnzqhwIBCEDAVwJKMW/Tpo1tv/32eYeoTIdnn33WTj75ZF93IRPjUiZSp06drG3btnn354gjjrA111zTdt5556rZX9306Qlw69at8475wQcfdJk/CKzkQipBJZkj1vnKrFmznDQdNGhQcoMoc8vKLOjbt6999tlnBVvu0KGD3XPPPQisMrPPbU6CSk/mtchxvvLFF19Y586dC8qfBIdWtqaVRfbmm2+6TLN8RTL1rrvusjPOOKNsfdLQ4gSuuuoq22233WzbbbfNi0fx0YM2HW8UCEAgGQJKzFGyRBJuA4FVQsySElhKY9VJjwIBCEDAdwIILD8ihMDyIw5ZGwUCq+6+OSrpYxmBZW6WBQIr6SPNDIGVPGN6gEAYApJYyt4vd0FglUA0CYGlwCrFTj8UCEAAAr4TQGD5ESEElh9xyNooEFgIrKSOaQQWAiupY6tmuwistEjTDwSKE1CijjKxCq1/WLyFxbdAYJVArdwCi2mDJcBnUwhAwAsCCCwvwuAWM2cKoR+xyNIoEFgIrKSOZwQWAiupYwuBlRZZ+oFANAJ68ZNmm5VLYiGwSohDOQWWMq8UyKQWNytht9gUAhCAQGgCCKzQqBLdEIGVKN462zgCC4GV1MGPwEJgJXVsIbDSIks/EIhOoJxLJiGwSohDuQSWLKRS6Zg2WAJ8NoUABLwggMDyIgxkYPkRhsyNAoGFwErqoEZgIbCSOrYQWGmRpR8IxCMgiSX/EXdhdwRWCXEoh8Bi2mAJwNkUAhDwjkAxgfXdd9+ZXmG9yy675B270of1lrktt9zSu33zaUBjx461SZMmFRzSvffea3369CnIMYtvIdRb4qZOnWrNmjXLy0Wvst9nn32scePGPoXSq7Ho4dnjjz/uHqLlK8oM1yLTY8aMyfv3rL6F8O9//7udcMIJpovrfGWJJZawQw45xJZcckmv4unTYPS2x1GjRhWcWTBlyhT32dXU53ylLryFcPr06da9e3fbfffd8zLQrIz111+/4NvzfIp3Jcfy9ttv21dffVVwCI8++qj16NHD2rdvn3cb3kJYyejRd10noFlof/zxR6zphAisEo6iuAKrUaNGbtpgXOtYwpDZFAIQgEBZCRQTWN9//727AT7qqKPy9vvLL7/YsGHD7NZbby3ruLLW2I477mi33367ScrkK1qkVq9i32KLLfL+PYsCS9KuadOm1rJly7z7/Mknn9iaa66JHK3lw6DrmH79+tlpp52WdytlYF100UX21FNP1SmBJfE5YMAA03VavnLTTTc5LquuumrWvmrKtj/vvvuu6ft/0003zdvmxIkTTRKrrgusa6+91o499tiCn7/bbrvNBg8eXLa4ZLEhnd/0oKxQET8dZ+3atUNgZfEAYJ+qnoASevQgLepSSgisEg6BOAJL0waVMlfoqWcJw2BTCEAAAhUjUExg6Sbl2WeftZNPPjnvGPU9eumll9rNN99csX2oho4lsJQFU0hg9ezZ044++mhr27ZtnRFYDz74oG2++ebWqlWrvPusG2gVsvsKH+H6/A0dOtQuvPDCgoJKmUhina9kNQOrQ4cOpgy/ZZfNP4XwiiuusK5duyKwavny1OdPGbZbb7113q2++eYbe++99+ywww7L+/e6kIE1Y8YM94BHDx8Kfb4uueQSGzhwYDWcpio2RgmsQt9RGlTfvn1tr732KngskoFVsdDRMQQWEVAmlrxIlMQeBFYJB1JUgcWC7SVAZlMIQMBrAgisdMKDwFqcMwIr/rGHwMrPEIEV/9hCYJmbZfHmm2+aBEm+gsCKf5ypBQRWeTjSCgQqTSCqI0FglRC5KAJLT/M0z5PMqxJAsykEIOAtgbgCS1NIjjnmGNtvv/283UcfBnbjjTe6NT7IwPr/0SgmsN555x174IEH3DRCSn4CyqDSZ7jQFCX9nQysxdlpymWLFi1sueWW49AqQEBr9im7atttt827BRlYxRdxnzlzpnXu3LngGpIcfP9LYPjw4fb+++8XxEEGFkcKBKqHgKYTapaaMnjDFgRWWFJmVqrAklVUWhzyqgTIbAoBCHhNIK7A+vnnn61bt252+umne72flR6cFvrVBToCK7zAUgaIJFahKYaVjqkP/WsRaWWIaA21fAWBlX8Koabsbr/99rwgoJaD+Msvv3RTfLfZZhsEVowMLJ0bjz/+eB++Lrwdg15gMnr0aASWtxFiYBAojUCpC7sjsErgW4rA0kKgc+fOLckmljAUNoUABCBQEQJxBRZrYIULG1MIF+dULAOLNbCKH1tMIczPiCmExY+dYlswhZAphMWOkXL9nSmE5SJJOxDwh4DeAqxp2GEKAisMpf/bJqzA0rRBZV1p6iAFAhCAQJYIILDSiSYCC4GVxJGGwEJgJXFcqU0EFgIrqWOrZrsIrLRI0w8E0iUgiSWHUmw6IQKrhLiEEVhKgdM8Tv1QIAABCGSNQDGB9d1331m/fv3sgAMOyLvrv/32m73xxhu8hbDIgbHnnnu6N1UVmkKotzjqNeJbbLFF3pZ0ga+1oHbeeeeqOQT1dsoRI0ZY69at845Zb++aPXt2wTWuvv76a5P4K8SkakAkONBffvnFzjnnHDv00EPz9jJnzhwbMmSIvfTSS3n/ntW3EOq4OfPMM01vjM5XlP03aNAgW3nllROMTnU3rTcM6s2phabw/uc//3FvedQaT/lKXXgLoabwavpux44dC37+Ro4caTfccEN1HwwJj17nt3PPPbdgL3fccYcdd9xx1q5du7zb8BbChANE8xCIQSDMdEIEVgmAiwksLe6paYPIqxKgsikEIFBVBIoJrO+//97uu+8+O/LII/Pu18KFC906MtwI1h52LXYvWVOoDBgwwE455ZQ6JbB0XDVr1sxatmxZkEvz5s1NC4JS8hPQU00ttl3o6aYE1gUXXGBPPPFEnRJYeqmEbmq1/EO+IpEsIVxIKHO8mZt1IElVqOjcMHXqVLfQe10WWDrOJGAKFZ0b11hjDQ6pWgj88MMP9uuvvxbc4vbbb3fXIO3bt0dgcSRBoAoJ6DqutplsCKwSglqbwGLaYAkg2RQCEKhaAsUE1sSJE+3ZZ5+1k08+uWr3sRoGfv7551unTp2sbdu2eYebxQysYmtgVUPcfB+jpGmXLl1MrPOVrGZgFVsDy/e4VcP4lCH54YcfFsw+qgsZWDNmzDBlkiq7lpIcAWW57bbbbgXfiEkGVnLsaRkC5SKg6YRKCtIL8WoWBFYJlAsJLKWcyxLmA1xC82wKAQhAwHsCCCw/QoTA8iMOWRsFAiv/WwizFudK7A8CywyBlc6Rh8BKhzO9QCBpAppOqIXdNXsjtyCwSiCfT2Atv/zyDiwLtpcAkk0hAIGqJYDA8iN0CCw/4pC1USCwEFhJHdMILARWUsdWzXYRWGmRph8IJE9A0wm1sHuuxEJglcC9psDSWglKbUNelQCRTSEAgaomgMDyI3wILD/ikLVRILAQWEkd0wgsBFZSxxYCKy2y9AOByhCoubA7AquEOOQKLC3Yrgu9Yq95LKF5NoUABCDgPQEElh8hQmD5EYesjQKBhcBK6phGYCGwkjq2EFhpkaUfCFSOgNbE0qw3FQRWCXEIBJYW/xPAAGIJTbApBCAAgaomgMDyI3wILD/ikLVRILAQWEkd0wgsBFZSxxYCKy2y9AOByhLQdELNfnvooYds+PDhZRlMvYU1V9gqS7P+NDJt2jTbe++97dRTT2XaoD9hYSQQgECKBPQa9NVXX9023XTTvL3+9NNP9vPPP9spp5yS4qjqXlcXXHCBtWrVylq3bp1353v37m1rrbWWbbnlllUDZ+jQoSYx17Jly7xjfu6559ybFzfYYIOq2adqG6gE1mGHHWY6fvKVOXPm2LHHHms6/qql6M2JN998sz3wwAMFh3zppZfaY489ZloagpIMgW+++ca93XLXXXfN24HeYNu3b1/r2rVrMgNIoVUtKfLRRx/ZOeeck7e3mTNn2htvvGFnn312CqOpu11oDawWLVrYFltskRfCHXfcYXrr5X777Vd3IbHnEKhSAsrEGjt2LAIrbPw0XVAXQGRehSXGdhCAQNYI6HuwQYMGtsQSSxTcNYmVlVZaKWu77tX+SCQqo6F+/foFRUNtMfJqZ3IGozHXq1cv7/D0+7Zt25qewFGSIaDnkOPHjzdJn0JFTz+r7Xnl3LlzTS/dKVSWXXZZ23jjjQsee8nQrlutSu58+OGHBZfe0LlFC/UW+k6rBlraB30vN27cuOBwN998c1t33XWrYXeqdoySoRKFhc6B06dPNy0Fo4dxFAhAoPoINGvWzPbZZ5+yDDzzGVhloUQjEIAABCAAAQhAAAIQgAAEIAABCEAAAhUjgMCqGHo6hgAEIAABCEAAAhCAAAQgAAEIQAACEAhDAIEVhhLbQAACEIAABCAAAQhAAAIQgAAEIAABCFSMAAKrYujpGAIQgAAEIAABCEAAAhCAAAQgAAEIQCAMAQRWGEpsAwEIQAACEIAABCAAAQhAAAIQgAAEIFAxAgisiqGnYwhAAAIQgAAEIAABCEAAAhCAAAQgAIEwBBBYYSixDQQgAAEIQAACEIAABCAAAQhAAAIQgEDFCCCwKoaejiEAAQhAAAIQgAAEIAABCEAAAhCAAATCEEBghaHENhCAAAQgAAEIQAACEIAABCAAAQhAAAIVI4DAqhh6OoYABCAAAQhAAAIQgAAEIAABCEAAAhAIQwCBFYYS20AAAhCAAAQgAAEIQAACEIAABCAAAQhUjAACq2Lo6RgCEIAABCAAAQhAAAIQgAAEIAABCEAgDAEEVhhKbAMBCEAAAhCAAAQgAAEIQMDMFixY4DjUr1/f6tWr9xcmCxcutD///NP9Xn8vpaje7Nmz7X/+539sySWXtEaNGpXcRin9BdvOmjXLNO7lllsuSnXqQAACEEiNAAIrNdR0BAEIQAACEIAABCAAAQhUMwFJpuOOO85++OEHO/TQQ61bt25/2Z0xY8bY5Zdfbq1bt7Z//vOfoXd1/vz51rVrV3v++eftjz/+cALrwAMPtOuuu86WWmqpou3MnTvXRo0aZX//+99t1VVXLbp97gZHH320k2YPPfRQSfXYGAIQgEDaBBBYaROnPwhAAAIQgAAEIAABCECgKglIYG200UY2adIkW2WVVezzzz+3ZZdddtG+7Lvvvvb666+7bcaNGxd6H5944gk79thjTf/utNNONnr0aOvQoYNJiLVt27ZoOz/99JO1adPGHn/8cdtxxx2Lbp+7QceOHZ00e+qpp0qqx8YQgAAE0iaAwEqbOP1BAAIQgAAEIAABCEAAAlVJIBC5DOmVAAAeQklEQVRY66yzjr3yyiv22muv2ZZbbun25auvvrJ27dpZ+/bt7b///e9iAuuXX36x3377zdZaay1bYokl/rL/Bx10kJsyeP/997vfq+0jjzzSzjzzTLvgggsWbav+v//+e1e/RYsWi6YwFhNYv/76q+mnefPm1rBhw7/0nSuwNG5lc2m7mtMjqzJgDBoCEMgUAQRWpsLJzkAAAhCAAAQgAAEIQAACSREIBJam6k2fPt3WX39969evn+vuoosusrFjx5rk1pdffrlIYCmLStlVTZo0cdMBJbqUqXXnnXcumh64zz772GqrreZ+949//MPeffddu/TSS132VdOmTd26Wv3797dbbrnFbaf1tSZPnmyDBw+2rbfe2vbcc0/74osvXN9ay6ply5b22GOPuQyuE0880VZYYQXXl+SXMrRuu+02a9y4sRu3BJYyyiS2tB6WJJayy4YMGWLbbrut22bixIlOpEmoSdJRIAABCFSCAAKrEtTpEwIQgAAEIAABCEAAAhCoOgK5Aqt79+62++6724QJE1z2lETS6aefbq+++qqNHz9+kcCS/NE0w5VXXtnt788//2zbbbedk0GSVSqBwBo4cKDL0LrpppusS5cui/hIlm2yySZ28cUX2ymnnOJ+P2/ePFNW1+qrr26FMrAk0iSvmjVr5upoXJJSw4cPd2t4BQLr6aefdtlfhxxyiGv3gAMOsJkzZzoh16BBA/v0009tt912cwJN2WIUCEAAApUggMCqBHX6hAAEIAABCEAAAhCAAASqjkCuwLrxxhttq622cplJO++8sxND3333nZNYuQIr2Mk5c+bY1KlT3VsMlV0lKfT222+7qXqBwJIgWnvttW299dazZ555xsknld9//9023nhjO/vss61Hjx6LcSs2hVBSStto/BJnmiJ46623LhJYGst7771nyyyzjPvdG2+84YSVxiv5pkXe9d8rrbTSom2qLngMGAIQqHoCCKyqDyE7AAEIQAACEIAABCAAAQikQSBXYN1+++121llnOWmlNak0fe/66693U/ZyBdZHH33ktlMmlqb/aSrfN9984+TUxx9/7DKcAoGlzKjPPvvMvZFQUw2vvfZaO+qoo5z0GjBggEmaLb/88i7ba6+99nLrZGnqXyGB9eGHHzrppTEqC0tvN1RWlhaKf+CBBxYJrBkzZthzzz23CKH60zjfeecd23zzzdNASx8QgAAEihJAYBVFxAYQgAAEIAABCEAAAhCAAATMZTDpDYNaA2vYsGFOBknwzJ4921588UXbddddFxNYhx9+uP3www9uPSpJIRVlQWn7fAJLf1+4cKFb86p3795uOwknFWVS6Q2FEl1PPvmkdevWza655pq8AktZU8ra0qLyd91116LwderUybWfK7C0wLv6CRZu10LuysZSZlbr1q0JPQQgAAEvCCCwvAgDg4AABCAAAQhAAAIQgAAEfCdQU2AFMkoLqGvRdE23q5mBJQGk9bJOPfXURbunNbD0RsJCAksbTps2zTbddFM799xzXRZVbpGA0uLxkleST1OmTLE2bdrYQw895Kb+qWjK34Ybbui2C/pWptUaa6xh++23318ElqYPvv/++7biiiu6ug8++KDLGtOi70svvbTvYWF8EIBAHSGAwKojgWY3IQABCEAAAhCAAAQgAIF4BPIJrJot1hRYxxxzjFvQXWtOSQZpsfR7773XTemrKbAkjSSZNE1QQkmLvCvTSlMGNX1wm222cW8IlLTSWw832GADu/vuu10drceln8MOO8xNT9xhhx1c9pX+u0+fPm6qojK3Ro0a5f6Wm4Gl7KuTTjrJLeyutjUOremltvXGw08++cTVueOOO6xDhw7xIFIbAhCAQEQCCKyI4KgGAQhAAAIQgAAEIAABCNQtAhJY7dq1cz8SSvmK5M/nn3++aE2pyZMn2x577OF+p7WytAi7Mqg0pVBvLJRYknRq2rSpm56obCv9XW82vO2229w6V7NmzbKDDz7YXnrpJdelpvppaqKmMQYLryuLqlevXm4xdoktLcSuNwlquqPW4VK57LLLXGaXhJfqqhx33HGmBeb1NkO9/VBtd+7c2fWtNbNUNJVQb1zUIvMHHnhg3Qo6ewsBCHhDAIHlTSgYCAQgAAEIQAACEIAABCCQRQISUhJHEkKNGzeudRclnbSmlrbTAu25RaJJbyRcbrnl3E+YogXZ1bdElzK7aitqW2tnNWnSxGVeUSAAAQj4RACB5VM0GAsEIAABCEAAAhCAAAQgAAEIQAACEIDAYgQQWBwUEIAABCAAAQhAAAIQgAAEIAABCEAAAl4TQGB5HR4GBwEIQAACEIAABCAAAQhAAAIQgAAEIIDA4hiAAAQgAAEIQAACEIAABCAAAQhAAAIQ8JoAAsvr8DA4CEAAAhCAAAQgAAEIQAACEIAABCAAAQQWxwAEIAABCEAAAhCAAAQgAAEPCPzyyy/2ySefWLt27WyppZZKbERfffWVzZo1yzbbbDOrV69eYv1EaXj+/Pk2Y8YM95ZFvbUxX/nzzz9t+vTp7s2KNd/UGKVP6lSegN6+qbjqTZm+HZMBHR2bOu50zC277LKVh1ZlIyhHjBFYVRZ0hgsBCEAAAhCAAAQgAAEIVJ7Azz//bNtvv737GT58eK0DuuWWW+yKK66w4447zq666qqC2/773/+2/fbbz/7zn//Y6quvnthOdu3a1YmyMWPG2BJLLBG6n++//94eeeQRe/zxx+3bb7+1J554wrbaaqui9VXvoYcecttPmDDBnn32Wdtkk00Wq/f666/bUUcd5fZ/7bXXtgcffNC22GKLvwiNb775xg466CD7/PPPnUS4//77be+997b69esXHUfNDSZNmmR77bWXjRw50lq3bl1S/eOPP95ee+0199O0adOCdf/nf/7HtttuO5P8eO6552zVVVctqZ9Kb7xgwQIbPXq0YzRq1Chbc8017dVXXy06rOCYz7fh7bffbvvss4/705w5c+zKK6+0q6++2v3/CSecYNdee60TmKWWhQsX2sEHH2xbb721XXzxxSVVf+aZZ+zEE0+0k046yS6//PK/1BUDfXYfffRR++OPP9zfNP5bb73V1lhjjZL68XFjHaP6LtD+6bOpz9XHH39cdKgSUttss439/vvvf9m2X79+duyxxy76nWLct29fGzhwoJOUirHivcIKKxTto+YGCKySkVEBAhCAAAQgAAEIQAACEKjrBC677DIbNGiQy8aQcCkkgt59910nMJZeemk75phj7KabbiqIzneB1bNnT3vllVecVJKgkLzRvhUr5557rpMe6667rhNO7733nm2++eZ/qfbRRx/Z3//+dzvjjDNs//33d7JEIuOll16y9u3bu20//fRT23nnne3QQw+1o48+2km48847z2138sknFxvGYn+XUOvVq5drp0GDBqHrS0Y1b97c5s2bZ//4xz8WEx5BQ9rusMMOc5x0fLz//vu22mqrhe7Hhw2nTp1qe+65p6211lqmDMEpU6bYl19+WXRoEiDvvPPOX7aTIHnxxRdNQjMQeRIdkic33nijExrnnHOONWvWzCSUSi0aa9u2be3OO+90Yy6lSJzqeJAI/e6772zllVdeVF0CS8Jlww03tCZNmjgO/fv3tx9//NE++OCDv2xbSp++bCupLAm80UYbuQwzfR7EsljRtuuss46deuqp1qpVq0Wb6/OqtoIiYfXUU0+ZxGWjRo2se/furt7TTz9drIvF/o7AKhkZFSAAAQhAAAIQgAAEIACBukxAGQctWrRw4kQZVcr2yCdQlNnQsWNHJ2buvvtu22mnnUIJLN3g6yZZWV660d90003/kmGkTBNlQOlGW2JEN4s1xYhuunVjqrZUlCWkG3BNTQwysJ5//nmTONKUPWU8rb/++qGmb82dO9dN3wsrsDReTQv74osv3FhrCiz9XZkcK620kstSUtH49TtJr4cfftj97swzz3RiQ/U11UzZHEcccYT98MMP9sYbb5R8SCqTSzGRNCmlDBs2zPr06WMXXnihSc6p/8aNGy/WxL/+9S877bTT3Bjvu+++UAJLUkSiTnHdeOONXWwk1ySQVL7++msnAXIzf9T/7NmzbYMNNlgUP8mzzz77zH766Se3vdpaccUVXRvirQw2/b/6UX/aRplLtZVLL73UCcgwAqtmO8rCWW+99eyAAw5wmUsqEiUSTjoOd9llF/c7CV9NoVWmXbDPYWPz1ltv2b777mvKrNPxGbaIlYSKPhf6TN98881OkNZWxE8SdsSIEe4zXqjosyLJpWwlfWdI9OgzF3ym//vf/zopqM9FIFElRtW+YpYrxidPnux+r+O+ZcuW7rMRTLecNm2ak046BiRKf/vtN8e0FDGrfRgwYIBjUIrAkvjTd1y+ou8oxV1ZfDvuuKPbRN8D2v8333zTxb+UgsAqhRbbQgACEIAABCAAAQhAAAJ1noCm0XXp0sWJlHvvvddNjdENZM11q5SlIeGiG3RlLYUVWIcffrg9+eSTjrNEjvoaMmTIoptVCbPrrrvOCR+tZaWskccee8y1HxRlOQwdOtSJCWWJaXwSQRIIulHXzaPalgjTDbxuhLW9ssSKldoElrJujjzySJdxUXNaXiGBJVmnm/tLLrnEZUQFRft8/vnnu5tx7eOuu+7q/hXP4MZdQqVbt25O+JVSxEPSQjHUTX/Yoilkys7p0aOHkxyKqzJ+lBWWWxQXSQnFUVlHilexDCxlLekmX3wlxPQjibHKKqu42KjstttuTvBo2l1urCV+lK2mdcMkS5SBpH1TNpMkiQSn/l9tSpBIvkimqI72SVNBx44dW6vArE1giYVkW3Dc1uSpmEkuqb9Adkhk9e7d201XyxWwkjMSwhKEpZSzzz7bHcuDBw8upZqTi6orESjpIzmoKa+1FY15yy23dGJG04gLFX3eJGUlkHUcX3/99e54/fXXX91nU8e4ptx9+OGH7vOsInknsaN/g+mpytzUZ0PHvz7POr70/XLWWWe5OjoG1bakn/rT50Nx1/ePpu/p3zDTkmsTWJ07d3YZWkGMgwwsffdoPT1l0NWcyqvjVt9XErO5Mq1NmzZuumdtU6rzMUVglXRoszEEIAABCEAAAhCAAAQgUNcJSPIoC0XT4iRsdAP78ssv/yULQZlPml4nabTtttu6G9KwAks3uFqHR7JBckw3oMrakHBRBoYyZf75z3+69aIkK7S+ljK8lNGiG94bbrjBZQjdc889tvvuuzupoWwsZaXoJlYC66677nKZJpJNysjRGj/K+NIUwWKlNoElJprmJ6Gim9rcUkhgaZ+0rTKbdJMcFAkXSQLdyCvbREJsjz32cNPNgqLsIUkeZaeEuUEP6ilzRtNA1Ucpa/FI8iiOyj5THBRjZbaJdVCUISMBo6wo9SOxUExgSW4o40zHimKrdYhUV+sy6Xi74447XPPqW1O0JC+Cosy0t99+2wkoxVpyTRJDa4hJFEjWSWiOHz/eHa/KDBQzHTuSNxJKkpma5lpbqU1g6TjTPtScNhi0p6mh+izocxNkq2lMEp2BWAu21bpkkmqSQ2GLMrwkvrQ+mwRf2CKZJ4GpqZ76rGk6ozLz9HnRdMHcos+GxiQxpM+7pOVFF11UMMtJckaSTsJHGUdqU2JRx7MElASWPoP6fOs4zhVYitvEiROd2NNLF/Q5UGaUpuNJTomlpl8Gx6Gm52kqnz7b+j4IXoKg9fmUYSjhJklcrNQmsPTZk3gLYhwILB07klP6HpFklkAMMgSVgShu6j9XbmnKoj4fYb5vcseMwCoWQf4OAQhAAAIQgAAEIAABCEDg/wjoxlM3ghJABx54oMtmkTiRsNDNn4p+p8yLHXbYwWUV6QavFIGlbIy//e1vri3JHd386kZPN+ZaPFwiKHfKnKYgSUjoBlw3tcoi0RQ73Tjne6ObbnJ146sb0eAtfhIeEiVqq1gpdQph0F4hgSXxpkwmCRtlnwVFN/qa1qi/a//03xINylgJim7yNf1RYqSUTCoJO4kcCZxSijLCJAskzMROAkbMlb0TvJlOmVaSIJJ4mgIq8VBMYOkGXwLrhRdeWJTRo/Ep20uiJKzAUmyUsaWMHEmCoGiBfGW8SJSIl3jqeBLzsCXqFEJ9HiRfTznllL+sFya5oYwsHYc6XoNyyCGHOHkjfmGLstx0/Gq6Xm2L6tdsT5mIEoKqH0xjlCjVcSYJnFtuu+02JxclyyTrJKgU+3zr32mf9RmW9JGkCooyuzSltBSBJdGqermL56t9jVPfLxJUOib1b5CtGJZbze1KmUIoyahpmzqOxEBZXvpcSSTq+0VSS99Xiok+E7nfRToWNdWzlBhrrAisqJGlHgQgAAEIQAACEIAABCBQ5wgo80U3sbrxDabEKHNIC7oHi7nrhlU3gsG0oFIFlmRIkMGgTC6JG2WGKNNL68noRls3rEHR1C1NAZPoUPaFsjc0pUvTs/KVfG8hVAaP3qym7JJipdwCS2s1SfDVzMDSTa/EljJQxEBT8pTBkpuBpbraX7Ev5Y1wuvnXQvS50y6L7bemp0leatqW3lanotgqa+r00093U7yUxabxKAulU6dObpswAksZPcpc05pVudPpFBMJ0rACS1lWmh6oqYPKxgqKZIPGJvEp1hJYOl5yM7mK7X9UgSXOEn+SfoHkU19aAF/rhNXMwIqSnaP2JenEsZQ3UmqfJEQlQJURpSIppLfx6fObm52nDCP9SB5JJkm0SWTnWwNLnyNlFSobLneNNQmmYOpv2AwsZbdp3yQmc4t46sUKGr++DySw9XmIU0oRWPn60YsoJO/HjRvnvpP0XSNWyiDNjYuOa2UAKmuwlILAKoUW20IAAhCAAAQgAAEIQAACdZaAsiZ08y8RUHORaK3BpAwNZSBIbmhtptwbTq0Bo4wdTUuS/JJgqFnyvYWwpsCSnJDIUftB0U2xfq/pZlo3SGPUTa+yfvIV3wSWpiXprX5aKyd33SOt+yPBoKwwZXhon5TFEazxo33TGmQSIVp0Ol+2Wb79VyaYJIkyvEqRHZIVyrSrObVMU6EknZRpokwqTSuUdAoyczTVSpJRv5PM0HpLNYvEkjL2tEi7MliCoqysTTbZ5C8CS8JMb8ULiqaOSbZIBqi+Mn90fKhezaJMKO2zBJay3UpZgyiKwJLs1HglIEeOHPmX4ejzoniLWe7nQRliys7KXQ+t2JeO2Olzp4yfsEVST9M/JVJy12eSpNKLGpT1KP75iv6uz5wy7TRFtGbRMS2BpawzHddB0ZpzktA1M7AkHoPjKhC6wRRC9aEx5nuDqTL0lHEmgaXPuzLs4pS4AkvZkppaq+xPZZ9JSiuO+gznftb0HaYsNwn3UgoCqxRabAsBCEAAAhCAAAQgAAEI1FkCkgSaLvPoo4+6bKXcoqwDSSxlgGjNId3gBkVrIukmVBkJkgBazynftKMwAks3sbrJlKgIpv9JyEhaKWtEi4DrxlBv/1LmQ7CNxhK8DTBJgaUsJd2caw2emm9AKzSFUGMTV2W7aBqSbnSV2aQbYQmGQNYp80mMNOVM6yiJq7KIJBRzp1cVO0AloTQ2ZQaFLdovsZUw0LTB3KIxKxtHYlILo0s85BZlT+lHb2vT39VGzSKxoWwzrZmkKWYqknISY5IyQQaWjjOVYHqoOGlhd4kiCSwdVxJgHTp0cJlfudJA+6C/K4Oo3AJLgkXHV+5UQI1TU2B13It17vpm+pukjSSPphEGb6hTNpbirizEsGuaBdN6JUlqvkihtvhqWp7WlJIAzv08aj/WXHNNN+VSnzcdZyq5LCWWNU7JU62DVbOoDUk1iTm99EFyVb8777zzXFwCgaUpnDquJT+Dty5K7GnNsEBgab0rrXenjCtNSc0tGpvGVUhgSdJpyqPiEkbW1iawasZYx5M+R4E41v5pUXqtyaaMNok6cdK/+l4MFruXONbnOt86ecU+jwisYoT4OwQgAAEIQAACEIAABCAAATM3XUdrC2ntlpoZWLqB1M2psidyp4AJXKlTCDUdLrh5r5mBpWwf3fQrS+WCCy5wb/fSGjnKaNDbwDRtTNMBJTW0oLIyQCSGtMaPfqeb6qgCS9OCJO9046qsE01T1LQ9rT0lKaQiiSPJIikRZADp5lxrTUnwKSNDWWrKGtGYJRBUdMMriaW6+vsDDzzg1mfSotnK4FGR5FFGjLbTTbKklbJOJH1qypFCB6yyoSR4NA00EEVhDm7JEU07VMaS+OUWySPFQ+shXXPNNYs1F2YKoda7UkaUJKneMCiBoiyr/9feHeQ0b8RhHKY7lhyJA3AJ7sCmaq8FG84GfPpFGmlq2YnTTRzxjPS1EtjJ+Jkxkl/9Z5xdlWcjwOpn7c3UsrFCgFyrSCv8GJu4F/J1bQWZ9amQodCvCqiOuSbAKgBpOWTXn3eB1Fg+WeVX4UStwKzQtnk2t5bj9VKB7pnlZvmFL41j87Y53JyoWqeA9+PjY8+wnI7Jt2qprTcgrn1Qc7i3Io7N4pfVe709r2q5Nl4vSGpcG4eqKgticy9gLITZCtqqqmtD+gLI5mdzub8fnT8CrILm7p+C2FyroOqFAM2DEWAVsFXV15LDArNC0AK+AtHmYr/bCrDqZxVgjd3WEtsMWkpaQNU93lwpQCvwqhKuub02xi2b7r4tmOrv4fv7++nFAV1Hvxut5bWFcH1Hc6CquwLUxn1v1eT4LAHW7tvCgQQIECBAgAABAgQI/FaBQqj2NKpSpIe7ZSucKdApVBrVJOOYzu3Ngi3t6v9breCpCq2Cm7GcqOqi19fX0wN0eyvV2huqSonCsgKrHmA7b67saXPlHhirdughsSV6nVOo1B5SBWOFIaNKqgfRHnSrStlqPaCuLWOq+mtsrF5Vzdvb22nj6oKIWvt3jQ3u58+uMmdeQlQlU9dZMFDlSuHGy8vLfx5yu/ZCkfrfw3AhSpt3720Z98Dd9bacbm8rIOkaW0a4tkl4gUcbsFcttqw8KzjqX6HZ09PT5lcWLBWSVq3SuI6N4JsLI8AqZOiYgsIChkKVqnIKiApyqiSqEqYwp7CkAKbxr8/t91W1UGFZbr19sLl1rtWnKoSWVWWd05j2goFae1DVt3nD8gKq7okCx4KXtdbSygK7z8/PU6VTY9M8XFtiu3Z+11Kw2Oc3X/a2AqTCn0xGIDef231X+NvnFjAVZhU2Vc1UdWH3UXvMjaqpre/tfirAy6ZllO1TVYA6AqzOax+w5n3LDttjrfEtmC3IGvOlALHwtM3RG5MqqupXbyttHnfvFC43D+dWVWYBb/+W1VvjuK5pVKLN5za/mlP5ro1xAVrj3f1aINjnt0ddS2Tnys+x4X2hdn8L2zQ/u70VdnOfBFh7Z7jjCBAgQIAAAQIECBD41QIFA7WtqoFzv7907oAdy/xm6K2fjaVNy8Bk/qx5+dO81GftOta+Zzng4zqWP59Ntvq7NnmWlp1bn/v51pKnPcdsTdSqiQoGCviuaXvGb8tvz7lrY9a4tjSxTb9HgDWOKwiodczW5w+njstyOUbn5vJy/l0au3N92PM98/VcMy4FkQWoVRi1BPOadmlc5t+PDdzHGO9Zjjf60nzuvM4pfKpaaQ6wOm4+Ziw3XPs7M5zW7o9z8+9SpdPe+3o5lvMcO3fPdt7/HeN5TAVY18xwxxIgQIAAAQIECBAgQIDA3Qr0drgeureqUY52YVsB1tH6eav+FAi15LZKqLV95W7Vr63vHW/wXAZYR+vnUfsjwDrqyOgXAQIECBAgQIAAAQIECPxqgfaEarnY2kbhvxrmTi++/aaen59Pe8Q9Pj7e6VXcrtsCrNvZ+2YCBAgQIECAAAECBAgQILApcGmZG7r7ExhvDry/nt++xwKs24+BHhAgQIAAAQIECBAgQIAAAQIECJwREGCZHgQIECBAgAABAgQIECBAgAABAocWEGAdenh0jgABAgQIECBAgAABAgQIECBAQIBlDhAgQIAAAQIECBAgQIAAAQIECBxaQIB16OHROQIECBAgQIAAAQIECBAgQIAAAQGWOUCAAAECBAgQIECAAAECBAgQIHBoAQHWoYdH5wgQIECAAAECBAgQIECAAAECBARY5gABAgQIECBAgAABAgQIECBAgMChBQRYhx4enSNAgAABAgQIECBAgAABAgQIEBBgmQMECBAgQIAAAQIECBAgQIAAAQKHFhBgHXp4dI4AAQIECBAgQIAAAQIECBAgQECAZQ4QIECAAAECBAgQIECAAAECBAgcWkCAdejh0TkCBAgQIECAAAECBAgQIECAAIG//v7n35+vr++Hr++vh4fv74efTH5O/9UIECBAgAABAgQIECBAgAABAgQI3FzgDwWz/tMWjdD0AAAAAElFTkSuQmCC;" vertex="1" parent="1">
          <mxGeometry x="1169" y="830" width="1157.85" height="824" as="geometry" />
        </mxCell>
      </root>
    </mxGraphModel>
  </diagram>
</mxfile>
